<?xml version="1.0" encoding="UTF-8" standalone="no"?>
<svg
   xmlns:dc="http://purl.org/dc/elements/1.1/"
   xmlns:cc="http://creativecommons.org/ns#"
   xmlns:rdf="http://www.w3.org/1999/02/22-rdf-syntax-ns#"
   xmlns:svg="http://www.w3.org/2000/svg"
   xmlns="http://www.w3.org/2000/svg"
   xmlns:sodipodi="http://sodipodi.sourceforge.net/DTD/sodipodi-0.dtd"
   xmlns:inkscape="http://www.inkscape.org/namespaces/inkscape"
   width="1001.0495"
   height="504.03729"
   viewBox="0 0 264.86101 133.35987"
   version="1.1"
   id="svg1007"
   inkscape:version="1.0.2 (e86c870879, 2021-01-15, custom)"
   sodipodi:docname="colemaq-ansi-angle.svg">
  <defs
     id="defs1001">
    <filter
       inkscape:collect="always"
       style="color-interpolation-filters:sRGB"
       id="filter2430"
       x="-0.046799994"
       width="1.0936"
       y="-0.046800012"
       height="1.0936">
      <feGaussianBlur
         inkscape:collect="always"
         stdDeviation="0.77390623"
         id="feGaussianBlur2432" />
    </filter>
    <filter
       inkscape:collect="always"
       style="color-interpolation-filters:sRGB"
       id="filter2434"
       x="-0.046799995"
       width="1.0936"
       y="-0.046800012"
       height="1.0936">
      <feGaussianBlur
         inkscape:collect="always"
         stdDeviation="0.77390623"
         id="feGaussianBlur2436" />
    </filter>
    <filter
       inkscape:collect="always"
       style="color-interpolation-filters:sRGB"
       id="filter2438"
       x="-0.046799999"
       width="1.0936"
       y="-0.046800012"
       height="1.0936">
      <feGaussianBlur
         inkscape:collect="always"
         stdDeviation="0.77390623"
         id="feGaussianBlur2440" />
    </filter>
    <filter
       inkscape:collect="always"
       style="color-interpolation-filters:sRGB"
       id="filter2442"
       x="-0.45315765"
       width="1.9063153"
       y="-0.11607655"
       height="1.2321531">
      <feGaussianBlur
         inkscape:collect="always"
         stdDeviation="0.77390623"
         id="feGaussianBlur2444" />
    </filter>
    <filter
       inkscape:collect="always"
       style="color-interpolation-filters:sRGB"
       id="filter2446"
       x="-0.14196272"
       width="1.2839254"
       y="-0.1523436"
       height="1.3046872">
      <feGaussianBlur
         inkscape:collect="always"
         stdDeviation="0.77390623"
         id="feGaussianBlur2448" />
    </filter>
    <filter
       inkscape:collect="always"
       style="color-interpolation-filters:sRGB"
       id="filter2450"
       x="-0.16402646"
       width="1.3280529"
       y="-0.10095522"
       height="1.2019104">
      <feGaussianBlur
         inkscape:collect="always"
         stdDeviation="0.77390623"
         id="feGaussianBlur2452" />
    </filter>
    <filter
       inkscape:collect="always"
       style="color-interpolation-filters:sRGB"
       id="filter2454"
       x="-0.046799999"
       width="1.0936"
       y="-0.046800012"
       height="1.0936">
      <feGaussianBlur
         inkscape:collect="always"
         stdDeviation="0.77390623"
         id="feGaussianBlur2456" />
    </filter>
    <filter
       inkscape:collect="always"
       style="color-interpolation-filters:sRGB"
       id="filter2458"
       x="-0.046799999"
       width="1.0936"
       y="-0.046800012"
       height="1.0936">
      <feGaussianBlur
         inkscape:collect="always"
         stdDeviation="0.77390623"
         id="feGaussianBlur2460" />
    </filter>
    <filter
       inkscape:collect="always"
       style="color-interpolation-filters:sRGB"
       id="filter2462"
       x="-0.18828366"
       width="1.3765673"
       y="-0.10701653"
       height="1.2140331">
      <feGaussianBlur
         inkscape:collect="always"
         stdDeviation="0.77390623"
         id="feGaussianBlur2464" />
    </filter>
    <filter
       inkscape:collect="always"
       style="color-interpolation-filters:sRGB"
       id="filter2466"
       x="-0.18588379"
       width="1.3717676"
       y="-0.10546865"
       height="1.2109373">
      <feGaussianBlur
         inkscape:collect="always"
         stdDeviation="0.77390623"
         id="feGaussianBlur2468" />
    </filter>
    <filter
       inkscape:collect="always"
       style="color-interpolation-filters:sRGB"
       id="filter2470"
       x="-0.046799995"
       width="1.0936"
       y="-0.046800011"
       height="1.0936">
      <feGaussianBlur
         inkscape:collect="always"
         stdDeviation="0.77390623"
         id="feGaussianBlur2472" />
    </filter>
    <filter
       inkscape:collect="always"
       style="color-interpolation-filters:sRGB"
       id="filter2474"
       x="-0.046799999"
       width="1.0936"
       y="-0.046800011"
       height="1.0936">
      <feGaussianBlur
         inkscape:collect="always"
         stdDeviation="0.77390623"
         id="feGaussianBlur2476" />
    </filter>
    <filter
       inkscape:collect="always"
       style="color-interpolation-filters:sRGB"
       id="filter2478"
       x="-0.046799999"
       width="1.0936"
       y="-0.046800011"
       height="1.0936">
      <feGaussianBlur
         inkscape:collect="always"
         stdDeviation="0.77390623"
         id="feGaussianBlur2480" />
    </filter>
    <filter
       inkscape:collect="always"
       style="color-interpolation-filters:sRGB"
       id="filter2482"
       x="-0.17745332"
       width="1.3549066"
       y="-0.1461001"
       height="1.2922002">
      <feGaussianBlur
         inkscape:collect="always"
         stdDeviation="0.77390623"
         id="feGaussianBlur2484" />
    </filter>
    <filter
       inkscape:collect="always"
       style="color-interpolation-filters:sRGB"
       id="filter2486"
       x="-0.18872693"
       width="1.3774539"
       y="-0.14908687"
       height="1.2981737">
      <feGaussianBlur
         inkscape:collect="always"
         stdDeviation="0.77390623"
         id="feGaussianBlur2488" />
    </filter>
    <filter
       inkscape:collect="always"
       style="color-interpolation-filters:sRGB"
       id="filter2490"
       x="-0.18740389"
       width="1.3748078"
       y="-0.1461001"
       height="1.2922002">
      <feGaussianBlur
         inkscape:collect="always"
         stdDeviation="0.77390623"
         id="feGaussianBlur2492" />
    </filter>
    <filter
       inkscape:collect="always"
       style="color-interpolation-filters:sRGB"
       id="filter2494"
       x="-0.046799999"
       width="1.0936"
       y="-0.046800011"
       height="1.0936">
      <feGaussianBlur
         inkscape:collect="always"
         stdDeviation="0.77390623"
         id="feGaussianBlur2496" />
    </filter>
    <filter
       inkscape:collect="always"
       style="color-interpolation-filters:sRGB"
       id="filter2498"
       x="-0.046799999"
       width="1.0936"
       y="-0.046800011"
       height="1.0936">
      <feGaussianBlur
         inkscape:collect="always"
         stdDeviation="0.77390623"
         id="feGaussianBlur2500" />
    </filter>
    <filter
       inkscape:collect="always"
       style="color-interpolation-filters:sRGB"
       id="filter2502"
       x="-0.18270819"
       width="1.3654164"
       y="-0.12016315"
       height="1.2403263">
      <feGaussianBlur
         inkscape:collect="always"
         stdDeviation="0.77390623"
         id="feGaussianBlur2504" />
    </filter>
    <filter
       inkscape:collect="always"
       style="color-interpolation-filters:sRGB"
       id="filter2506"
       x="-0.17436719"
       width="1.3487344"
       y="-0.107088"
       height="1.214176">
      <feGaussianBlur
         inkscape:collect="always"
         stdDeviation="0.77390623"
         id="feGaussianBlur2508" />
    </filter>
  </defs>
  <sodipodi:namedview
     id="base"
     pagecolor="#ffffff"
     bordercolor="#666666"
     borderopacity="1.0"
     inkscape:pageopacity="0.0"
     inkscape:pageshadow="2"
     inkscape:zoom="0.7"
     inkscape:cx="476.01627"
     inkscape:cy="265.74748"
     inkscape:document-units="px"
     inkscape:current-layer="layer1"
     inkscape:document-rotation="0"
     showgrid="true"
     units="px"
     showguides="true"
     inkscape:guide-bbox="true"
     objecttolerance="20"
     guidetolerance="10"
     inkscape:snap-bbox="true"
     inkscape:bbox-nodes="false"
     inkscape:snap-bbox-edge-midpoints="false"
     inkscape:snap-bbox-midpoints="false"
     inkscape:window-width="1600"
     inkscape:window-height="858"
     inkscape:window-x="900"
     inkscape:window-y="0"
     inkscape:window-maximized="1"
     inkscape:bbox-paths="false"
     fit-margin-top="10"
     fit-margin-left="10"
     fit-margin-right="10"
     fit-margin-bottom="10"
     lock-margins="true"
     inkscape:object-nodes="false"
     inkscape:snap-nodes="false">
    <inkscape:grid
       type="xygrid"
       id="grid1742"
       spacingx="3.96875"
       spacingy="3.96875"
       empspacing="0"
       originx="-39.411544"
       originy="-68.257563" />
  </sodipodi:namedview>
  <metadata
     id="metadata1004">
    <rdf:RDF>
      <cc:Work
         rdf:about="">
        <dc:format>image/svg+xml</dc:format>
        <dc:type
           rdf:resource="http://purl.org/dc/dcmitype/StillImage" />
        <dc:title />
      </cc:Work>
    </rdf:RDF>
  </metadata>
  <g
     inkscape:label="Layer 1"
     inkscape:groupmode="layer"
     id="layer1"
     transform="translate(-39.411553,-68.257553)">
    <path
       id="rect1009"
       style="fill:#000000;fill-opacity:0;stroke:#000000;stroke-width:1.06821;stroke-miterlimit:4;stroke-dasharray:none;stroke-opacity:1;opacity:0.5;filter:url(#filter2430)"
       d="m 55.562507,71.437491 h 30.685244 c 2.493626,0 4.50113,2.007503 4.50113,4.501128 v 30.685231 c 0,2.49363 -2.007504,4.50113 -4.50113,4.50113 H 55.562507 c -2.493626,0 -4.50113,-2.0075 -4.50113,-4.50113 V 75.938619 c 0,-2.493625 2.007504,-4.501128 4.50113,-4.501128 z" />
    <path
       id="rect1009-7"
       style="fill:#000000;fill-opacity:0;stroke:#000000;stroke-width:1.06821;stroke-miterlimit:4;stroke-dasharray:none;stroke-opacity:1;opacity:0.5;filter:url(#filter2434)"
       d="M 99.218757,71.437491 H 129.904 c 2.49363,0 4.50113,2.007503 4.50113,4.501128 v 30.685231 c 0,2.49363 -2.0075,4.50113 -4.50113,4.50113 H 99.218757 c -2.493626,0 -4.50113,-2.0075 -4.50113,-4.50113 V 75.938619 c 0,-2.493625 2.007504,-4.501128 4.50113,-4.501128 z" />
    <path
       id="rect1009-7-5"
       style="fill:#000000;fill-opacity:0;stroke:#000000;stroke-width:1.06821;stroke-miterlimit:4;stroke-dasharray:none;stroke-opacity:1;opacity:0.5;filter:url(#filter2438)"
       d="m 142.87501,71.437491 h 30.68524 c 2.49363,0 4.50113,2.007503 4.50113,4.501128 v 30.685231 c 0,2.49363 -2.0075,4.50113 -4.50113,4.50113 h -30.68524 c -2.49363,0 -4.50113,-2.0075 -4.50113,-4.50113 V 75.938619 c 0,-2.493625 2.0075,-4.501128 4.50113,-4.501128 z" />
    <g
       aria-label=";"
       id="text1786"
       style="font-style:normal;font-weight:normal;font-size:22.5778px;line-height:1.25;font-family:sans-serif;fill:#000000;fill-opacity:1;stroke:none;stroke-width:0.264583;opacity:0.5;filter:url(#filter2442)"
       transform="translate(-0.532373)">
      <path
         d="m 71.599594,83.280602 q 0.532605,0 0.961004,0.254724 0.428399,0.243146 0.671545,0.671545 0.254724,0.428399 0.254724,0.937847 0,0.509448 -0.254724,0.949426 -0.243146,0.428399 -0.671545,0.683123 -0.428399,0.254724 -0.961004,0.254724 -0.521026,0 -0.949425,-0.254724 -0.416821,-0.254724 -0.671545,-0.683123 -0.243145,-0.439978 -0.243145,-0.949426 0,-0.509448 0.243145,-0.937847 0.254724,-0.428399 0.671545,-0.671545 0.428399,-0.254724 0.949425,-0.254724 z m 0,8.000647 q 0.532605,0 0.961004,0.254724 0.428399,0.243145 0.671545,0.671544 0.254724,0.416821 0.254724,0.926269 0,0.451556 -0.104205,0.879955 -0.104206,0.4284 -0.358929,0.961004 l -1.875695,4.30715 h -1.75991 l 1.111522,-4.596609 q -0.358929,-0.243145 -0.567339,-0.648388 -0.196832,-0.416821 -0.196832,-0.891533 0,-0.509448 0.243145,-0.937848 0.254724,-0.428399 0.671545,-0.671544 0.428399,-0.254724 0.949425,-0.254724 z"
         style="font-style:normal;font-variant:normal;font-weight:normal;font-stretch:normal;font-size:22.5778px;font-family:'Fira Code';-inkscape-font-specification:'Fira Code';stroke-width:0.264583"
         id="path340" />
    </g>
    <g
       aria-label="w"
       id="text1790"
       style="font-style:normal;font-weight:normal;font-size:22.5778px;line-height:1.25;font-family:sans-serif;fill:#000000;fill-opacity:1;stroke:none;stroke-width:0.264583;opacity:0.5;filter:url(#filter2446)"
       transform="translate(-0.532373)">
      <path
         d="m 121.63553,87.312497 -2.13042,12.192012 h -2.75565 l -1.57465,-8.950072 -1.7136,8.950072 h -2.68618 l -2.22304,-12.192012 h 1.99147 l 1.5515,10.987863 1.94517,-9.436363 h 2.30409 l 1.84096,9.436363 1.5515,-10.987863 z"
         style="font-style:normal;font-variant:normal;font-weight:normal;font-stretch:normal;font-size:22.5778px;font-family:'Fira Code';-inkscape-font-specification:'Fira Code';stroke-width:0.264583"
         id="path343" />
    </g>
    <g
       aria-label="g"
       id="text1794"
       style="font-style:normal;font-variant:normal;font-weight:normal;font-stretch:normal;font-size:22.5778px;line-height:1.25;font-family:'Fira Code';-inkscape-font-specification:'Fira Code';fill:#000000;fill-opacity:1;stroke:none;stroke-width:0.264583;opacity:0.5;filter:url(#filter2450)"
       transform="translate(97.772704,41.348505)">
      <path
         d="m 165.44492,88.29403 q -0.71786,0.219989 -1.53992,0.289459 -0.81048,0.06947 -2.02621,0.06947 2.11884,0.972582 2.11884,3.068265 0,1.20415 -0.55576,2.153575 -0.54419,0.937847 -1.58624,1.470452 -1.03047,0.521026 -2.44303,0.521026 -0.60208,0 -1.0189,-0.04631 -0.40524,-0.05789 -0.7989,-0.185254 -0.27789,0.196832 -0.46314,0.521026 -0.17367,0.312616 -0.17367,0.659966 0,0.474713 0.3705,0.752594 0.37051,0.266302 1.26204,0.266302 h 2.19989 q 1.20415,0 2.18831,0.439978 0.99574,0.428399 1.5515,1.192571 0.56734,0.75259 0.56734,1.67886 0,1.79464 -1.51676,2.75565 -1.51677,0.961 -4.30715,0.961 -1.92201,0 -3.05669,-0.39366 -1.1231,-0.39367 -1.60939,-1.20415 -0.48629,-0.79891 -0.48629,-2.07253 h 1.75991 q 0,0.7526 0.27788,1.19257 0.28946,0.45156 1.01889,0.67155 0.74102,0.21999 2.08411,0.21999 1.99148,0 2.92932,-0.49787 0.93785,-0.49787 0.93785,-1.50519 0,-0.84522 -0.76417,-1.296772 -0.76417,-0.451556 -1.99148,-0.451556 h -2.17673 q -1.00732,0 -1.70202,-0.312616 -0.6947,-0.312616 -1.03047,-0.833642 -0.33577,-0.521026 -0.33577,-1.146258 0,-0.590496 0.34735,-1.146257 0.34735,-0.555761 0.99573,-0.984161 -1.05363,-0.555761 -1.5515,-1.377825 -0.49786,-0.822063 -0.49786,-1.991477 0,-1.215728 0.61365,-2.176732 0.62523,-0.972582 1.72517,-1.516765 1.11153,-0.544183 2.52409,-0.544183 1.47045,0 2.43145,-0.115783 0.96101,-0.127362 1.60939,-0.335773 0.65997,-0.20841 1.51677,-0.578918 z m -6.15968,0.625231 q -1.42414,0 -2.15358,0.764172 -0.71786,0.764172 -0.71786,2.04937 0,1.296776 0.72944,2.072526 0.74101,0.764172 2.18831,0.764172 1.27362,0 1.95674,-0.741015 0.6947,-0.752594 0.6947,-2.107262 0,-1.377824 -0.68312,-2.084104 -0.68312,-0.717859 -2.01463,-0.717859 z"
         style="font-style:normal;font-variant:normal;font-weight:normal;font-stretch:normal;font-size:22.5778px;font-family:'Fira Code';-inkscape-font-specification:'Fira Code';stroke-width:0.264583"
         id="path346" />
    </g>
    <path
       id="rect1009-7-5-3"
       style="fill:#000000;fill-opacity:0;stroke:#000000;stroke-width:1.06821;stroke-miterlimit:4;stroke-dasharray:none;stroke-opacity:1;opacity:0.5;filter:url(#filter2454)"
       d="m 186.53126,71.437491 h 30.68524 c 2.49363,0 4.50113,2.007503 4.50113,4.501128 v 30.685231 c 0,2.49363 -2.0075,4.50113 -4.50113,4.50113 h -30.68524 c -2.49363,0 -4.50113,-2.0075 -4.50113,-4.50113 V 75.938619 c 0,-2.493625 2.0075,-4.501128 4.50113,-4.501128 z" />
    <path
       id="rect1009-7-5-3-6"
       style="fill:#000000;fill-opacity:0;stroke:#000000;stroke-width:1.06821;stroke-miterlimit:4;stroke-dasharray:none;stroke-opacity:1;opacity:0.5;filter:url(#filter2458)"
       d="m 230.18751,71.437491 h 30.68524 c 2.49363,0 4.50113,2.007503 4.50113,4.501128 v 30.685231 c 0,2.49363 -2.0075,4.50113 -4.50113,4.50113 h -30.68524 c -2.49363,0 -4.50113,-2.0075 -4.50113,-4.50113 V 75.938619 c 0,-2.493625 2.0075,-4.501128 4.50113,-4.501128 z" />
    <g
       aria-label="p"
       id="text216"
       style="font-style:normal;font-weight:normal;font-size:22.5778px;line-height:1.25;font-family:sans-serif;fill:#000000;fill-opacity:1;stroke:none;stroke-width:0.264583;opacity:0.5;filter:url(#filter2462)"
       transform="translate(-0.532373)">
      <path
         d="m 203.8909,86.572017 q 2.33883,0 3.3693,1.655705 1.04206,1.655706 1.04206,4.689236 0,1.887272 -0.52103,3.322989 -0.52103,1.424138 -1.58623,2.234623 -1.05363,0.810485 -2.59356,0.810485 -2.01463,0 -3.21878,-1.41256 v 5.812335 l -1.94517,0.24315 V 86.826741 h 1.65571 l 0.1621,1.702018 q 0.67154,-0.949425 1.59781,-1.447294 0.93785,-0.509448 2.03779,-0.509448 z m -0.46313,1.563078 q -0.93785,0 -1.7136,0.555762 -0.76417,0.555761 -1.33151,1.400981 v 6.043904 q 0.48629,0.717858 1.20415,1.1231 0.72944,0.405243 1.58623,0.405243 1.52835,0 2.28094,-1.169414 0.76417,-1.169415 0.76417,-3.589292 0,-2.408298 -0.68312,-3.589291 -0.68312,-1.180993 -2.10726,-1.180993 z"
         style="font-style:normal;font-variant:normal;font-weight:normal;font-stretch:normal;font-size:22.5778px;font-family:'Fira Code';-inkscape-font-specification:'Fira Code';stroke-width:0.264583"
         id="path356" />
    </g>
    <g
       aria-label="b"
       id="text220"
       style="font-style:normal;font-weight:normal;font-size:22.5778px;line-height:1.25;font-family:sans-serif;fill:#000000;fill-opacity:1;stroke:none;stroke-width:0.264583;opacity:0.5;filter:url(#filter2466)"
       transform="translate(-0.532373)">
      <path
         d="m 244.03891,89.214512 q 0.68312,-0.891533 1.56308,-1.366246 0.87995,-0.474713 1.91043,-0.474713 2.36198,0 3.46193,1.678862 1.11152,1.667284 1.11152,4.666079 0,1.864116 -0.55576,3.311411 -0.55576,1.435717 -1.64413,2.246202 -1.08836,0.810483 -2.62829,0.810483 -1.06521,0 -1.88727,-0.370506 -0.82206,-0.382085 -1.43572,-1.157836 l -0.13894,1.262042 h -1.70202 V 82.719053 l 1.94517,-0.243146 z m 2.75565,9.297423 q 1.5515,0 2.36198,-1.192571 0.81049,-1.204149 0.81049,-3.612448 0,-2.373564 -0.72944,-3.566135 -0.72943,-1.204149 -2.14199,-1.204149 -0.93785,0 -1.7136,0.555761 -0.77575,0.555761 -1.34309,1.400982 v 6.043903 q 0.48629,0.741015 1.20415,1.157836 0.72944,0.416821 1.5515,0.416821 z"
         style="font-style:normal;font-variant:normal;font-weight:normal;font-stretch:normal;font-size:22.5778px;font-family:'Fira Code';-inkscape-font-specification:'Fira Code';stroke-width:0.264583"
         id="path359" />
    </g>
    <path
       id="rect1009-2"
       style="fill:#000000;fill-opacity:0;stroke:#000000;stroke-width:1.06821;stroke-miterlimit:4;stroke-dasharray:none;stroke-opacity:1;opacity:0.5;filter:url(#filter2470)"
       d="m 67.468757,115.09374 h 30.685244 c 2.493629,0 4.501129,2.0075 4.501129,4.50113 v 30.68523 c 0,2.49363 -2.0075,4.50113 -4.501129,4.50113 H 67.468757 c -2.493626,0 -4.50113,-2.0075 -4.50113,-4.50113 v -30.68523 c 0,-2.49363 2.007504,-4.50113 4.50113,-4.50113 z" />
    <path
       id="rect1009-7-9"
       style="fill:#000000;fill-opacity:0;stroke:#000000;stroke-width:1.06821;stroke-miterlimit:4;stroke-dasharray:none;stroke-opacity:1;opacity:0.5;filter:url(#filter2474)"
       d="m 111.12501,115.09374 h 30.68524 c 2.49363,0 4.50113,2.0075 4.50113,4.50113 v 30.68523 c 0,2.49363 -2.0075,4.50113 -4.50113,4.50113 h -30.68524 c -2.49363,0 -4.50113,-2.0075 -4.50113,-4.50113 v -30.68523 c 0,-2.49363 2.0075,-4.50113 4.50113,-4.50113 z" />
    <path
       id="rect1009-7-5-1"
       style="fill:#000000;fill-opacity:0;stroke:#000000;stroke-width:1.06821;stroke-miterlimit:4;stroke-dasharray:none;stroke-opacity:1;opacity:0.5;filter:url(#filter2478)"
       d="m 154.78126,115.09374 h 30.68524 c 2.49363,0 4.50113,2.0075 4.50113,4.50113 v 30.68523 c 0,2.49363 -2.0075,4.50113 -4.50113,4.50113 h -30.68524 c -2.49363,0 -4.50113,-2.0075 -4.50113,-4.50113 v -30.68523 c 0,-2.49363 2.0075,-4.50113 4.50113,-4.50113 z" />
    <g
       aria-label="a"
       id="text1786-2"
       style="font-style:normal;font-weight:normal;font-size:22.5778px;line-height:1.25;font-family:sans-serif;fill:#000000;fill-opacity:1;stroke:none;stroke-width:0.264583;opacity:0.5;filter:url(#filter2482)"
       transform="translate(-0.532373)">
      <path
         d="m 87.720839,139.94826 q 0,0.71786 0.231567,1.06521 0.231567,0.33577 0.764172,0.49787 l -0.474713,1.36624 q -1.759911,-0.23156 -2.234623,-1.71359 -0.648389,0.84522 -1.644127,1.2852 -0.984161,0.42839 -2.176732,0.42839 -1.204149,0 -2.095683,-0.46313 -0.891534,-0.46313 -1.366246,-1.30835 -0.474713,-0.8568 -0.474713,-1.99148 0,-1.88727 1.470451,-2.89459 1.470452,-1.00732 4.249258,-1.00732 h 1.794646 v -1.01889 q 0,-1.27362 -0.741015,-1.84096 -0.741015,-0.57892 -2.165153,-0.57892 -1.377825,0 -3.172471,0.62523 l -0.509447,-1.47045 q 2.037791,-0.76417 3.982955,-0.76417 2.234624,0 3.392459,1.05363 1.169415,1.04205 1.169415,2.88301 z m -5.036587,1.44729 q 0.903112,0 1.713598,-0.45155 0.822063,-0.46314 1.366246,-1.27362 v -3.13774 h -1.759911 q -1.933586,0 -2.801963,0.65997 -0.868377,0.65997 -0.868377,1.89885 0,2.30409 2.350407,2.30409 z"
         style="font-style:normal;font-variant:normal;font-weight:normal;font-stretch:normal;font-size:22.5778px;font-family:'Fira Code';-inkscape-font-specification:'Fira Code';stroke-width:0.264583"
         id="path380" />
    </g>
    <g
       aria-label="r"
       id="text1790-0"
       style="font-style:normal;font-weight:normal;font-size:22.5778px;line-height:1.25;font-family:sans-serif;fill:#000000;fill-opacity:1;stroke:none;stroke-width:0.264583;opacity:0.5;filter:url(#filter2486)"
       transform="translate(-0.532373)">
      <path
         d="m 130.64558,130.49507 q 0.47471,0 0.86837,0.0695 0.39367,0.0579 0.8568,0.19683 l -0.27788,4.1219 h -1.59781 v -2.59355 h -0.10421 q -1.41256,0 -2.4083,0.99573 -0.99573,0.99574 -1.60939,3.01038 v 5.16395 h 2.47777 v 1.4936 h -6.32178 v -1.4936 h 1.89885 v -9.2048 h -1.89885 v -1.49361 h 3.38088 l 0.35893,2.88301 q 0.74101,-1.58623 1.75991,-2.36198 1.03047,-0.78733 2.61671,-0.78733 z"
         style="font-style:normal;font-variant:normal;font-weight:normal;font-stretch:normal;font-size:22.5778px;font-family:'Fira Code';-inkscape-font-specification:'Fira Code';stroke-width:0.264583"
         id="path383" />
    </g>
    <g
       aria-label="s"
       id="text1794-3"
       style="font-style:normal;font-variant:normal;font-weight:normal;font-stretch:normal;font-size:22.5778px;line-height:1.25;font-family:'Fira Code';-inkscape-font-specification:'Fira Code';fill:#000000;fill-opacity:1;stroke:none;stroke-width:0.264583;opacity:0.5;filter:url(#filter2490)"
       transform="translate(-0.532373)">
      <path
         d="m 170.95881,141.48807 q 1.40099,0 2.21147,-0.52102 0.82206,-0.52103 0.82206,-1.41256 0,-0.60208 -0.21998,-0.98416 -0.20842,-0.39367 -0.84522,-0.71786 -0.62524,-0.3242 -1.88728,-0.63681 -1.40098,-0.34735 -2.29251,-0.7526 -0.87996,-0.41682 -1.37783,-1.07678 -0.48629,-0.65997 -0.48629,-1.67887 0,-1.00731 0.57892,-1.75991 0.57892,-0.75259 1.62097,-1.15783 1.05363,-0.40524 2.43146,-0.40524 1.37782,0 2.47776,0.3705 1.11153,0.35893 1.94517,0.97258 l -0.8568,1.31994 q -0.76417,-0.52103 -1.60939,-0.79891 -0.83364,-0.28946 -1.93359,-0.28946 -1.37782,0 -2.01463,0.4284 -0.62523,0.41682 -0.62523,1.16942 0,0.54418 0.28946,0.89153 0.30103,0.34735 0.961,0.62523 0.67154,0.2663 1.99148,0.62523 1.31993,0.35893 2.16515,0.79891 0.84522,0.43998 1.31993,1.15783 0.47472,0.70628 0.47472,1.80623 0,1.23888 -0.71786,2.06095 -0.71786,0.81048 -1.88728,1.19257 -1.15783,0.38208 -2.53566,0.38208 -2.87143,0 -4.77028,-1.64412 l 1.11152,-1.2852 q 0.74102,0.62523 1.67886,0.97258 0.93785,0.34735 1.9799,0.34735 z"
         style="font-style:normal;font-variant:normal;font-weight:normal;font-stretch:normal;font-size:22.5778px;font-family:'Fira Code';-inkscape-font-specification:'Fira Code';stroke-width:0.264583"
         id="path386" />
    </g>
    <path
       id="rect1009-7-5-3-0"
       style="fill:#000000;fill-opacity:0;stroke:#000000;stroke-width:1.06821;stroke-miterlimit:4;stroke-dasharray:none;stroke-opacity:1;opacity:0.5;filter:url(#filter2494)"
       d="m 198.43751,115.09374 h 30.68524 c 2.49363,0 4.50113,2.0075 4.50113,4.50113 v 30.68523 c 0,2.49363 -2.0075,4.50113 -4.50113,4.50113 h -30.68524 c -2.49363,0 -4.50113,-2.0075 -4.50113,-4.50113 v -30.68523 c 0,-2.49363 2.0075,-4.50113 4.50113,-4.50113 z" />
    <path
       id="rect1009-7-5-3-6-6"
       style="fill:#000000;fill-opacity:0;stroke:#000000;stroke-width:1.06821;stroke-miterlimit:4;stroke-dasharray:none;stroke-opacity:1;opacity:0.5;filter:url(#filter2498)"
       d="M 242.09376,115.09374 H 272.779 c 2.49363,0 4.50113,2.0075 4.50113,4.50113 v 30.68523 c 0,2.49363 -2.0075,4.50113 -4.50113,4.50113 h -30.68524 c -2.49363,0 -4.50113,-2.0075 -4.50113,-4.50113 v -30.68523 c 0,-2.49363 2.0075,-4.50113 4.50113,-4.50113 z" />
    <g
       aria-label="t"
       id="text216-9"
       style="font-style:normal;font-weight:normal;font-size:22.5778px;line-height:1.25;font-family:sans-serif;fill:#000000;fill-opacity:1;stroke:none;stroke-width:0.264583;opacity:0.5;filter:url(#filter2502)"
       transform="translate(-0.532373)">
      <path
         d="m 220.02327,142.06135 q -0.61365,0.40524 -1.51677,0.63681 -0.89153,0.24315 -1.74833,0.24315 -1.2852,0 -2.21147,-0.46314 -0.91469,-0.47471 -1.40098,-1.30835 -0.48629,-0.83365 -0.48629,-1.91043 v -7.27121 h -2.80196 v -1.50519 h 2.80196 v -2.76723 l 1.94517,-0.23156 v 2.99879 h 4.21452 l -0.23157,1.50519 h -3.98295 v 7.24805 q 0,1.04205 0.54418,1.56308 0.55576,0.52103 1.78307,0.52103 1.23888,0 2.33883,-0.57892 z"
         style="font-style:normal;font-variant:normal;font-weight:normal;font-stretch:normal;font-size:22.5778px;font-family:'Fira Code';-inkscape-font-specification:'Fira Code';stroke-width:0.264583"
         id="path396" />
    </g>
    <g
       aria-label="f"
       id="text220-0"
       style="font-style:normal;font-weight:normal;font-size:22.5778px;line-height:1.25;font-family:sans-serif;fill:#000000;fill-opacity:1;stroke:none;stroke-width:0.264583;opacity:0.5;filter:url(#filter2506)"
       transform="translate(-100.5877,-42.926376)">
      <path
         d="m 261.20175,126.13215 q 0.94943,0 1.74833,0.17368 0.79891,0.16209 1.5515,0.48629 l -0.62523,1.44729 q -1.13468,-0.50945 -2.61671,-0.50945 -2.55882,0 -2.55882,2.02622 v 2.47777 h 4.13348 l -0.20841,1.52834 h -3.92507 v 9.71424 h -1.94516 v -9.71424 h -2.90617 v -1.52834 h 2.90617 v -2.43146 q 0,-1.09994 0.57892,-1.93359 0.57892,-0.83364 1.58623,-1.28519 1.00732,-0.45156 2.28094,-0.45156 z"
         style="font-style:normal;font-variant:normal;font-weight:normal;font-stretch:normal;font-size:22.5778px;font-family:'Fira Code';-inkscape-font-specification:'Fira Code';stroke-width:0.264583"
         id="path399" />
    </g>
    <path
       id="rect1009-2-6"
       style="fill:#000000;fill-opacity:0;stroke:#000000;stroke-width:1.06821;stroke-miterlimit:4;stroke-dasharray:none;stroke-opacity:1"
       d="M 91.281251,158.74999 H 121.9665 c 2.49363,0 4.50113,2.0075 4.50113,4.50113 v 30.68523 c 0,2.49363 -2.0075,4.50113 -4.50113,4.50113 H 91.281251 c -2.493626,0 -4.501129,-2.0075 -4.501129,-4.50113 v -30.68523 c 0,-2.49363 2.007503,-4.50113 4.501129,-4.50113 z" />
    <path
       id="rect1009-7-9-1"
       style="fill:#000000;fill-opacity:0;stroke:#000000;stroke-width:1.06821;stroke-miterlimit:4;stroke-dasharray:none;stroke-opacity:1"
       d="m 134.93751,158.74999 h 30.68524 c 2.49363,0 4.50113,2.0075 4.50113,4.50113 v 30.68523 c 0,2.49363 -2.0075,4.50113 -4.50113,4.50113 h -30.68524 c -2.49363,0 -4.50113,-2.0075 -4.50113,-4.50113 v -30.68523 c 0,-2.49363 2.0075,-4.50113 4.50113,-4.50113 z" />
    <path
       id="rect1009-7-5-1-2"
       style="fill:#000000;fill-opacity:0;stroke:#000000;stroke-width:1.06821;stroke-miterlimit:4;stroke-dasharray:none;stroke-opacity:1"
       d="m 178.59375,158.74999 h 30.68524 c 2.49363,0 4.50113,2.0075 4.50113,4.50113 v 30.68523 c 0,2.49363 -2.0075,4.50113 -4.50113,4.50113 h -30.68524 c -2.49363,0 -4.50113,-2.0075 -4.50113,-4.50113 v -30.68523 c 0,-2.49363 2.0075,-4.50113 4.50113,-4.50113 z" />
    <g
       aria-label="x"
       id="text1786-2-9"
       style="font-style:normal;font-weight:normal;font-size:22.5778px;line-height:1.25;font-family:sans-serif;fill:#000000;fill-opacity:1;stroke:none;stroke-width:0.264583"
       transform="translate(11.373864)">
      <path
         d="m 94.63476,181.11384 -3.380881,5.23342 h -2.223045 l 4.503982,-6.43757 -3.948221,-5.75444 h 2.304094 l 2.825119,4.53871 2.859855,-4.53871 h 2.223045 l -3.936642,5.67339 4.492404,6.51862 h -2.385143 z"
         style="font-style:normal;font-variant:normal;font-weight:normal;font-stretch:normal;font-size:22.5778px;font-family:'Fira Code';-inkscape-font-specification:'Fira Code';stroke-width:0.264583"
         id="path420" />
    </g>
    <g
       aria-label="c"
       id="text1790-0-1"
       style="font-style:normal;font-weight:normal;font-size:22.5778px;line-height:1.25;font-family:sans-serif;fill:#000000;fill-opacity:1;stroke:none;stroke-width:0.264583"
       transform="translate(11.373864)">
      <path
         d="m 139.51004,184.78867 q 1.63255,0 3.17247,-1.06521 l 0.94943,1.27362 q -0.79891,0.67155 -1.92201,1.07679 -1.1231,0.39367 -2.19989,0.39367 -1.79464,0 -3.09142,-0.77575 -1.2852,-0.77575 -1.95674,-2.19989 -0.67155,-1.42414 -0.67155,-3.33457 0,-1.84096 0.68313,-3.28825 0.68312,-1.45888 1.9799,-2.28094 1.29677,-0.83364 3.07984,-0.83364 2.32725,0 4.07558,1.41256 l -0.94942,1.29677 q -1.57466,-1.08836 -3.14932,-1.08836 -1.07678,0 -1.88727,0.5326 -0.81048,0.53261 -1.27362,1.60939 -0.45156,1.07679 -0.45156,2.63987 0,2.33883 0.97259,3.48509 0.98416,1.14625 2.63986,1.14625 z"
         style="font-style:normal;font-variant:normal;font-weight:normal;font-stretch:normal;font-size:22.5778px;font-family:'Fira Code';-inkscape-font-specification:'Fira Code';stroke-width:0.264583"
         id="path423" />
    </g>
    <g
       aria-label="d"
       id="text1794-3-4"
       style="font-style:normal;font-variant:normal;font-weight:normal;font-stretch:normal;font-size:22.5778px;line-height:1.25;font-family:'Fira Code';-inkscape-font-specification:'Fira Code';fill:#000000;fill-opacity:1;stroke:none;stroke-width:0.264583"
       transform="translate(11.373864)">
      <path
         d="m 185.45511,169.04446 1.94517,0.24314 v 17.10124 h -1.70202 l -0.18526,-1.60939 q -0.67154,0.94942 -1.5515,1.41256 -0.87995,0.46313 -1.91042,0.46313 -2.31568,0 -3.48509,-1.70202 -1.15784,-1.70202 -1.15784,-4.64292 0,-1.84096 0.56734,-3.28825 0.57892,-1.4473 1.65571,-2.25778 1.08836,-0.82207 2.55882,-0.82207 1.04205,0 1.84095,0.35893 0.81049,0.35893 1.42414,1.07679 z m -2.75565,6.46072 q -1.53992,0 -2.36198,1.21573 -0.81049,1.20415 -0.81049,3.58929 0,2.36199 0.74102,3.56614 0.75259,1.20415 2.18831,1.20415 1.72517,0 2.99879,-1.92201 v -6.09022 q -0.49787,-0.74101 -1.21573,-1.14626 -0.70627,-0.41682 -1.53992,-0.41682 z"
         style="font-style:normal;font-variant:normal;font-weight:normal;font-stretch:normal;font-size:22.5778px;font-family:'Fira Code';-inkscape-font-specification:'Fira Code';stroke-width:0.264583"
         id="path426" />
    </g>
    <path
       id="rect1009-7-5-3-0-8"
       style="fill:#000000;fill-opacity:0;stroke:#000000;stroke-width:1.06821;stroke-miterlimit:4;stroke-dasharray:none;stroke-opacity:1"
       d="m 222.25,158.74999 h 30.68524 c 2.49363,0 4.50113,2.0075 4.50113,4.50113 v 30.68523 c 0,2.49363 -2.0075,4.50113 -4.50113,4.50113 H 222.25 c -2.49363,0 -4.50113,-2.0075 -4.50113,-4.50113 v -30.68523 c 0,-2.49363 2.0075,-4.50113 4.50113,-4.50113 z" />
    <path
       id="rect1009-7-5-3-6-6-4"
       style="fill:#000000;fill-opacity:0;stroke:#000000;stroke-width:1.06821;stroke-miterlimit:4;stroke-dasharray:none;stroke-opacity:1"
       d="m 266.43864,158.75 h 30.68524 c 2.49363,0 4.50113,2.00749 4.50113,4.50112 v 30.68523 c 0,2.49363 -2.0075,4.50113 -4.50113,4.50113 h -30.68524 c -2.49363,0 -4.50113,-2.0075 -4.50113,-4.50113 v -30.68523 c 0,-2.49363 2.0075,-4.50112 4.50113,-4.50112 z" />
    <g
       aria-label="k"
       id="text216-9-0"
       style="font-style:normal;font-weight:normal;font-size:22.5778px;line-height:1.25;font-family:sans-serif;fill:#000000;fill-opacity:1;stroke:none;stroke-width:0.264583"
       transform="translate(11.373864)">
      <path
         d="m 222.13813,169.3411 1.94516,-0.24315 v 17.34439 h -1.94516 z m 7.56067,4.90922 h 2.52408 l -5.48814,5.48815 6.12495,6.70387 h -2.55882 l -5.99759,-6.65756 z"
         style="font-style:normal;font-variant:normal;font-weight:normal;font-stretch:normal;font-size:22.5778px;font-family:'Fira Code';-inkscape-font-specification:'Fira Code';stroke-width:0.264583"
         id="path436" />
    </g>
    <g
       aria-label="z"
       id="text220-0-3"
       style="font-style:normal;font-weight:normal;font-size:22.5778px;line-height:1.25;font-family:sans-serif;fill:#000000;fill-opacity:1;stroke:none;stroke-width:0.264583"
       transform="translate(11.906287,1.5e-5)">
      <path
         d="m 275.01892,175.8454 -6.71545,9.03112 h 6.78492 l -0.25472,1.65571 h -8.91534 v -1.47046 l 6.76176,-9.03112 h -6.22915 v -1.69044 h 8.56798 z"
         style="font-style:normal;font-variant:normal;font-weight:normal;font-stretch:normal;font-size:22.5778px;font-family:'Fira Code';-inkscape-font-specification:'Fira Code';stroke-width:0.264583"
         id="path439" />
    </g>
  </g>
</svg>
