<?xml version="1.0" encoding="UTF-8" standalone="no"?>
<svg
   xmlns:dc="http://purl.org/dc/elements/1.1/"
   xmlns:cc="http://creativecommons.org/ns#"
   xmlns:rdf="http://www.w3.org/1999/02/22-rdf-syntax-ns#"
   xmlns:svg="http://www.w3.org/2000/svg"
   xmlns="http://www.w3.org/2000/svg"
   xmlns:sodipodi="http://sodipodi.sourceforge.net/DTD/sodipodi-0.dtd"
   xmlns:inkscape="http://www.inkscape.org/namespaces/inkscape"
   width="2347.0715"
   height="834.03735"
   viewBox="0 0 620.996 220.67239"
   version="1.1"
   id="svg1007"
   inkscape:version="1.0.2 (e86c870879, 2021-01-15, custom)"
   sodipodi:docname="colemaq-wide-iso.svg">
  <defs
     id="defs1001">
    <marker
       style="overflow:visible"
       id="Arrow1Lend"
       refX="0"
       refY="0"
       orient="auto"
       inkscape:stockid="Arrow1Lend"
       inkscape:isstock="true">
      <path
         transform="matrix(-0.8,0,0,-0.8,-10,0)"
         style="fill:#000000;fill-opacity:1;fill-rule:evenodd;stroke:#000000;stroke-width:1pt;stroke-opacity:1"
         d="M 0,0 5,-5 -12.5,0 5,5 Z"
         id="path8751" />
    </marker>
    <marker
       style="overflow:visible"
       id="marker9032"
       refX="0"
       refY="0"
       orient="auto"
       inkscape:stockid="Arrow1Lstart"
       inkscape:isstock="true">
      <path
         transform="matrix(0.8,0,0,0.8,10,0)"
         style="fill:#000000;fill-opacity:1;fill-rule:evenodd;stroke:#000000;stroke-width:1pt;stroke-opacity:1"
         d="M 0,0 5,-5 -12.5,0 5,5 Z"
         id="path9030" />
    </marker>
    <marker
       style="overflow:visible"
       id="Arrow1Lstart"
       refX="0"
       refY="0"
       orient="auto"
       inkscape:stockid="Arrow1Lstart"
       inkscape:isstock="true">
      <path
         transform="matrix(0.8,0,0,0.8,10,0)"
         style="fill:#000000;fill-opacity:1;fill-rule:evenodd;stroke:#000000;stroke-width:1pt;stroke-opacity:1"
         d="M 0,0 5,-5 -12.5,0 5,5 Z"
         id="path8748" />
    </marker>
    <marker
       style="overflow:visible"
       id="Arrow1Lend-6"
       refX="0"
       refY="0"
       orient="auto"
       inkscape:stockid="Arrow1Lend"
       inkscape:isstock="true">
      <path
         transform="matrix(-0.8,0,0,-0.8,-10,0)"
         style="fill:#000000;fill-opacity:1;fill-rule:evenodd;stroke:#000000;stroke-width:1pt;stroke-opacity:1"
         d="M 0,0 5,-5 -12.5,0 5,5 Z"
         id="path8751-1" />
    </marker>
  </defs>
  <sodipodi:namedview
     id="base"
     pagecolor="#ffffff"
     bordercolor="#666666"
     borderopacity="1.0"
     inkscape:pageopacity="0.0"
     inkscape:pageshadow="2"
     inkscape:zoom="0.35355339"
     inkscape:cx="1140.496"
     inkscape:cy="592.90204"
     inkscape:document-units="px"
     inkscape:current-layer="layer1"
     inkscape:document-rotation="0"
     showgrid="true"
     units="px"
     showguides="true"
     inkscape:guide-bbox="true"
     objecttolerance="20"
     guidetolerance="10"
     inkscape:snap-bbox="true"
     inkscape:bbox-nodes="false"
     inkscape:snap-bbox-edge-midpoints="true"
     inkscape:snap-bbox-midpoints="false"
     inkscape:window-width="1600"
     inkscape:window-height="858"
     inkscape:window-x="900"
     inkscape:window-y="0"
     inkscape:window-maximized="1"
     inkscape:bbox-paths="false"
     fit-margin-top="10"
     fit-margin-left="10"
     fit-margin-right="10"
     fit-margin-bottom="10"
     lock-margins="true"
     inkscape:snap-nodes="true">
    <inkscape:grid
       type="xygrid"
       id="grid1742"
       spacingx="3.96875"
       spacingy="3.96875"
       empspacing="0"
       originx="-76.008751"
       originy="-92.070071" />
  </sodipodi:namedview>
  <metadata
     id="metadata1004">
    <rdf:RDF>
      <cc:Work
         rdf:about="">
        <dc:format>image/svg+xml</dc:format>
        <dc:type
           rdf:resource="http://purl.org/dc/dcmitype/StillImage" />
        <dc:title></dc:title>
      </cc:Work>
    </rdf:RDF>
  </metadata>
  <g
     inkscape:label="Layer 1"
     inkscape:groupmode="layer"
     id="layer1"
     transform="translate(-24.949112,-21.166649)">
    <path
       id="rect1009"
       style="fill:#000000;fill-opacity:0;stroke:#000000;stroke-width:1.06821;stroke-miterlimit:4;stroke-dasharray:none;stroke-opacity:1"
       d="m 52.127854,68.00283 h 30.685245 c 2.493625,0 4.501129,2.007503 4.501129,4.501127 V 103.1892 c 0,2.49363 -2.007504,4.50113 -4.501129,4.50113 H 52.127854 c -2.493626,0 -4.50113,-2.0075 -4.50113,-4.50113 V 72.503957 c 0,-2.493624 2.007504,-4.501127 4.50113,-4.501127 z" />
    <path
       id="rect1009-7"
       style="fill:#000000;fill-opacity:0;stroke:#000000;stroke-width:1.06821;stroke-miterlimit:4;stroke-dasharray:none;stroke-opacity:1"
       d="m 95.7841,68.00283 h 30.68525 c 2.49362,0 4.50113,2.007503 4.50113,4.501127 V 103.1892 c 0,2.49363 -2.00751,4.50113 -4.50113,4.50113 H 95.7841 c -2.493622,0 -4.501126,-2.0075 -4.501126,-4.50113 V 72.503957 c 0,-2.493624 2.007504,-4.501127 4.501126,-4.501127 z" />
    <path
       id="rect1009-7-5"
       style="fill:#000000;fill-opacity:0;stroke:#000000;stroke-width:1.06821;stroke-miterlimit:4;stroke-dasharray:none;stroke-opacity:1"
       d="m 139.44035,68.00283 h 30.68525 c 2.49362,0 4.50113,2.007503 4.50113,4.501127 V 103.1892 c 0,2.49363 -2.00751,4.50113 -4.50113,4.50113 h -30.68525 c -2.49362,0 -4.50113,-2.0075 -4.50113,-4.50113 V 72.503957 c 0,-2.493624 2.00751,-4.501127 4.50113,-4.501127 z" />
    <g
       aria-label="w"
       id="text1790"
       style="font-style:normal;font-weight:normal;font-size:22.5778px;line-height:1.25;font-family:sans-serif;fill:#000000;fill-opacity:1;stroke:none;stroke-width:0.264583"
       transform="translate(-4.501129,-3.9687669)">
      <path
         d="m 122.16964,87.846585 -2.13042,12.192015 h -2.75565 l -1.57466,-8.950075 -1.7136,8.950075 h -2.68618 l -2.22304,-12.192015 h 1.99148 l 1.5515,10.987863 1.94516,-9.436363 h 2.3041 l 1.84095,9.436363 1.5515,-10.987863 z"
         style="font-style:normal;font-variant:normal;font-weight:normal;font-stretch:normal;font-size:22.5778px;font-family:'Fira Code';-inkscape-font-specification:'Fira Code';stroke-width:0.264583"
         id="path791" />
    </g>
    <g
       aria-label="f"
       id="text1794"
       style="font-style:normal;font-variant:normal;font-weight:normal;font-stretch:normal;font-size:22.5778px;line-height:1.25;font-family:'Fira Code';-inkscape-font-specification:'Fira Code';fill:#000000;fill-opacity:1;stroke:none;stroke-width:0.264583"
       transform="translate(-4.501129,-3.9687669)">
      <path
         d="m 162.7572,83.04503 q 0.94943,0 1.74833,0.173675 0.79891,0.162097 1.5515,0.486291 l -0.62523,1.447295 q -1.13468,-0.509448 -2.61671,-0.509448 -2.55882,0 -2.55882,2.026213 v 2.477769 h 4.13348 l -0.20841,1.528343 h -3.92507 v 9.714242 h -1.94516 v -9.714242 h -2.90617 v -1.528343 h 2.90617 V 86.71537 q 0,-1.099945 0.57892,-1.933586 0.57892,-0.833642 1.58623,-1.285198 1.00732,-0.451556 2.28094,-0.451556 z"
         style="font-style:normal;font-variant:normal;font-weight:normal;font-stretch:normal;font-size:22.5778px;font-family:'Fira Code';-inkscape-font-specification:'Fira Code';stroke-width:0.264583"
         id="path794" />
    </g>
    <path
       id="rect1009-7-5-3"
       style="fill:#000000;fill-opacity:0;stroke:#000000;stroke-width:1.06821;stroke-miterlimit:4;stroke-dasharray:none;stroke-opacity:1"
       d="m 183.0966,68.00283 h 30.68525 c 2.49362,0 4.50113,2.007503 4.50113,4.501127 V 103.1892 c 0,2.49363 -2.00751,4.50113 -4.50113,4.50113 H 183.0966 c -2.49362,0 -4.50113,-2.0075 -4.50113,-4.50113 V 72.503957 c 0,-2.493624 2.00751,-4.501127 4.50113,-4.501127 z" />
    <path
       id="rect1009-7-5-3-6"
       style="fill:#000000;fill-opacity:0;stroke:#000000;stroke-width:1.06821;stroke-miterlimit:4;stroke-dasharray:none;stroke-opacity:1"
       d="m 226.75285,68.00283 h 30.68525 c 2.49362,0 4.50113,2.007503 4.50113,4.501127 V 103.1892 c 0,2.49363 -2.00751,4.50113 -4.50113,4.50113 h -30.68525 c -2.49362,0 -4.50113,-2.0075 -4.50113,-4.50113 V 72.503957 c 0,-2.493624 2.00751,-4.501127 4.50113,-4.501127 z" />
    <path
       id="rect1009-7-5-3-6-7"
       style="fill:#000000;fill-opacity:0;stroke:#000000;stroke-width:1.06821;stroke-miterlimit:4;stroke-dasharray:none;stroke-opacity:1"
       d="m 315.19327,67.748826 h 30.68524 c 2.49363,0 4.50113,2.007503 4.50113,4.501127 V 102.9352 c 0,2.49363 -2.0075,4.50113 -4.50113,4.50113 h -30.68524 c -2.49363,0 -4.50113,-2.0075 -4.50113,-4.50113 V 72.249953 c 0,-2.493624 2.0075,-4.501127 4.50113,-4.501127 z" />
    <path
       id="rect1009-7-5-3-6-7-5"
       style="fill:#000000;fill-opacity:0;stroke:#000000;stroke-width:1.06821;stroke-miterlimit:4;stroke-dasharray:none;stroke-opacity:1"
       d="m 358.84952,67.748826 h 30.68524 c 2.49363,0 4.50113,2.007503 4.50113,4.501127 V 102.9352 c 0,2.49363 -2.0075,4.50113 -4.50113,4.50113 h -30.68524 c -2.49363,0 -4.50113,-2.0075 -4.50113,-4.50113 V 72.249953 c 0,-2.493624 2.0075,-4.501127 4.50113,-4.501127 z" />
    <path
       id="rect1009-7-5-3-6-7-5-3"
       style="fill:#000000;fill-opacity:0;stroke:#000000;stroke-width:1.06821;stroke-miterlimit:4;stroke-dasharray:none;stroke-opacity:1"
       d="m 402.50577,67.748826 h 30.68524 c 2.49363,0 4.50113,2.007503 4.50113,4.501127 V 102.9352 c 0,2.49363 -2.0075,4.50113 -4.50113,4.50113 h -30.68524 c -2.49363,0 -4.50113,-2.0075 -4.50113,-4.50113 V 72.249953 c 0,-2.493624 2.0075,-4.501127 4.50113,-4.501127 z" />
    <path
       id="rect1009-7-5-3-6-7-5-3-5"
       style="fill:#000000;fill-opacity:0;stroke:#000000;stroke-width:1.06821;stroke-miterlimit:4;stroke-dasharray:none;stroke-opacity:1"
       d="m 446.16202,67.748826 h 30.68524 c 2.49363,0 4.50113,2.007503 4.50113,4.501127 V 102.9352 c 0,2.49363 -2.0075,4.50113 -4.50113,4.50113 h -30.68524 c -2.49363,0 -4.50113,-2.0075 -4.50113,-4.50113 V 72.249953 c 0,-2.493624 2.0075,-4.501127 4.50113,-4.501127 z" />
    <path
       id="rect1009-7-5-3-6-7-5-3-5-6"
       style="fill:#000000;fill-opacity:0;stroke:#000000;stroke-width:1.06821;stroke-miterlimit:4;stroke-dasharray:none;stroke-opacity:1"
       d="m 489.81827,67.748826 h 30.68524 c 2.49363,0 4.50113,2.007503 4.50113,4.501127 V 102.9352 c 0,2.49363 -2.0075,4.50113 -4.50113,4.50113 h -30.68524 c -2.49363,0 -4.50113,-2.0075 -4.50113,-4.50113 V 72.249953 c 0,-2.493624 2.0075,-4.501127 4.50113,-4.501127 z" />
    <g
       aria-label="p"
       id="text216"
       style="font-style:normal;font-weight:normal;font-size:22.5778px;line-height:1.25;font-family:sans-serif;fill:#000000;fill-opacity:1;stroke:none;stroke-width:0.264583"
       transform="translate(-4.501129,-3.9687669)">
      <path
         d="m 204.42501,87.106113 q 2.33882,0 3.3693,1.655705 1.04205,1.655705 1.04205,4.689235 0,1.887273 -0.52103,3.32299 -0.52102,1.424138 -1.58623,2.234623 -1.05363,0.810485 -2.59355,0.810485 -2.01464,0 -3.21879,-1.41256 v 5.812339 l -1.94516,0.24314 V 87.360836 h 1.6557 l 0.1621,1.702019 q 0.67155,-0.949425 1.59781,-1.447295 0.93785,-0.509447 2.0378,-0.509447 z m -0.46314,1.563078 q -0.93785,0 -1.7136,0.555761 -0.76417,0.555762 -1.33151,1.400982 v 6.043903 q 0.48629,0.717859 1.20415,1.123101 0.72944,0.405243 1.58624,0.405243 1.52834,0 2.28093,-1.169415 0.76418,-1.169414 0.76418,-3.589291 0,-2.408299 -0.68313,-3.589291 -0.68312,-1.180993 -2.10726,-1.180993 z"
         style="font-style:normal;font-variant:normal;font-weight:normal;font-stretch:normal;font-size:22.5778px;font-family:'Fira Code';-inkscape-font-specification:'Fira Code';stroke-width:0.264583"
         id="path804" />
    </g>
    <g
       aria-label="b"
       id="text220"
       style="font-style:normal;font-weight:normal;font-size:22.5778px;line-height:1.25;font-family:sans-serif;fill:#000000;fill-opacity:1;stroke:none;stroke-width:0.264583"
       transform="translate(-4.501129,-3.9687669)">
      <path
         d="m 244.57301,89.748616 q 0.68313,-0.891534 1.56308,-1.366247 0.87996,-0.474712 1.91043,-0.474712 2.36199,0 3.46193,1.678862 1.11152,1.667284 1.11152,4.666079 0,1.864115 -0.55576,3.31141 -0.55576,1.435717 -1.64413,2.246202 -1.08836,0.81049 -2.62828,0.81049 -1.06521,0 -1.88728,-0.37051 -0.82206,-0.382088 -1.43571,-1.157838 l -0.13894,1.262038 h -1.70202 V 83.253156 l 1.94516,-0.243145 z m 2.75565,9.297422 q 1.5515,0 2.36199,-1.192571 0.81048,-1.204149 0.81048,-3.612448 0,-2.373563 -0.72943,-3.566134 -0.72944,-1.20415 -2.142,-1.20415 -0.93785,0 -1.7136,0.555761 -0.77575,0.555762 -1.34309,1.400982 v 6.043904 q 0.48629,0.741015 1.20415,1.157835 0.72944,0.416821 1.5515,0.416821 z"
         style="font-style:normal;font-variant:normal;font-weight:normal;font-stretch:normal;font-size:22.5778px;font-family:'Fira Code';-inkscape-font-specification:'Fira Code';stroke-width:0.264583"
         id="path807" />
    </g>
    <g
       aria-label="j"
       id="text224"
       style="font-style:normal;font-weight:normal;font-size:22.5778px;line-height:1.25;font-family:sans-serif;fill:#000000;fill-opacity:1;stroke:none;stroke-width:0.264583"
       transform="translate(40.282932,-4.2227709)">
      <path
         d="m 292.40381,80.410663 q 0.63681,0 1.03047,0.393664 0.40524,0.382086 0.40524,0.961004 0,0.602074 -0.40524,0.995739 -0.39366,0.393664 -1.03047,0.393664 -0.61366,0 -1.00732,-0.393664 -0.38209,-0.393665 -0.38209,-0.995739 0,-0.578918 0.38209,-0.961004 0.39366,-0.393664 1.00732,-0.393664 z m 1.8178,15.943401 q 0,2.952481 -1.96832,4.585026 -1.96832,1.64413 -5.80076,2.28094 l -0.32419,-1.50519 q 2.95248,-0.48629 4.55029,-1.70201 1.59782,-1.215733 1.59782,-3.531405 v -8.822709 h -5.07133 v -1.539922 h 7.01649 z"
         style="font-style:normal;font-variant:normal;font-weight:normal;font-stretch:normal;font-size:22.5778px;font-family:'Fira Code';-inkscape-font-specification:'Fira Code';stroke-width:0.264583"
         id="path810" />
    </g>
    <g
       aria-label="l"
       id="text228"
       style="font-style:normal;font-weight:normal;font-size:22.5778px;line-height:1.25;font-family:sans-serif;fill:#000000;fill-opacity:1;stroke:none;stroke-width:0.264583"
       transform="translate(40.282932,-4.2227709)">
      <path
         d="m 335.62534,97.222438 q 0,0.856798 0.53261,1.262041 0.54418,0.393664 1.48203,0.393664 0.98416,0 2.04937,-0.428399 l 0.52102,1.424138 q -0.55576,0.277878 -1.29677,0.451558 -0.74102,0.17367 -1.59782,0.17367 -1.07679,0 -1.91043,-0.40524 -0.82206,-0.405242 -1.27362,-1.169414 -0.45155,-0.764171 -0.45155,-1.806224 V 84.671496 h -3.73981 v -1.539922 h 5.68497 z"
         style="font-style:normal;font-variant:normal;font-weight:normal;font-stretch:normal;font-size:22.5778px;font-family:'Fira Code';-inkscape-font-specification:'Fira Code';stroke-width:0.264583"
         id="path813" />
    </g>
    <g
       aria-label="u"
       id="text232"
       style="font-style:normal;font-weight:normal;font-size:22.5778px;line-height:1.25;font-family:sans-serif;fill:#000000;fill-opacity:1;stroke:none;stroke-width:0.264583"
       transform="translate(40.282932,-4.2227709)">
      <path
         d="m 375.30061,95.915491 q 0,1.192571 0.48629,1.736754 0.49787,0.532604 1.56308,0.532604 0.96101,0 1.86412,-0.555761 0.91469,-0.555761 1.43571,-1.377825 v -8.973228 h 1.94517 v 12.192012 h -1.65571 l -0.16209,-1.644127 q -0.70628,0.903112 -1.75991,1.41256 -1.04206,0.497869 -2.142,0.497869 -1.74833,0 -2.63987,-0.926268 -0.87995,-0.937848 -0.87995,-2.663023 v -8.869023 h 1.94516 z"
         style="font-style:normal;font-variant:normal;font-weight:normal;font-stretch:normal;font-size:22.5778px;font-family:'Fira Code';-inkscape-font-specification:'Fira Code';stroke-width:0.264583"
         id="path816" />
    </g>
    <g
       aria-label="y"
       id="text236"
       style="font-style:normal;font-weight:normal;font-size:22.5778px;line-height:1.25;font-family:sans-serif;fill:#000000;fill-opacity:1;stroke:none;stroke-width:0.264583"
       transform="translate(40.282932,-4.2227709)">
      <path
         d="m 422.4605,99.512331 q -0.47472,1.366249 -1.13468,2.361989 -0.64839,0.99573 -1.7136,1.64412 -1.05363,0.65997 -2.59355,0.81049 l -0.30104,-1.5515 q 1.22731,-0.20841 1.95674,-0.62523 0.74102,-0.41682 1.15784,-1.05363 0.41682,-0.63681 0.77575,-1.667288 h -0.64839 L 415.69874,87.23927 h 2.0841 l 3.49666,10.709982 3.45036,-10.709982 h 2.01463 z"
         style="font-style:normal;font-variant:normal;font-weight:normal;font-stretch:normal;font-size:22.5778px;font-family:'Fira Code';-inkscape-font-specification:'Fira Code';stroke-width:0.264583"
         id="path819" />
    </g>
    <g
       aria-label="q"
       id="text240"
       style="font-style:normal;font-weight:normal;font-size:22.5778px;line-height:1.25;font-family:sans-serif;fill:#000000;fill-opacity:1;stroke:none;stroke-width:0.264583"
       transform="translate(-397.74555,-6.197591)">
      <path
         d="m 464.58841,87.106113 q 2.142,0 3.40404,1.586235 l 0.16209,-1.331512 h 1.65571 v 17.101234 l -1.94516,-0.24314 v -6.206003 q -0.64839,0.91469 -1.52835,1.366246 -0.87995,0.439978 -1.89885,0.439978 -2.36198,0 -3.42719,-1.655705 -1.06521,-1.655706 -1.06521,-4.689236 0,-1.852537 0.5326,-3.288254 0.54419,-1.447295 1.58624,-2.25778 1.05363,-0.822063 2.52408,-0.822063 z m 0.48629,1.563078 q -3.04511,0 -3.04511,4.805019 0,2.373564 0.6947,3.554556 0.70628,1.169415 2.11884,1.169415 0.94943,0 1.70202,-0.521026 0.76417,-0.521027 1.31994,-1.354668 V 90.23227 q -0.47472,-0.741015 -1.20415,-1.146258 -0.72944,-0.416821 -1.58624,-0.416821 z"
         style="font-style:normal;font-variant:normal;font-weight:normal;font-stretch:normal;font-size:22.5778px;font-family:'Fira Code';-inkscape-font-specification:'Fira Code';stroke-width:0.264583"
         id="path822" />
    </g>
    <path
       id="rect1009-2"
       style="fill:#000000;fill-opacity:0;stroke:#000000;stroke-width:1.06821;stroke-miterlimit:4;stroke-dasharray:none;stroke-opacity:1"
       d="m 64.034104,111.65909 h 30.68525 c 2.493616,0 4.501126,2.00751 4.501126,4.50113 v 30.68524 c 0,2.49362 -2.00751,4.50113 -4.501126,4.50113 h -30.68525 c -2.493626,0 -4.50113,-2.00751 -4.50113,-4.50113 v -30.68524 c 0,-2.49362 2.007504,-4.50113 4.50113,-4.50113 z" />
    <path
       id="rect1009-7-9"
       style="fill:#000000;fill-opacity:0;stroke:#000000;stroke-width:1.06821;stroke-miterlimit:4;stroke-dasharray:none;stroke-opacity:1"
       d="m 107.69035,111.65909 h 30.68525 c 2.49362,0 4.50113,2.00751 4.50113,4.50113 v 30.68524 c 0,2.49362 -2.00751,4.50113 -4.50113,4.50113 h -30.68525 c -2.49362,0 -4.50113,-2.00751 -4.50113,-4.50113 v -30.68524 c 0,-2.49362 2.00751,-4.50113 4.50113,-4.50113 z" />
    <path
       id="rect1009-7-5-1"
       style="fill:#000000;fill-opacity:0;stroke:#000000;stroke-width:1.06821;stroke-miterlimit:4;stroke-dasharray:none;stroke-opacity:1"
       d="m 151.3466,111.65909 h 30.68525 c 2.49362,0 4.50113,2.00751 4.50113,4.50113 v 30.68524 c 0,2.49362 -2.00751,4.50113 -4.50113,4.50113 H 151.3466 c -2.49362,0 -4.50113,-2.00751 -4.50113,-4.50113 v -30.68524 c 0,-2.49362 2.00751,-4.50113 4.50113,-4.50113 z" />
    <g
       aria-label="a"
       id="text1786-2"
       style="font-style:normal;font-weight:normal;font-size:22.5778px;line-height:1.25;font-family:sans-serif;fill:#000000;fill-opacity:1;stroke:none;stroke-width:0.264583"
       transform="translate(-4.501129,-3.9687669)">
      <path
         d="m 88.254942,140.48235 q 0,0.71786 0.231567,1.06521 0.231568,0.33577 0.764172,0.49787 l -0.474713,1.36624 q -1.75991,-0.23156 -2.234623,-1.71359 -0.648388,0.84522 -1.644127,1.28519 -0.984161,0.4284 -2.176732,0.4284 -1.204149,0 -2.095683,-0.46313 -0.891533,-0.46314 -1.366246,-1.30836 -0.474713,-0.85679 -0.474713,-1.99147 0,-1.88728 1.470452,-2.89459 1.470451,-1.00732 4.249258,-1.00732 h 1.794645 v -1.0189 q 0,-1.27362 -0.741015,-1.84096 -0.741015,-0.57891 -2.165153,-0.57891 -1.377825,0 -3.17247,0.62523 l -0.509448,-1.47045 q 2.037791,-0.76418 3.982956,-0.76418 2.234623,0 3.392459,1.05363 1.169414,1.04206 1.169414,2.88302 z m -5.036586,1.44729 q 0.903112,0 1.713597,-0.45155 0.822064,-0.46314 1.366246,-1.27362 v -3.13774 h -1.75991 q -1.933586,0 -2.801963,0.65997 -0.868377,0.65996 -0.868377,1.89885 0,2.30409 2.350407,2.30409 z"
         style="font-style:normal;font-variant:normal;font-weight:normal;font-stretch:normal;font-size:22.5778px;font-family:'Fira Code';-inkscape-font-specification:'Fira Code';stroke-width:0.264583"
         id="path828" />
    </g>
    <g
       aria-label="r"
       id="text1790-0"
       style="font-style:normal;font-weight:normal;font-size:22.5778px;line-height:1.25;font-family:sans-serif;fill:#000000;fill-opacity:1;stroke:none;stroke-width:0.264583"
       transform="translate(-4.501129,-3.9687669)">
      <path
         d="m 131.17968,131.02916 q 0.47471,0 0.86838,0.0695 0.39366,0.0579 0.8568,0.19683 l -0.27788,4.1219 h -1.59782 v -2.59356 h -0.1042 q -1.41256,0 -2.4083,0.99574 -0.99574,0.99574 -1.60939,3.01038 v 5.16394 h 2.47776 v 1.49361 h -6.32178 v -1.49361 h 1.89885 v -9.20479 h -1.89885 v -1.49361 h 3.38088 l 0.35893,2.88301 q 0.74102,-1.58623 1.75991,-2.36198 1.03047,-0.78733 2.61671,-0.78733 z"
         style="font-style:normal;font-variant:normal;font-weight:normal;font-stretch:normal;font-size:22.5778px;font-family:'Fira Code';-inkscape-font-specification:'Fira Code';stroke-width:0.264583"
         id="path831" />
    </g>
    <g
       aria-label="s"
       id="text1794-3"
       style="font-style:normal;font-variant:normal;font-weight:normal;font-stretch:normal;font-size:22.5778px;line-height:1.25;font-family:'Fira Code';-inkscape-font-specification:'Fira Code';fill:#000000;fill-opacity:1;stroke:none;stroke-width:0.264583"
       transform="translate(-4.501129,-3.9687669)">
      <path
         d="m 171.49292,142.02216 q 1.40098,0 2.21146,-0.52103 0.82207,-0.52102 0.82207,-1.41256 0,-0.60207 -0.21999,-0.98416 -0.20841,-0.39366 -0.84522,-0.71785 -0.62523,-0.3242 -1.88727,-0.63681 -1.40099,-0.34736 -2.29252,-0.7526 -0.87995,-0.41682 -1.37782,-1.07679 -0.48629,-0.65996 -0.48629,-1.67886 0,-1.00731 0.57891,-1.75991 0.57892,-0.75259 1.62097,-1.15783 1.05363,-0.40525 2.43146,-0.40525 1.37782,0 2.47777,0.37051 1.11152,0.35893 1.94516,0.97258 l -0.8568,1.31994 q -0.76417,-0.52103 -1.60939,-0.79891 -0.83364,-0.28946 -1.93358,-0.28946 -1.37783,0 -2.01464,0.4284 -0.62523,0.41682 -0.62523,1.16941 0,0.54419 0.28946,0.89154 0.30104,0.34735 0.961,0.62523 0.67155,0.2663 1.99148,0.62523 1.31993,0.35893 2.16515,0.79891 0.84522,0.43997 1.31994,1.15783 0.47471,0.70628 0.47471,1.80623 0,1.23888 -0.71786,2.06095 -0.71786,0.81048 -1.88727,1.19257 -1.15784,0.38208 -2.53566,0.38208 -2.87144,0 -4.77029,-1.64413 l 1.11153,-1.28519 q 0.74101,0.62523 1.67886,0.97258 0.93785,0.34735 1.9799,0.34735 z"
         style="font-style:normal;font-variant:normal;font-weight:normal;font-stretch:normal;font-size:22.5778px;font-family:'Fira Code';-inkscape-font-specification:'Fira Code';stroke-width:0.264583"
         id="path834" />
    </g>
    <path
       id="rect1009-7-5-3-0"
       style="fill:#000000;fill-opacity:0;stroke:#000000;stroke-width:1.06821;stroke-miterlimit:4;stroke-dasharray:none;stroke-opacity:1"
       d="m 195.00285,111.65909 h 30.68525 c 2.49362,0 4.50113,2.00751 4.50113,4.50113 v 30.68524 c 0,2.49362 -2.00751,4.50113 -4.50113,4.50113 h -30.68525 c -2.49362,0 -4.50113,-2.00751 -4.50113,-4.50113 v -30.68524 c 0,-2.49362 2.00751,-4.50113 4.50113,-4.50113 z" />
    <path
       id="rect1009-7-5-3-6-6"
       style="fill:#000000;fill-opacity:0;stroke:#000000;stroke-width:1.06821;stroke-miterlimit:4;stroke-dasharray:none;stroke-opacity:1"
       d="m 238.6591,111.65909 h 30.68525 c 2.49362,0 4.50113,2.00751 4.50113,4.50113 v 30.68524 c 0,2.49362 -2.00751,4.50113 -4.50113,4.50113 H 238.6591 c -2.49362,0 -4.50113,-2.00751 -4.50113,-4.50113 v -30.68524 c 0,-2.49362 2.00751,-4.50113 4.50113,-4.50113 z" />
    <path
       id="rect1009-7-5-3-6-7-2"
       style="fill:#000000;fill-opacity:0;stroke:#000000;stroke-width:1.06821;stroke-miterlimit:4;stroke-dasharray:none;stroke-opacity:1"
       d="m 327.09952,111.40509 h 30.68524 c 2.49363,0 4.50113,2.00751 4.50113,4.50113 v 30.68524 c 0,2.49362 -2.0075,4.50113 -4.50113,4.50113 h -30.68524 c -2.49363,0 -4.50113,-2.00751 -4.50113,-4.50113 v -30.68524 c 0,-2.49362 2.0075,-4.50113 4.50113,-4.50113 z" />
    <path
       id="rect1009-7-5-3-6-7-5-6"
       style="fill:#000000;fill-opacity:0;stroke:#000000;stroke-width:1.06821;stroke-miterlimit:4;stroke-dasharray:none;stroke-opacity:1"
       d="m 370.75577,111.40509 h 30.68524 c 2.49363,0 4.50113,2.00751 4.50113,4.50113 v 30.68524 c 0,2.49362 -2.0075,4.50113 -4.50113,4.50113 h -30.68524 c -2.49363,0 -4.50113,-2.00751 -4.50113,-4.50113 v -30.68524 c 0,-2.49362 2.0075,-4.50113 4.50113,-4.50113 z" />
    <path
       id="rect1009-7-5-3-6-7-5-3-1"
       style="fill:#000000;fill-opacity:0;stroke:#000000;stroke-width:1.06821;stroke-miterlimit:4;stroke-dasharray:none;stroke-opacity:1"
       d="m 414.41202,111.40509 h 30.68524 c 2.49363,0 4.50113,2.00751 4.50113,4.50113 v 30.68524 c 0,2.49362 -2.0075,4.50113 -4.50113,4.50113 h -30.68524 c -2.49363,0 -4.50113,-2.00751 -4.50113,-4.50113 v -30.68524 c 0,-2.49362 2.0075,-4.50113 4.50113,-4.50113 z" />
    <path
       id="rect1009-7-5-3-6-7-5-3-5-8"
       style="fill:#000000;fill-opacity:0;stroke:#000000;stroke-width:1.06821;stroke-miterlimit:4;stroke-dasharray:none;stroke-opacity:1"
       d="m 458.06827,111.40509 h 30.68524 c 2.49363,0 4.50113,2.00751 4.50113,4.50113 v 30.68524 c 0,2.49362 -2.0075,4.50113 -4.50113,4.50113 h -30.68524 c -2.49363,0 -4.50113,-2.00751 -4.50113,-4.50113 v -30.68524 c 0,-2.49362 2.0075,-4.50113 4.50113,-4.50113 z" />
    <path
       id="rect1009-7-5-3-6-7-5-3-5-6-7"
       style="fill:#000000;fill-opacity:0;stroke:#000000;stroke-width:1.06821;stroke-miterlimit:4;stroke-dasharray:none;stroke-opacity:1"
       d="m 501.72452,111.40509 h 30.68524 c 2.49363,0 4.50113,2.00751 4.50113,4.50113 v 30.68524 c 0,2.49362 -2.0075,4.50113 -4.50113,4.50113 h -30.68524 c -2.49363,0 -4.50113,-2.00751 -4.50113,-4.50113 v -30.68524 c 0,-2.49362 2.0075,-4.50113 4.50113,-4.50113 z" />
    <g
       aria-label="t"
       id="text216-9"
       style="font-style:normal;font-weight:normal;font-size:22.5778px;line-height:1.25;font-family:sans-serif;fill:#000000;fill-opacity:1;stroke:none;stroke-width:0.264583"
       transform="translate(-4.501129,-3.9687669)">
      <path
         d="m 220.55737,142.59544 q -0.61365,0.40524 -1.51676,0.63681 -0.89154,0.24314 -1.74834,0.24314 -1.28519,0 -2.21146,-0.46313 -0.91469,-0.47471 -1.40098,-1.30836 -0.48629,-0.83364 -0.48629,-1.91042 v -7.27121 h -2.80197 v -1.50519 h 2.80197 v -2.76723 l 1.94516,-0.23157 v 2.9988 h 4.21452 l -0.23156,1.50519 h -3.98296 v 7.24805 q 0,1.04205 0.54418,1.56308 0.55576,0.52102 1.78307,0.52102 1.23888,0 2.33883,-0.57891 z"
         style="font-style:normal;font-variant:normal;font-weight:normal;font-stretch:normal;font-size:22.5778px;font-family:'Fira Code';-inkscape-font-specification:'Fira Code';stroke-width:0.264583"
         id="path844" />
    </g>
    <g
       aria-label="g"
       id="text220-0"
       style="font-style:normal;font-weight:normal;font-size:22.5778px;line-height:1.25;font-family:sans-serif;fill:#000000;fill-opacity:1;stroke:none;stroke-width:0.264583"
       transform="translate(-4.501129,-3.9687669)">
      <path
         d="m 264.57012,130.62705 q -0.71786,0.21998 -1.53992,0.28945 -0.81049,0.0695 -2.02621,0.0695 2.11884,0.97259 2.11884,3.06827 0,1.20415 -0.55576,2.15357 -0.54419,0.93785 -1.58624,1.47046 -1.03047,0.52102 -2.44303,0.52102 -0.60208,0 -1.0189,-0.0463 -0.40524,-0.0579 -0.79891,-0.18525 -0.27788,0.19683 -0.46313,0.52102 -0.17368,0.31262 -0.17368,0.65997 0,0.47471 0.37051,0.75259 0.37051,0.2663 1.26204,0.2663 h 2.19989 q 1.20415,0 2.18831,0.43998 0.99574,0.4284 1.5515,1.19257 0.56734,0.7526 0.56734,1.67886 0,1.79465 -1.51676,2.75565 -1.51677,0.96101 -4.30715,0.96101 -1.92201,0 -3.05669,-0.39367 -1.1231,-0.39366 -1.60939,-1.20415 -0.48629,-0.7989 -0.48629,-2.07252 h 1.75991 q 0,0.75259 0.27788,1.19257 0.28946,0.45155 1.01889,0.67154 0.74102,0.21999 2.08411,0.21999 1.99148,0 2.92932,-0.49787 0.93785,-0.49787 0.93785,-1.50518 0,-0.84522 -0.76417,-1.29678 -0.76417,-0.45156 -1.99148,-0.45156 h -2.17673 q -1.00732,0 -1.70202,-0.31261 -0.6947,-0.31262 -1.03047,-0.83364 -0.33578,-0.52103 -0.33578,-1.14626 0,-0.5905 0.34735,-1.14626 0.34735,-0.55576 0.99574,-0.98416 -1.05363,-0.55576 -1.5515,-1.37782 -0.49787,-0.82207 -0.49787,-1.99148 0,-1.21573 0.61366,-2.17673 0.62523,-0.97259 1.72517,-1.51677 1.11152,-0.54418 2.52408,-0.54418 1.47046,0 2.43146,-0.11579 0.961,-0.12736 1.60939,-0.33577 0.65997,-0.20841 1.51677,-0.57892 z m -6.15969,0.62523 q -1.42413,0 -2.15357,0.76417 -0.71786,0.76417 -0.71786,2.04937 0,1.29677 0.72944,2.07252 0.74101,0.76418 2.18831,0.76418 1.27362,0 1.95674,-0.74102 0.6947,-0.75259 0.6947,-2.10726 0,-1.37783 -0.68312,-2.0841 -0.68312,-0.71786 -2.01464,-0.71786 z"
         style="font-style:normal;font-variant:normal;font-weight:normal;font-stretch:normal;font-size:22.5778px;font-family:'Fira Code';-inkscape-font-specification:'Fira Code';stroke-width:0.264583"
         id="path847" />
    </g>
    <g
       aria-label="m"
       id="text224-3"
       style="font-style:normal;font-weight:normal;font-size:22.5778px;line-height:1.25;font-family:sans-serif;fill:#000000;fill-opacity:1;stroke:none;stroke-width:0.264583"
       transform="translate(40.282932,-4.2227709)">
      <path
         d="m 306.12429,130.94493 q 1.04205,0 1.70202,0.72943 0.65996,0.71786 0.65996,2.63987 v 9.07743 h -1.80622 v -8.76482 q 0,-0.86837 -0.0579,-1.29677 -0.0579,-0.43998 -0.25473,-0.64839 -0.19683,-0.21999 -0.62523,-0.21999 -1.19257,0 -2.13041,1.45887 v 9.4711 h -1.81781 v -8.76482 q 0,-0.86837 -0.0579,-1.29677 -0.0579,-0.43998 -0.25472,-0.64839 -0.19683,-0.21999 -0.62523,-0.21999 -1.19258,0 -2.13042,1.45887 v 9.4711 h -1.79465 v -12.19201 h 1.52835 l 0.11578,1.41256 q 0.55576,-0.79891 1.18099,-1.22731 0.62523,-0.43997 1.47045,-0.43997 1.72518,0 2.21147,1.60939 0.54418,-0.78733 1.16941,-1.19257 0.63681,-0.41682 1.51677,-0.41682 z"
         style="font-style:normal;font-variant:normal;font-weight:normal;font-stretch:normal;font-size:22.5778px;font-family:'Fira Code';-inkscape-font-specification:'Fira Code';stroke-width:0.264583"
         id="path850" />
    </g>
    <g
       aria-label="n"
       id="text228-5"
       style="font-style:normal;font-weight:normal;font-size:22.5778px;line-height:1.25;font-family:sans-serif;fill:#000000;fill-opacity:1;stroke:none;stroke-width:0.264583"
       transform="translate(40.282932,-4.2227709)">
      <path
         d="m 342.75135,143.54875 v -12.19201 h 1.65571 l 0.15052,1.69044 q 0.72943,-0.91469 1.82938,-1.42414 1.11152,-0.52102 2.19989,-0.52102 1.74833,0 2.58197,0.92626 0.84522,0.92627 0.84522,2.66303 v 8.85744 h -1.94516 v -7.42173 q 0,-1.36624 -0.15052,-2.0841 -0.13894,-0.71786 -0.5905,-1.06521 -0.43998,-0.34735 -1.34309,-0.34735 -0.98416,0 -1.86411,0.61365 -0.86838,0.60208 -1.42414,1.42414 v 8.8806 z"
         style="font-style:normal;font-variant:normal;font-weight:normal;font-stretch:normal;font-size:22.5778px;font-family:'Fira Code';-inkscape-font-specification:'Fira Code';stroke-width:0.264583"
         id="path853" />
    </g>
    <g
       aria-label="e"
       id="text232-2"
       style="font-style:normal;font-weight:normal;font-size:22.5778px;line-height:1.25;font-family:sans-serif;fill:#000000;fill-opacity:1;stroke:none;stroke-width:0.264583"
       transform="translate(40.282932,-4.2227709)">
      <path
         d="m 386.79004,137.71919 q 0.0463,1.36624 0.53261,2.28093 0.48629,0.90312 1.27362,1.34309 0.78732,0.4284 1.75991,0.4284 0.90311,0 1.6557,-0.2663 0.76417,-0.2663 1.59782,-0.83364 l 0.91469,1.2852 q -0.8568,0.67154 -1.96833,1.05363 -1.09994,0.38208 -2.22304,0.38208 -1.74833,0 -3.01037,-0.78732 -1.26204,-0.78733 -1.92201,-2.22305 -0.64839,-1.43572 -0.64839,-3.33457 0,-1.84096 0.65997,-3.28825 0.65996,-1.4473 1.86411,-2.25778 1.20415,-0.82206 2.80197,-0.82206 1.52834,0 2.63986,0.71785 1.1231,0.71786 1.7136,2.07253 0.60207,1.34309 0.60207,3.18405 0,0.5326 -0.0463,1.06521 z m 3.31141,-5.44183 q -1.41256,0 -2.30409,0.99574 -0.87996,0.98416 -0.99574,2.9409 h 6.35652 q -0.0347,-1.92201 -0.84522,-2.92932 -0.81049,-1.00732 -2.21147,-1.00732 z"
         style="font-style:normal;font-variant:normal;font-weight:normal;font-stretch:normal;font-size:22.5778px;font-family:'Fira Code';-inkscape-font-specification:'Fira Code';stroke-width:0.264583"
         id="path856" />
    </g>
    <g
       aria-label="i"
       id="text236-8"
       style="font-style:normal;font-weight:normal;font-size:22.5778px;line-height:1.25;font-family:sans-serif;fill:#000000;fill-opacity:1;stroke:none;stroke-width:0.264583"
       transform="translate(40.282932,-4.2227709)">
      <path
         d="m 433.12786,125.48079 q 0.63681,0 1.03048,0.39367 0.39366,0.38208 0.39366,0.961 0,0.60207 -0.39366,0.99574 -0.39367,0.39366 -1.03048,0.39366 -0.61365,0 -1.00731,-0.39366 -0.39367,-0.40524 -0.39367,-0.99574 0,-0.57892 0.39367,-0.961 0.39366,-0.39367 1.00731,-0.39367 z m -4.04084,5.70813 h 5.59234 v 10.65209 h 3.43878 v 1.53993 h -9.14691 v -1.53993 h 3.76297 v -9.11216 h -3.64718 z"
         style="font-style:normal;font-variant:normal;font-weight:normal;font-stretch:normal;font-size:22.5778px;font-family:'Fira Code';-inkscape-font-specification:'Fira Code';stroke-width:0.264583"
         id="path859" />
    </g>
    <g
       aria-label="o"
       id="text240-7"
       style="font-style:normal;font-weight:normal;font-size:22.5778px;line-height:1.25;font-family:sans-serif;fill:#000000;fill-opacity:1;stroke:none;stroke-width:0.264583"
       transform="translate(40.282932,-4.2227709)">
      <path
         d="m 477.11989,130.76235 q 1.69044,0 2.85986,0.77575 1.16941,0.76418 1.75991,2.19989 0.60207,1.42414 0.60207,3.36931 0,1.88727 -0.61365,3.32298 -0.60208,1.43572 -1.78307,2.24621 -1.18099,0.7989 -2.84828,0.7989 -1.69044,0 -2.87143,-0.77575 -1.16941,-0.78733 -1.77149,-2.21146 -0.60207,-1.42414 -0.60207,-3.35773 0,-1.89885 0.60207,-3.33456 0.61366,-1.43572 1.79465,-2.23463 1.19257,-0.79891 2.87143,-0.79891 z m 0,1.58624 q -1.58623,0 -2.38514,1.18099 -0.79891,1.16942 -0.79891,3.60087 0,2.39672 0.78733,3.57772 0.78733,1.16941 2.37356,1.16941 1.58624,0 2.37357,-1.16941 0.78733,-1.181 0.78733,-3.60087 0,-2.4083 -0.78733,-3.57772 -0.78733,-1.18099 -2.35041,-1.18099 z"
         style="font-style:normal;font-variant:normal;font-weight:normal;font-stretch:normal;font-size:22.5778px;font-family:'Fira Code';-inkscape-font-specification:'Fira Code';stroke-width:0.264583"
         id="path862" />
    </g>
    <path
       id="rect1009-2-6"
       style="fill:#000000;fill-opacity:0;stroke:#000000;stroke-width:1.06821;stroke-miterlimit:4;stroke-dasharray:none;stroke-opacity:1"
       d="M 75.940354,155.31534 H 106.6256 c 2.49362,0 4.50113,2.00751 4.50113,4.50113 v 30.68524 c 0,2.49362 -2.00751,4.50113 -4.50113,4.50113 H 75.940354 c -2.493626,0 -4.50113,-2.00751 -4.50113,-4.50113 v -30.68524 c 0,-2.49362 2.007504,-4.50113 4.50113,-4.50113 z" />
    <path
       id="rect1009-7-9-1"
       style="fill:#000000;fill-opacity:0;stroke:#000000;stroke-width:1.06821;stroke-miterlimit:4;stroke-dasharray:none;stroke-opacity:1"
       d="m 119.5966,155.31534 h 30.68525 c 2.49362,0 4.50113,2.00751 4.50113,4.50113 v 30.68524 c 0,2.49362 -2.00751,4.50113 -4.50113,4.50113 H 119.5966 c -2.49362,0 -4.50113,-2.00751 -4.50113,-4.50113 v -30.68524 c 0,-2.49362 2.00751,-4.50113 4.50113,-4.50113 z" />
    <path
       id="rect1009-7-5-1-2"
       style="fill:#000000;fill-opacity:0;stroke:#000000;stroke-width:1.06821;stroke-miterlimit:4;stroke-dasharray:none;stroke-opacity:1"
       d="m 163.25285,155.31534 h 30.68525 c 2.49362,0 4.50113,2.00751 4.50113,4.50113 v 30.68524 c 0,2.49362 -2.00751,4.50113 -4.50113,4.50113 h -30.68525 c -2.49362,0 -4.50113,-2.00751 -4.50113,-4.50113 v -30.68524 c 0,-2.49362 2.00751,-4.50113 4.50113,-4.50113 z" />
    <g
       aria-label="x"
       id="text1786-2-9"
       style="font-style:normal;font-weight:normal;font-size:22.5778px;line-height:1.25;font-family:sans-serif;fill:#000000;fill-opacity:1;stroke:none;stroke-width:0.264583"
       transform="translate(-4.501129,-3.9687669)">
      <path
         d="m 95.168856,181.64794 -3.380881,5.23342 H 89.56493 l 4.503981,-6.43756 -3.94822,-5.75445 h 2.304093 l 2.82512,4.53872 2.859855,-4.53872 h 2.223041 l -3.936638,5.6734 4.492408,6.51861 h -2.385147 z"
         style="font-style:normal;font-variant:normal;font-weight:normal;font-stretch:normal;font-size:22.5778px;font-family:'Fira Code';-inkscape-font-specification:'Fira Code';stroke-width:0.264583"
         id="path868" />
    </g>
    <g
       aria-label="c"
       id="text1790-0-1"
       style="font-style:normal;font-weight:normal;font-size:22.5778px;line-height:1.25;font-family:sans-serif;fill:#000000;fill-opacity:1;stroke:none;stroke-width:0.264583"
       transform="translate(-4.501129,-3.9687669)">
      <path
         d="m 140.04415,185.32278 q 1.63254,0 3.17247,-1.06521 l 0.94942,1.27362 q -0.7989,0.67154 -1.92201,1.07678 -1.1231,0.39367 -2.19988,0.39367 -1.79465,0 -3.09143,-0.77575 -1.28519,-0.77575 -1.95674,-2.19989 -0.67154,-1.42414 -0.67154,-3.33457 0,-1.84096 0.68312,-3.28825 0.68312,-1.45887 1.9799,-2.28094 1.29678,-0.83364 3.07984,-0.83364 2.32725,0 4.07559,1.41256 l -0.94943,1.29678 q -1.57466,-1.08837 -3.14931,-1.08837 -1.07679,0 -1.88728,0.5326 -0.81048,0.53261 -1.27362,1.6094 -0.45155,1.07678 -0.45155,2.63986 0,2.33883 0.97258,3.48509 0.98416,1.14626 2.63987,1.14626 z"
         style="font-style:normal;font-variant:normal;font-weight:normal;font-stretch:normal;font-size:22.5778px;font-family:'Fira Code';-inkscape-font-specification:'Fira Code';stroke-width:0.264583"
         id="path871" />
    </g>
    <g
       aria-label="d"
       id="text1794-3-4"
       style="font-style:normal;font-variant:normal;font-weight:normal;font-stretch:normal;font-size:22.5778px;line-height:1.25;font-family:'Fira Code';-inkscape-font-specification:'Fira Code';fill:#000000;fill-opacity:1;stroke:none;stroke-width:0.264583"
       transform="translate(-4.501129,-3.9687669)">
      <path
         d="m 185.98922,169.57856 1.94516,0.24315 v 17.10123 h -1.70202 l -0.18525,-1.60939 q -0.67155,0.94943 -1.5515,1.41256 -0.87996,0.46314 -1.91043,0.46314 -2.31567,0 -3.48509,-1.70202 -1.15783,-1.70202 -1.15783,-4.64293 0,-1.84095 0.56734,-3.28825 0.57891,-1.44729 1.6557,-2.25778 1.08837,-0.82206 2.55882,-0.82206 1.04205,0 1.84096,0.35893 0.81048,0.35893 1.42414,1.07678 z m -2.75565,6.46073 q -1.53993,0 -2.36199,1.21572 -0.81048,1.20415 -0.81048,3.58929 0,2.36199 0.74101,3.56614 0.75259,1.20415 2.18831,1.20415 1.72518,0 2.9988,-1.92201 v -6.09022 q -0.49787,-0.74101 -1.21573,-1.14625 -0.70628,-0.41682 -1.53992,-0.41682 z"
         style="font-style:normal;font-variant:normal;font-weight:normal;font-stretch:normal;font-size:22.5778px;font-family:'Fira Code';-inkscape-font-specification:'Fira Code';stroke-width:0.264583"
         id="path874" />
    </g>
    <path
       id="rect1009-7-5-3-0-8"
       style="fill:#000000;fill-opacity:0;stroke:#000000;stroke-width:1.06821;stroke-miterlimit:4;stroke-dasharray:none;stroke-opacity:1"
       d="m 206.9091,155.31534 h 30.68525 c 2.49362,0 4.50113,2.00751 4.50113,4.50113 v 30.68524 c 0,2.49362 -2.00751,4.50113 -4.50113,4.50113 H 206.9091 c -2.49362,0 -4.50113,-2.00751 -4.50113,-4.50113 v -30.68524 c 0,-2.49362 2.00751,-4.50113 4.50113,-4.50113 z" />
    <path
       id="rect1009-7-5-3-6-6-4"
       style="fill:#000000;fill-opacity:0;stroke:#000000;stroke-width:1.06821;stroke-miterlimit:4;stroke-dasharray:none;stroke-opacity:1"
       d="m 32.63018,155.06038 h 30.68524 c 2.49363,0 4.50113,2.0075 4.50113,4.50112 v 30.68524 c 0,2.49362 -2.0075,4.50113 -4.50113,4.50113 H 32.63018 c -2.49363,0 -4.50113,-2.00751 -4.50113,-4.50113 V 159.5615 c 0,-2.49362 2.0075,-4.50112 4.50113,-4.50112 z" />
    <path
       id="rect1009-7-5-3-6-7-2-5"
       style="fill:#000000;fill-opacity:0;stroke:#000000;stroke-width:1.06821;stroke-miterlimit:4;stroke-dasharray:none;stroke-opacity:1"
       d="m 339.00577,155.06134 h 30.68524 c 2.49363,0 4.50113,2.00751 4.50113,4.50113 v 30.68524 c 0,2.49362 -2.0075,4.50113 -4.50113,4.50113 h -30.68524 c -2.49363,0 -4.50113,-2.00751 -4.50113,-4.50113 v -30.68524 c 0,-2.49362 2.0075,-4.50113 4.50113,-4.50113 z" />
    <path
       id="rect1009-7-5-3-6-7-5-6-0"
       style="fill:#000000;fill-opacity:0;stroke:#000000;stroke-width:1.06821;stroke-miterlimit:4;stroke-dasharray:none;stroke-opacity:1"
       d="m 382.66202,155.06134 h 30.68524 c 2.49363,0 4.50113,2.00751 4.50113,4.50113 v 30.68524 c 0,2.49362 -2.0075,4.50113 -4.50113,4.50113 h -30.68524 c -2.49363,0 -4.50113,-2.00751 -4.50113,-4.50113 v -30.68524 c 0,-2.49362 2.0075,-4.50113 4.50113,-4.50113 z" />
    <path
       id="rect1009-7-5-3-6-7-5-3-5-8-6"
       style="fill:#000000;fill-opacity:0;stroke:#000000;stroke-width:1.06812;stroke-miterlimit:4;stroke-dasharray:none;stroke-opacity:1"
       d="m 469.44535,155.06134 h 30.68524 c 2.49363,0 4.50113,2.00751 4.50113,4.50113 v 30.68524 c 0,2.49362 -2.0075,4.50113 -4.50113,4.50113 h -30.68524 c -2.49363,0 -4.50113,-2.00751 -4.50113,-4.50113 v -30.68524 c 0,-2.49362 2.0075,-4.50113 4.50113,-4.50113 z" />
    <path
       id="rect1009-7-5-3-6-7-5-3-5-6-7-1"
       style="fill:#000000;fill-opacity:0;stroke:#000000;stroke-width:1.06821;stroke-miterlimit:4;stroke-dasharray:none;stroke-opacity:1"
       d="m 425.98099,155.40299 h 30.68524 c 2.49363,0 4.50113,2.00751 4.50113,4.50113 v 30.68524 c 0,2.49362 -2.0075,4.50113 -4.50113,4.50113 h -30.68524 c -2.49363,0 -4.50113,-2.00751 -4.50113,-4.50113 v -30.68524 c 0,-2.49362 2.0075,-4.50113 4.50113,-4.50113 z" />
    <g
       aria-label="k"
       id="text216-9-0"
       style="font-style:normal;font-weight:normal;font-size:22.5778px;line-height:1.25;font-family:sans-serif;fill:#000000;fill-opacity:1;stroke:none;stroke-width:0.264583"
       transform="translate(-4.501129,-3.9687669)">
      <path
         d="m 222.67223,169.8752 1.94517,-0.24314 v 17.34438 h -1.94517 z m 7.56067,4.90923 h 2.52408 l -5.48814,5.48814 6.12495,6.70387 h -2.55881 l -5.99759,-6.65756 z"
         style="font-style:normal;font-variant:normal;font-weight:normal;font-stretch:normal;font-size:22.5778px;font-family:'Fira Code';-inkscape-font-specification:'Fira Code';stroke-width:0.264583"
         id="path884" />
    </g>
    <g
       aria-label="z"
       id="text220-0-3"
       style="font-style:normal;font-weight:normal;font-size:22.5778px;line-height:1.25;font-family:sans-serif;fill:#000000;fill-opacity:1;stroke:none;stroke-width:0.264583"
       transform="translate(-222.43631,-4.2237449)">
      <path
         d="m 275.55304,176.3795 -6.71545,9.03112 h 6.78492 l -0.25472,1.65571 h -8.91534 v -1.47045 l 6.76176,-9.03112 h -6.22915 v -1.69044 h 8.56798 z"
         style="font-style:normal;font-variant:normal;font-weight:normal;font-stretch:normal;font-size:22.5778px;font-family:'Fira Code';-inkscape-font-specification:'Fira Code';stroke-width:0.264583"
         id="path887" />
    </g>
    <g
       aria-label="v"
       id="text224-3-0"
       style="font-style:normal;font-weight:normal;font-size:22.5778px;line-height:1.25;font-family:sans-serif;fill:#000000;fill-opacity:1;stroke:none;stroke-width:0.264583"
       transform="translate(40.282932,-4.2227709)">
      <path
         d="m 317.5982,174.84124 h 2.01463 l -4.43451,12.19201 h -2.25778 l -4.39978,-12.19201 h 2.06095 l 3.5314,10.42052 z"
         style="font-style:normal;font-variant:normal;font-weight:normal;font-stretch:normal;font-size:22.5778px;font-family:'Fira Code';-inkscape-font-specification:'Fira Code';stroke-width:0.264583"
         id="path890" />
    </g>
    <g
       aria-label="h"
       id="text228-5-1"
       style="font-style:normal;font-weight:normal;font-size:22.5778px;line-height:1.25;font-family:sans-serif;fill:#000000;fill-opacity:1;stroke:none;stroke-width:0.264583"
       transform="translate(40.282932,-4.2227709)">
      <path
         d="m 356.63588,177.02059 q 0.70628,-0.92627 1.73675,-1.42414 1.04206,-0.49787 2.15358,-0.49787 1.74833,0 2.58197,0.92627 0.84522,0.92627 0.84522,2.66302 v 8.85745 h -1.94516 v -8.81113 q 0,-1.08837 -0.50945,-1.59782 -0.50945,-0.50944 -1.59781,-0.50944 -0.96101,0 -1.84096,0.61365 -0.87996,0.60207 -1.42414,1.42414 v 8.8806 h -1.94517 v -17.07808 l 1.94517,-0.20841 z"
         style="font-style:normal;font-variant:normal;font-weight:normal;font-stretch:normal;font-size:22.5778px;font-family:'Fira Code';-inkscape-font-specification:'Fira Code';stroke-width:0.264583"
         id="path893" />
    </g>
    <g
       aria-label="."
       id="text236-8-7"
       style="font-style:normal;font-weight:normal;font-size:22.5778px;line-height:1.25;font-family:sans-serif;fill:#000000;fill-opacity:1;stroke:none;stroke-width:0.264583"
       transform="translate(39.753765,-4.2227709)">
      <path
         d="m 442.98474,184.96072 q 0,-0.55576 0.26631,-1.01889 0.2663,-0.46314 0.72943,-0.72944 0.46314,-0.27788 1.03048,-0.27788 0.57891,0 1.04205,0.27788 0.47471,0.2663 0.74101,0.72944 0.26631,0.46313 0.26631,1.01889 0,0.56734 -0.26631,1.04205 -0.2663,0.46314 -0.74101,0.74102 -0.46314,0.2663 -1.04205,0.2663 -0.56734,0 -1.03048,-0.2663 -0.46313,-0.27788 -0.72943,-0.74102 -0.26631,-0.47471 -0.26631,-1.04205 z"
         style="font-style:normal;font-variant:normal;font-weight:normal;font-stretch:normal;font-size:22.5778px;font-family:'Fira Code';-inkscape-font-specification:'Fira Code';stroke-width:0.264583"
         id="path899" />
    </g>
    <g
       aria-label=","
       id="text240-7-5"
       style="font-style:normal;font-weight:normal;font-size:22.5778px;line-height:1.25;font-family:sans-serif;fill:#000000;fill-opacity:1;stroke:none;stroke-width:0.264583"
       transform="translate(-47.36685,-3.8811207)">
      <path
         d="m 489.00298,183.05608 q 0.53261,0 0.96101,0.25472 0.4284,0.24315 0.67154,0.67154 0.24315,0.41683 0.24315,0.92627 0,0.4284 -0.10421,0.8568 -0.1042,0.4284 -0.34735,0.96101 l -1.87569,4.29557 h -1.75991 l 1.11152,-4.57345 q -0.34735,-0.25473 -0.55576,-0.65997 -0.19683,-0.41682 -0.19683,-0.87996 0,-0.50944 0.24314,-0.92627 0.24315,-0.42839 0.65997,-0.67154 0.4284,-0.25472 0.94942,-0.25472 z"
         style="font-style:normal;font-variant:normal;font-weight:normal;font-stretch:normal;font-size:22.5778px;font-family:'Fira Code';-inkscape-font-specification:'Fira Code';stroke-width:0.264583"
         id="path902" />
    </g>
    <path
       id="rect1009-2-6-7"
       style="fill:#000000;fill-opacity:0;stroke:#000000;stroke-width:1.06821;stroke-miterlimit:4;stroke-dasharray:none;stroke-opacity:1"
       d="m 139.44035,198.97159 h 300.56024 c 2.49363,0 4.50113,2.00751 4.50113,4.50113 v 30.68525 c 0,2.49362 -2.0075,4.50112 -4.50113,4.50112 H 139.44035 c -2.49362,0 -4.50113,-2.0075 -4.50113,-4.50112 v -30.68525 c 0,-2.49362 2.00751,-4.50113 4.50113,-4.50113 z" />
    <path
       id="rect1009-3"
       style="fill:#000000;fill-opacity:0;stroke:#000000;stroke-width:1.06821;stroke-miterlimit:4;stroke-dasharray:none;stroke-opacity:1"
       d="m 40.416582,24.600591 h 30.68525 c 2.49362,0 4.50113,2.007503 4.50113,4.501127 v 30.685243 c 0,2.49363 -2.00751,4.50113 -4.50113,4.50113 h -30.68525 c -2.49362,0 -4.50113,-2.0075 -4.50113,-4.50113 V 29.101718 c 0,-2.493624 2.00751,-4.501127 4.50113,-4.501127 z" />
    <path
       id="rect1009-7-6"
       style="fill:#000000;fill-opacity:0;stroke:#000000;stroke-width:1.06821;stroke-miterlimit:4;stroke-dasharray:none;stroke-opacity:1"
       d="m 84.072832,24.600591 h 30.685258 c 2.49362,0 4.50113,2.007503 4.50113,4.501127 v 30.685243 c 0,2.49363 -2.00751,4.50113 -4.50113,4.50113 H 84.072832 c -2.49362,0 -4.50113,-2.0075 -4.50113,-4.50113 V 29.101718 c 0,-2.493624 2.00751,-4.501127 4.50113,-4.501127 z" />
    <path
       id="rect1009-7-5-7"
       style="fill:#000000;fill-opacity:0;stroke:#000000;stroke-width:1.06821;stroke-miterlimit:4;stroke-dasharray:none;stroke-opacity:1"
       d="m 127.72909,24.600591 h 30.68525 c 2.49362,0 4.50113,2.007503 4.50113,4.501127 v 30.685243 c 0,2.49363 -2.00751,4.50113 -4.50113,4.50113 h -30.68525 c -2.49362,0 -4.50113,-2.0075 -4.50113,-4.50113 V 29.101718 c 0,-2.493624 2.00751,-4.501127 4.50113,-4.501127 z" />
    <path
       id="rect1009-7-5-3-1"
       style="fill:#000000;fill-opacity:0;stroke:#000000;stroke-width:1.06821;stroke-miterlimit:4;stroke-dasharray:none;stroke-opacity:1"
       d="m 171.38534,24.600591 h 30.68525 c 2.49362,0 4.50113,2.007503 4.50113,4.501127 v 30.685243 c 0,2.49363 -2.00751,4.50113 -4.50113,4.50113 h -30.68525 c -2.49362,0 -4.50113,-2.0075 -4.50113,-4.50113 V 29.101718 c 0,-2.493624 2.00751,-4.501127 4.50113,-4.501127 z" />
    <path
       id="rect1009-7-5-3-6-2"
       style="fill:#000000;fill-opacity:0;stroke:#000000;stroke-width:1.06821;stroke-miterlimit:4;stroke-dasharray:none;stroke-opacity:1"
       d="m 215.04159,24.600591 h 30.68524 c 2.49362,0 4.50113,2.007503 4.50113,4.501127 v 30.685243 c 0,2.49363 -2.00751,4.50113 -4.50113,4.50113 h -30.68524 c -2.49362,0 -4.50113,-2.0075 -4.50113,-4.50113 V 29.101718 c 0,-2.493624 2.00751,-4.501127 4.50113,-4.501127 z" />
    <path
       id="rect1009-7-5-3-6-7-7"
       style="fill:#000000;fill-opacity:0;stroke:#000000;stroke-width:1.06821;stroke-miterlimit:4;stroke-dasharray:none;stroke-opacity:1"
       d="m 303.482,24.346587 h 30.68524 c 2.49363,0 4.50113,2.007503 4.50113,4.501127 v 30.685243 c 0,2.49363 -2.0075,4.50113 -4.50113,4.50113 H 303.482 c -2.49363,0 -4.50113,-2.0075 -4.50113,-4.50113 V 28.847714 c 0,-2.493624 2.0075,-4.501127 4.50113,-4.501127 z" />
    <path
       id="rect1009-7-5-3-6-7-5-0"
       style="fill:#000000;fill-opacity:0;stroke:#000000;stroke-width:1.06821;stroke-miterlimit:4;stroke-dasharray:none;stroke-opacity:1"
       d="m 347.13825,24.346587 h 30.68524 c 2.49363,0 4.50113,2.007503 4.50113,4.501127 v 30.685243 c 0,2.49363 -2.0075,4.50113 -4.50113,4.50113 h -30.68524 c -2.49363,0 -4.50113,-2.0075 -4.50113,-4.50113 V 28.847714 c 0,-2.493624 2.0075,-4.501127 4.50113,-4.501127 z" />
    <path
       id="rect1009-7-5-3-6-7-5-3-9"
       style="fill:#000000;fill-opacity:0;stroke:#000000;stroke-width:1.06821;stroke-miterlimit:4;stroke-dasharray:none;stroke-opacity:1"
       d="m 390.7945,24.346587 h 30.68524 c 2.49363,0 4.50113,2.007503 4.50113,4.501127 v 30.685243 c 0,2.49363 -2.0075,4.50113 -4.50113,4.50113 H 390.7945 c -2.49363,0 -4.50113,-2.0075 -4.50113,-4.50113 V 28.847714 c 0,-2.493624 2.0075,-4.501127 4.50113,-4.501127 z" />
    <path
       id="rect1009-7-5-3-6-7-5-3-5-3"
       style="fill:#000000;fill-opacity:0;stroke:#000000;stroke-width:1.06821;stroke-miterlimit:4;stroke-dasharray:none;stroke-opacity:1"
       d="m 434.45075,24.346587 h 30.68524 c 2.49363,0 4.50113,2.007503 4.50113,4.501127 v 30.685243 c 0,2.49363 -2.0075,4.50113 -4.50113,4.50113 h -30.68524 c -2.49363,0 -4.50113,-2.0075 -4.50113,-4.50113 V 28.847714 c 0,-2.493624 2.0075,-4.501127 4.50113,-4.501127 z" />
    <path
       id="rect1009-7-5-3-6-7-5-3-5-6-6"
       style="fill:#000000;fill-opacity:0;stroke:#000000;stroke-width:1.06821;stroke-miterlimit:4;stroke-dasharray:none;stroke-opacity:1"
       d="m 478.107,24.346587 h 30.68524 c 2.49363,0 4.50113,2.007503 4.50113,4.501127 v 30.685243 c 0,2.49363 -2.0075,4.50113 -4.50113,4.50113 H 478.107 c -2.49363,0 -4.50113,-2.0075 -4.50113,-4.50113 V 28.847714 c 0,-2.493624 2.0075,-4.501127 4.50113,-4.501127 z" />
    <path
       id="rect1009-7-5-3-6-22"
       style="fill:#000000;fill-opacity:0;stroke:#000000;stroke-width:1.06821;stroke-miterlimit:4;stroke-dasharray:none;stroke-opacity:1"
       d="m 270.84839,68.167634 h 30.68525 c 2.49362,0 4.50113,2.007503 4.50113,4.501127 v 30.685229 c 0,2.49363 -2.00751,4.50113 -4.50113,4.50113 h -30.68525 c -2.49362,0 -4.50113,-2.0075 -4.50113,-4.50113 V 72.668761 c 0,-2.493624 2.00751,-4.501127 4.50113,-4.501127 z" />
    <path
       id="rect1009-7-5-3-6-6-7"
       style="fill:#000000;fill-opacity:0;stroke:#000000;stroke-width:1.06821;stroke-miterlimit:4;stroke-dasharray:none;stroke-opacity:1"
       d="m 282.75464,111.82388 h 30.68525 c 2.49362,0 4.50113,2.00751 4.50113,4.50113 v 30.68524 c 0,2.49362 -2.00751,4.50113 -4.50113,4.50113 h -30.68525 c -2.49362,0 -4.50113,-2.00751 -4.50113,-4.50113 v -30.68524 c 0,-2.49362 2.00751,-4.50113 4.50113,-4.50113 z" />
    <path
       id="rect1009-7-5-3-6-6-4-2"
       style="fill:#000000;fill-opacity:0;stroke:#000000;stroke-width:1.06821;stroke-miterlimit:4;stroke-dasharray:none;stroke-opacity:1"
       d="m 294.66091,155.48013 h 30.68524 c 2.49363,0 4.50113,2.00751 4.50113,4.50113 v 30.68524 c 0,2.49362 -2.0075,4.50113 -4.50113,4.50113 h -30.68524 c -2.49363,0 -4.50113,-2.00751 -4.50113,-4.50113 v -30.68524 c 0,-2.49362 2.0075,-4.50113 4.50113,-4.50113 z" />
    <path
       id="rect1009-7-5-3-6-2-1"
       style="fill:#000000;fill-opacity:0;stroke:#000000;stroke-width:1.06821;stroke-miterlimit:4;stroke-dasharray:none;stroke-opacity:1"
       d="m 259.13713,24.765395 h 30.68524 c 2.49362,0 4.50113,2.007503 4.50113,4.501127 v 30.685243 c 0,2.49363 -2.00751,4.50113 -4.50113,4.50113 h -30.68524 c -2.49362,0 -4.50113,-2.0075 -4.50113,-4.50113 V 29.266522 c 0,-2.493624 2.00751,-4.501127 4.50113,-4.501127 z" />
    <g
       aria-label="1"
       id="text8373"
       style="font-style:normal;font-weight:normal;font-size:22.5778px;line-height:1.25;font-family:sans-serif;fill:#000000;fill-opacity:1;stroke:none;stroke-width:0.264583">
      <path
         d="m 57.789122,36.218636 v 14.357166 h 3.334567 v 1.586235 h -9.204796 v -1.586235 h 3.925064 V 38.325897 l -3.658761,2.223045 -0.845221,-1.389403 4.747128,-2.940903 z"
         style="font-style:normal;font-variant:normal;font-weight:normal;font-stretch:normal;font-size:22.5778px;font-family:'Fira Code';-inkscape-font-specification:'Fira Code';stroke-width:0.264583"
         id="path8616" />
    </g>
    <g
       aria-label="2"
       id="text8377"
       style="font-style:normal;font-weight:normal;font-size:22.5778px;line-height:1.25;font-family:sans-serif;fill:#000000;fill-opacity:1;stroke:none;stroke-width:0.264583">
      <path
         d="m 100.13358,36.091273 q 1.47045,0 2.55882,0.578918 1.08836,0.578918 1.66728,1.586236 0.57892,1.007317 0.57892,2.280936 0,1.470452 -0.68312,2.859855 -0.68313,1.389403 -2.19989,3.056687 -1.50519,1.667284 -4.260838,4.179788 h 7.514358 l -0.24315,1.655705 h -9.482674 v -1.586235 q 3.137735,-3.010373 4.642924,-4.689236 1.50518,-1.678862 2.0841,-2.871433 0.57892,-1.204149 0.57892,-2.53566 0,-1.354668 -0.76417,-2.11884 -0.75259,-0.77575 -2.08411,-0.77575 -1.146254,0 -1.910425,0.393664 -0.752594,0.382086 -1.528344,1.308355 L 95.259092,38.37221 q 0.961003,-1.169414 2.118839,-1.725175 1.169415,-0.555762 2.755649,-0.555762 z"
         style="font-style:normal;font-variant:normal;font-weight:normal;font-stretch:normal;font-size:22.5778px;font-family:'Fira Code';-inkscape-font-specification:'Fira Code';stroke-width:0.264583"
         id="path8613" />
    </g>
    <g
       aria-label="3"
       id="text8381"
       style="font-style:normal;font-weight:normal;font-size:22.5778px;line-height:1.25;font-family:sans-serif;fill:#000000;fill-opacity:1;stroke:none;stroke-width:0.264583">
      <path
         d="m 143.55823,35.958125 q 1.45887,0 2.5704,0.544183 1.1231,0.532605 1.72517,1.447295 0.60208,0.903112 0.60208,1.991478 0,0.937847 -0.4284,1.736754 -0.41682,0.787328 -1.13468,1.308354 -0.70628,0.509448 -1.5515,0.671545 0.97258,0.08105 1.79464,0.555761 0.82207,0.463135 1.31994,1.319933 0.50945,0.856799 0.50945,2.026213 0,1.377825 -0.70628,2.489348 -0.69471,1.099944 -1.95675,1.736754 -1.25046,0.636809 -2.87143,0.636809 -1.41256,0 -2.72091,-0.532604 -1.30836,-0.532605 -2.17674,-1.597814 l 1.30836,-1.065209 q 0.65996,0.77575 1.59781,1.180993 0.93785,0.405242 1.94517,0.405242 1.09994,0 1.89885,-0.393664 0.7989,-0.393664 1.21572,-1.123101 0.4284,-0.741015 0.4284,-1.736754 0,-3.021951 -3.29983,-3.021951 h -1.34309 l 0.24315,-1.539922 h 0.93784 q 0.79891,0 1.49361,-0.301038 0.6947,-0.312615 1.11153,-0.937847 0.42839,-0.636809 0.42839,-1.539921 0,-0.856799 -0.40524,-1.458874 -0.39366,-0.613653 -1.07679,-0.926269 -0.68312,-0.324194 -1.52834,-0.324194 -1.00732,0 -1.78307,0.35893 -0.77575,0.34735 -1.59781,1.111522 l -1.07679,-1.192571 q 1.94517,-1.829381 4.52714,-1.829381 z"
         style="font-style:normal;font-variant:normal;font-weight:normal;font-stretch:normal;font-size:22.5778px;font-family:'Fira Code';-inkscape-font-specification:'Fira Code';stroke-width:0.264583"
         id="path8610" />
    </g>
    <g
       aria-label="4"
       id="text8385"
       style="font-style:normal;font-weight:normal;font-size:22.5778px;line-height:1.25;font-family:sans-serif;fill:#000000;fill-opacity:1;stroke:none;stroke-width:0.264583">
      <path
         d="m 190.28993,46.697588 h 2.06094 v 1.5515 h -2.06094 v 3.87875 h -1.8757 l -0.0116,-3.87875 h -6.62282 v -1.41256 l 4.67766,-10.906815 1.62097,0.683124 -4.23768,10.084751 h 4.58503 l 0.24315,-4.527139 h 1.62097 z"
         style="font-style:normal;font-variant:normal;font-weight:normal;font-stretch:normal;font-size:22.5778px;font-family:'Fira Code';-inkscape-font-specification:'Fira Code';stroke-width:0.264583"
         id="path8607" />
    </g>
    <g
       aria-label="5"
       id="text8389"
       style="font-style:normal;font-weight:normal;font-size:22.5778px;line-height:1.25;font-family:sans-serif;fill:#000000;fill-opacity:1;stroke:none;stroke-width:0.264583">
      <path
         d="m 235.18879,36.085484 -0.28946,1.5515 h -6.29863 v 5.025008 q 0.70628,-0.382086 1.35467,-0.532604 0.64839,-0.150519 1.40098,-0.150519 1.30836,0 2.29252,0.590496 0.98416,0.590497 1.51676,1.725176 0.54419,1.123101 0.54419,2.686179 0,1.586235 -0.67155,2.790385 -0.65996,1.204149 -1.88727,1.864116 -1.21573,0.659966 -2.8367,0.659966 -1.3894,0 -2.52408,-0.486291 -1.1231,-0.497869 -2.09568,-1.435717 l 1.20415,-1.157835 q 0.71785,0.752593 1.56307,1.111522 0.84522,0.358929 1.8757,0.358929 1.58623,0 2.45461,-0.961004 0.87996,-0.961003 0.87996,-2.801963 0,-1.806224 -0.78733,-2.60513 -0.77575,-0.798907 -2.08411,-0.798907 -0.65996,0 -1.19257,0.127362 -0.52102,0.115783 -1.29677,0.405242 h -1.56308 v -7.965911 z"
         style="font-style:normal;font-variant:normal;font-weight:normal;font-stretch:normal;font-size:22.5778px;font-family:'Fira Code';-inkscape-font-specification:'Fira Code';stroke-width:0.264583"
         id="path8604" />
    </g>
    <g
       aria-label="6"
       id="text8393"
       style="font-style:normal;font-weight:normal;font-size:22.5778px;line-height:1.25;font-family:sans-serif;fill:#000000;fill-opacity:1;stroke:none;stroke-width:0.264583">
      <path
         d="m 275.66911,41.770462 q 1.26204,0 2.28094,0.567339 1.03047,0.555762 1.63255,1.690441 0.60207,1.123101 0.60207,2.767228 0,1.713597 -0.67154,2.987216 -0.65997,1.27362 -1.80623,1.956743 -1.14626,0.683123 -2.53566,0.683123 -2.79038,0 -4.04085,-2.026213 -1.25046,-2.026213 -1.25046,-5.777601 0,-2.628288 0.70628,-4.58503 0.70628,-1.956743 2.03779,-3.010374 1.34309,-1.065209 3.18405,-1.065209 1.75991,0 3.14931,0.926269 l -0.76417,1.319933 q -1.09994,-0.671545 -2.41988,-0.671545 -1.20414,0 -2.0841,0.787329 -0.86838,0.77575 -1.34309,2.211466 -0.47471,1.435717 -0.52103,3.392459 0.7526,-1.111522 1.70202,-1.632548 0.94943,-0.521026 2.142,-0.521026 z m -0.50945,9.077433 q 1.48203,0 2.25778,-1.05363 0.77575,-1.065209 0.77575,-2.952482 0,-1.864116 -0.74101,-2.663023 -0.72944,-0.810485 -2.08411,-0.810485 -1.09994,0 -2.00305,0.602075 -0.89154,0.602075 -1.51677,1.655705 0.0463,1.817803 0.39367,2.96406 0.35892,1.146258 1.0652,1.702019 0.71786,0.555761 1.85254,0.555761 z"
         style="font-style:normal;font-variant:normal;font-weight:normal;font-stretch:normal;font-size:22.5778px;font-family:'Fira Code';-inkscape-font-specification:'Fira Code';stroke-width:0.264583"
         id="path8601" />
    </g>
    <g
       aria-label="["
       id="text8397"
       style="font-style:normal;font-weight:normal;font-size:22.5778px;line-height:1.25;font-family:sans-serif;fill:#000000;fill-opacity:1;stroke:none;stroke-width:0.264583">
      <path
         d="m 323.83485,54.96979 h -5.80076 V 33.410885 h 5.80076 v 1.678862 h -3.9598 v 18.224338 h 3.9598 z"
         style="font-style:normal;font-variant:normal;font-weight:normal;font-stretch:normal;font-size:22.5778px;font-family:'Fira Code';-inkscape-font-specification:'Fira Code';stroke-width:0.264583"
         id="path8598" />
    </g>
    <g
       aria-label="7"
       id="text8401"
       style="font-style:normal;font-weight:normal;font-size:22.5778px;line-height:1.25;font-family:sans-serif;fill:#000000;fill-opacity:1;stroke:none;stroke-width:0.264583">
      <path
         d="m 367.68715,37.602251 -6.35651,14.669782 -1.81781,-0.555762 6.21758,-13.986658 h -7.47962 v -1.62097 h 9.43636 z"
         style="font-style:normal;font-variant:normal;font-weight:normal;font-stretch:normal;font-size:22.5778px;font-family:'Fira Code';-inkscape-font-specification:'Fira Code';stroke-width:0.264583"
         id="path8595" />
    </g>
    <g
       aria-label="8"
       id="text8405"
       style="font-style:normal;font-weight:normal;font-size:22.5778px;line-height:1.25;font-family:sans-serif;fill:#000000;fill-opacity:1;stroke:none;stroke-width:0.264583">
      <path
         d="m 411.06079,40.010551 q 0,1.123101 -0.6947,1.979899 -0.68313,0.845221 -2.07253,1.609392 1.60939,0.659967 2.5125,1.759911 0.90312,1.088366 0.90312,2.524082 0,1.296777 -0.67155,2.338829 -0.67154,1.030474 -1.91043,1.62097 -1.23888,0.578918 -2.89459,0.578918 -1.66728,0 -2.88301,-0.590496 -1.21573,-0.590496 -1.86412,-1.609392 -0.63681,-1.030474 -0.63681,-2.304094 0,-2.686179 3.19563,-4.156631 -1.30835,-0.625231 -1.93358,-1.48203 -0.61366,-0.856798 -0.61366,-2.165153 0,-1.377824 0.71786,-2.315672 0.72944,-0.937847 1.82938,-1.389403 1.11152,-0.451556 2.23462,-0.451556 1.22731,0 2.31568,0.439978 1.08836,0.439978 1.77149,1.354668 0.6947,0.91469 0.6947,2.25778 z m -7.64172,0.127362 q 0,0.879955 0.39366,1.400981 0.40525,0.521027 1.07679,0.833642 0.68312,0.312616 2.02621,0.741015 0.78733,-0.439977 1.26205,-0.856798 0.47471,-0.416821 0.71785,-0.937847 0.24315,-0.521027 0.24315,-1.238885 0,-1.215728 -0.75259,-1.910429 -0.7526,-0.70628 -2.10727,-0.70628 -1.35466,0 -2.10726,0.70628 -0.75259,0.70628 -0.75259,1.968321 z m 6.24074,7.769079 q 0,-1.018896 -0.50945,-1.644127 -0.50945,-0.625231 -1.33151,-1.007317 -0.81049,-0.382086 -2.43146,-0.937847 -1.13468,0.521026 -1.8178,1.377824 -0.67155,0.845221 -0.67155,2.234624 0,1.377825 0.84522,2.153575 0.8568,0.764171 2.47777,0.764171 1.08837,0 1.86412,-0.382085 0.77575,-0.382086 1.16941,-1.042053 0.40525,-0.671545 0.40525,-1.516765 z"
         style="font-style:normal;font-variant:normal;font-weight:normal;font-stretch:normal;font-size:22.5778px;font-family:'Fira Code';-inkscape-font-specification:'Fira Code';stroke-width:0.264583"
         id="path8592" />
    </g>
    <g
       aria-label="9"
       id="text8409"
       style="font-style:normal;font-weight:normal;font-size:22.5778px;line-height:1.25;font-family:sans-serif;fill:#000000;fill-opacity:1;stroke:none;stroke-width:0.264583">
      <path
         d="m 450.19804,35.859708 q 1.7136,0 2.87143,0.787328 1.16942,0.787328 1.74834,2.246202 0.57891,1.458873 0.57891,3.485086 0,3.184049 -0.86837,5.106056 -0.86838,1.91043 -2.6746,3.045109 -1.79465,1.123101 -4.95554,1.991478 l -0.45156,-1.48203 q 2.29252,-0.63681 3.75139,-1.48203 1.45887,-0.856799 2.23462,-2.130418 0.78733,-1.27362 0.89154,-3.137736 -1.5515,1.898851 -3.72823,1.898851 -1.33151,0 -2.36199,-0.613653 -1.03047,-0.613653 -1.62097,-1.759911 -0.57892,-1.157835 -0.57892,-2.720914 0,-1.655705 0.67155,-2.836698 0.68312,-1.180993 1.85254,-1.783067 1.18099,-0.613653 2.63986,-0.613653 z m -0.24314,8.776396 q 1.03047,0 1.84095,-0.521026 0.82207,-0.532605 1.57466,-1.5515 -0.0232,-1.864116 -0.37051,-2.987217 -0.34735,-1.123101 -1.04205,-1.632549 -0.68312,-0.509448 -1.75991,-0.509448 -1.5515,0 -2.35041,0.949426 -0.7989,0.949425 -0.7989,2.778806 0,1.771489 0.75259,2.628288 0.75259,0.84522 2.15358,0.84522 z"
         style="font-style:normal;font-variant:normal;font-weight:normal;font-stretch:normal;font-size:22.5778px;font-family:'Fira Code';-inkscape-font-specification:'Fira Code';stroke-width:0.264583"
         id="path8589" />
    </g>
    <g
       aria-label="0"
       id="text8413"
       style="font-style:normal;font-weight:normal;font-size:22.5778px;line-height:1.25;font-family:sans-serif;fill:#000000;fill-opacity:1;stroke:none;stroke-width:0.264583">
      <path
         d="m 494.3164,35.958125 q 2.55882,0 3.89033,2.11884 1.33151,2.11884 1.33151,6.101795 0,3.994534 -1.33151,6.124953 -1.33151,2.118839 -3.89033,2.118839 -2.55882,0 -3.89033,-2.118839 -1.33151,-2.130419 -1.33151,-6.124953 0,-3.982955 1.33151,-6.101795 1.33151,-2.11884 3.89033,-2.11884 z m 0,1.563079 q -3.16089,0 -3.16089,6.657556 0,2.663023 0.40524,4.16821 l 4.87449,-9.795292 q -0.71786,-1.030474 -2.11884,-1.030474 z m 0,13.326691 q 3.17247,0 3.17247,-6.669135 0,-2.709336 -0.41682,-4.191366 L 492.22072,49.829 q 0.38208,0.521026 0.89153,0.77575 0.52103,0.243145 1.20415,0.243145 z"
         style="font-style:normal;font-variant:normal;font-weight:normal;font-stretch:normal;font-size:22.5778px;font-family:'Fira Code';-inkscape-font-specification:'Fira Code';stroke-width:0.264583"
         id="path8586" />
    </g>
    <g
       aria-label="]"
       id="text8417"
       style="font-style:normal;font-weight:normal;font-size:22.5778px;line-height:1.25;font-family:sans-serif;fill:#000000;fill-opacity:1;stroke:none;stroke-width:0.264583">
      <path
         d="m 284.4521,77.067135 h 5.80075 V 98.62604 h -5.80075 v -1.644127 h 3.9598 V 78.745997 h -3.9598 z"
         style="font-style:normal;font-variant:normal;font-weight:normal;font-stretch:normal;font-size:22.5778px;font-family:'Fira Code';-inkscape-font-specification:'Fira Code';stroke-width:0.264583"
         id="path8583" />
    </g>
    <g
       aria-label="\"
       id="text8421"
       style="font-style:normal;font-weight:normal;font-size:22.5778px;line-height:1.25;font-family:sans-serif;fill:#000000;fill-opacity:1;stroke:none;stroke-width:0.264583">
      <path
         d="m 303.49485,142.06809 -9.88792,-20.36633 1.5515,-0.76417 9.91108,20.4358 z"
         style="font-style:normal;font-variant:normal;font-weight:normal;font-stretch:normal;font-size:22.5778px;font-family:'Fira Code';-inkscape-font-specification:'Fira Code';stroke-width:0.264583"
         id="path8580" />
    </g>
    <g
       aria-label="/"
       id="text8425"
       style="font-style:normal;font-weight:normal;font-size:22.5778px;line-height:1.25;font-family:sans-serif;fill:#000000;fill-opacity:1;stroke:none;stroke-width:0.264583">
      <path
         d="m 316.53209,165.35801 -9.88792,20.36633 -1.57465,-0.6947 9.91107,-20.4358 z"
         style="font-style:normal;font-variant:normal;font-weight:normal;font-stretch:normal;font-size:22.5778px;font-family:'Fira Code';-inkscape-font-specification:'Fira Code';stroke-width:0.264583"
         id="path8577" />
    </g>
    <g
       aria-label=";"
       id="text1786-9"
       style="font-style:normal;font-weight:normal;font-size:22.5778px;line-height:1.25;font-family:sans-serif;fill:#000000;fill-opacity:1;stroke:none;stroke-width:0.264583"
       transform="translate(477.30835,-2.8472836)">
      <path
         d="m 72.133698,83.814698 q 0.532604,0 0.961004,0.254724 0.428399,0.243146 0.671544,0.671545 0.254724,0.428399 0.254724,0.937847 0,0.509448 -0.254724,0.949425 -0.243145,0.4284 -0.671544,0.683124 -0.4284,0.254724 -0.961004,0.254724 -0.521026,0 -0.949426,-0.254724 -0.416821,-0.254724 -0.671545,-0.683124 -0.243145,-0.439977 -0.243145,-0.949425 0,-0.509448 0.243145,-0.937847 0.254724,-0.428399 0.671545,-0.671545 0.4284,-0.254724 0.949426,-0.254724 z m 0,8.000646 q 0.532604,0 0.961004,0.254724 0.428399,0.243146 0.671544,0.671545 0.254724,0.416821 0.254724,0.926269 0,0.451556 -0.104205,0.879955 -0.104205,0.4284 -0.358929,0.961004 l -1.875694,4.30715 h -1.759911 l 1.111523,-4.596609 q -0.35893,-0.243145 -0.56734,-0.648388 -0.196832,-0.416821 -0.196832,-0.891534 0,-0.509448 0.243145,-0.937847 0.254724,-0.428399 0.671545,-0.671545 0.4284,-0.254724 0.949426,-0.254724 z"
         style="font-style:normal;font-variant:normal;font-weight:normal;font-stretch:normal;font-size:22.5778px;font-family:'Fira Code';-inkscape-font-specification:'Fira Code';stroke-width:0.264583"
         id="path788-4" />
    </g>
    <path
       id="rect1009-7-5-3-6-7-5-3-5-6-78"
       style="fill:#000000;fill-opacity:0;stroke:#000000;stroke-width:1.06821;stroke-miterlimit:4;stroke-dasharray:none;stroke-opacity:1"
       d="m 533.59502,67.776423 h 30.68524 c 2.49363,0 4.50113,2.007503 4.50113,4.501127 v 30.68525 c 0,2.49364 -2.0075,4.50114 -4.50113,4.50114 h -30.68524 c -2.49363,0 -4.50113,-2.0075 -4.50113,-4.50114 V 72.277551 c 0,-2.493624 2.0075,-4.501127 4.50113,-4.501128 z" />
    <g
       aria-label="'"
       id="text8572"
       style="font-style:normal;font-weight:normal;font-size:22.5778px;line-height:1.25;font-family:sans-serif;fill:#000000;fill-opacity:1;stroke:none;stroke-width:0.264583">
      <path
         d="m 506.32313,82.919457 h -1.7136 l -0.35892,-6.020747 h 2.43145 z"
         style="font-style:normal;font-variant:normal;font-weight:normal;font-stretch:normal;font-size:22.5778px;font-family:'Fira Code';-inkscape-font-specification:'Fira Code';stroke-width:0.264583"
         id="path8574" />
    </g>
    <path
       id="rect1009-7-5-3-6-7-5-3-5-6-78-4"
       style="fill:#000000;fill-opacity:0;stroke:#000000;stroke-width:1.06812;stroke-miterlimit:4;stroke-dasharray:none;stroke-opacity:1"
       d="m 521.76153,24.346573 h 30.68524 c 2.49363,0 4.50113,2.007503 4.50113,4.501127 v 30.68525 c 0,2.49364 -2.0075,4.50114 -4.50113,4.50114 h -30.68524 c -2.49363,0 -4.50113,-2.0075 -4.50113,-4.50114 V 28.847701 c 0,-2.493624 2.0075,-4.501127 4.50113,-4.501128 z" />
    <g
       aria-label="-"
       id="text8641"
       style="font-style:normal;font-weight:normal;font-size:22.5778px;line-height:1.25;font-family:sans-serif;fill:#000000;fill-opacity:1;stroke:none;stroke-width:0.264583">
      <path
         d="m 542.01663,45.248664 h -9.28584 v -1.69044 h 9.28584 z"
         style="font-style:normal;font-variant:normal;font-weight:normal;font-stretch:normal;font-size:22.5778px;font-family:'Fira Code';-inkscape-font-specification:'Fira Code';stroke-width:0.264583"
         id="path8643" />
    </g>
    <rect
       style="opacity:1;fill:#cc00e7;fill-opacity:0;stroke:#000000;stroke-width:1.06812;stroke-miterlimit:4;stroke-dasharray:none;stroke-opacity:0.996538"
       id="rect8646"
       width="82.348175"
       height="39.226009"
       x="560.35864"
       y="24.577326"
       ry="3.9226005" />
    <rect
       style="fill:#cc00e7;fill-opacity:0;stroke:#000000;stroke-width:1.06812;stroke-miterlimit:4;stroke-dasharray:none;stroke-opacity:0.996538"
       id="rect8646-5"
       width="70.034508"
       height="39.342899"
       x="572.73071"
       y="67.645958"
       ry="3.9342897" />
    <rect
       style="fill:#cc00e7;fill-opacity:0;stroke:#000000;stroke-width:1.06812;stroke-miterlimit:4;stroke-dasharray:none;stroke-opacity:0.996538"
       id="rect8646-0"
       width="102.02265"
       height="39.05674"
       x="540.59949"
       y="111.97936"
       ry="3.9056735" />
    <rect
       style="fill:#cc00e7;fill-opacity:0;stroke:#000000;stroke-width:1.06812;stroke-miterlimit:4;stroke-dasharray:none;stroke-opacity:0.996538"
       id="rect8646-3"
       width="133.53387"
       height="38.817955"
       x="508.9689"
       y="156.28416"
       ry="3.8817949" />
    <text
       xml:space="preserve"
       style="font-style:normal;font-weight:normal;font-size:22.5778px;line-height:1.25;font-family:sans-serif;fill:#000000;fill-opacity:1;stroke:none;stroke-width:0.264583"
       x="600.80585"
       y="94.113098"
       id="text8744"><tspan
         sodipodi:role="line"
         id="tspan8742"
         x="600.80585"
         y="94.113098"
         style="font-style:normal;font-variant:normal;font-weight:normal;font-stretch:normal;font-size:22.5778px;font-family:'Fira Code';-inkscape-font-specification:'Fira Code';stroke-width:0.264583">=</tspan></text>
    <path
       style="fill:none;stroke:#000000;stroke-width:0.79375;stroke-linecap:butt;stroke-linejoin:miter;stroke-miterlimit:4;stroke-dasharray:none;stroke-opacity:1;marker-end:url(#Arrow1Lend)"
       d="M 615.69035,44.190326 H 579.9716"
       id="path9174" />
    <path
       style="fill:none;stroke:#000000;stroke-width:0.79375;stroke-linecap:butt;stroke-linejoin:miter;stroke-miterlimit:4;stroke-dasharray:none;stroke-opacity:1;marker-end:url(#Arrow1Lend-6)"
       d="M 603.78411,131.50283 H 568.06536"
       id="path9174-0" />
    <path
       style="fill:none;stroke:#000000;stroke-width:0.79375;stroke-linecap:butt;stroke-linejoin:miter;stroke-miterlimit:4;stroke-dasharray:none;stroke-opacity:1"
       d="m 603.39071,123.9587 v 7.9375"
       id="path9318" />
    <path
       id="rect1009-7-5-3-0-8-6"
       style="fill:#000000;fill-opacity:0;stroke:#000000;stroke-width:1.06821;stroke-miterlimit:4;stroke-dasharray:none;stroke-opacity:1"
       d="m 250.56362,155.31533 h 30.68525 c 2.49362,0 4.50113,2.00751 4.50113,4.50113 v 30.68524 c 0,2.49362 -2.00751,4.50113 -4.50113,4.50113 h -30.68525 c -2.49362,0 -4.50113,-2.00751 -4.50113,-4.50113 v -30.68524 c 0,-2.49362 2.00751,-4.50113 4.50113,-4.50113 z" />
    <text
       xml:space="preserve"
       style="font-style:normal;font-weight:normal;font-size:22.5778px;line-height:1.25;font-family:sans-serif;fill:#000000;fill-opacity:1;stroke:none;stroke-width:0.264583"
       x="259.49335"
       y="183.16498"
       id="text9342"><tspan
         sodipodi:role="line"
         id="tspan9340"
         x="259.49335"
         y="183.16498"
         style="font-style:normal;font-variant:normal;font-weight:normal;font-stretch:normal;font-size:22.5778px;font-family:'Fira Code';-inkscape-font-specification:'Fira Code';stroke-width:0.264583">#</tspan></text>
  </g>
</svg>
