<?xml version="1.0" encoding="UTF-8" standalone="no"?>
<svg
   xmlns:dc="http://purl.org/dc/elements/1.1/"
   xmlns:cc="http://creativecommons.org/ns#"
   xmlns:rdf="http://www.w3.org/1999/02/22-rdf-syntax-ns#"
   xmlns:svg="http://www.w3.org/2000/svg"
   xmlns="http://www.w3.org/2000/svg"
   xmlns:sodipodi="http://sodipodi.sourceforge.net/DTD/sodipodi-0.dtd"
   xmlns:inkscape="http://www.inkscape.org/namespaces/inkscape"
   width="1929.0374"
   height="849.03729"
   viewBox="0 0 510.39113 224.64112"
   version="1.1"
   id="svg1007"
   inkscape:version="1.0.2 (e86c870879, 2021-01-15, custom)"
   sodipodi:docname="colemaq-id-iso.svg">
  <defs
     id="defs1001" />
  <sodipodi:namedview
     id="base"
     pagecolor="#ffffff"
     bordercolor="#666666"
     borderopacity="1.0"
     inkscape:pageopacity="0.0"
     inkscape:pageshadow="2"
     inkscape:zoom="0.7"
     inkscape:cx="984.21359"
     inkscape:cy="422.22922"
     inkscape:document-units="px"
     inkscape:current-layer="layer1"
     inkscape:document-rotation="0"
     showgrid="true"
     units="px"
     showguides="true"
     inkscape:guide-bbox="true"
     objecttolerance="20"
     guidetolerance="10"
     inkscape:snap-bbox="true"
     inkscape:bbox-nodes="false"
     inkscape:snap-bbox-edge-midpoints="true"
     inkscape:snap-bbox-midpoints="false"
     inkscape:window-width="1600"
     inkscape:window-height="818"
     inkscape:window-x="0"
     inkscape:window-y="40"
     inkscape:window-maximized="1"
     inkscape:bbox-paths="false"
     fit-margin-top="100"
     fit-margin-left="100"
     fit-margin-right="100"
     fit-margin-bottom="100"
     lock-margins="true">
    <inkscape:grid
       type="xygrid"
       id="grid1742"
       spacingx="3.96875"
       spacingy="3.96875"
       empspacing="0"
       originx="-227.00755"
       originy="-326.22631" />
  </sodipodi:namedview>
  <metadata
     id="metadata1004">
    <rdf:RDF>
      <cc:Work
         rdf:about="">
        <dc:format>image/svg+xml</dc:format>
        <dc:type
           rdf:resource="http://purl.org/dc/dcmitype/StillImage" />
        <dc:title></dc:title>
      </cc:Work>
    </rdf:RDF>
  </metadata>
  <g
     inkscape:label="Layer 1"
     inkscape:groupmode="layer"
     id="layer1"
     transform="translate(-22.769002,-42.612695)">
    <path
       id="rect1009"
       style="fill:#000000;fill-opacity:0;stroke:#000000;stroke-width:1.06821;stroke-miterlimit:4;stroke-dasharray:none;stroke-opacity:1"
       d="m 54.796687,70.13924 h 30.685244 c 2.493626,0 4.50113,2.007503 4.50113,4.501128 V 105.3256 c 0,2.49362 -2.007504,4.50113 -4.50113,4.50113 H 54.796687 c -2.493626,0 -4.50113,-2.00751 -4.50113,-4.50113 V 74.640368 c 0,-2.493625 2.007504,-4.501128 4.50113,-4.501128 z" />
    <path
       id="rect1009-7"
       style="fill:#000000;fill-opacity:0;stroke:#000000;stroke-width:1.06821;stroke-miterlimit:4;stroke-dasharray:none;stroke-opacity:1"
       d="m 98.452941,70.13924 h 30.685249 c 2.49362,0 4.50113,2.007503 4.50113,4.501128 V 105.3256 c 0,2.49362 -2.00751,4.50113 -4.50113,4.50113 H 98.452941 c -2.493626,0 -4.50113,-2.00751 -4.50113,-4.50113 V 74.640368 c 0,-2.493625 2.007504,-4.501128 4.50113,-4.501128 z" />
    <path
       id="rect1009-7-5"
       style="fill:#000000;fill-opacity:0;stroke:#000000;stroke-width:1.06821;stroke-miterlimit:4;stroke-dasharray:none;stroke-opacity:1"
       d="m 142.10919,70.13924 h 30.68525 c 2.49362,0 4.50113,2.007503 4.50113,4.501128 V 105.3256 c 0,2.49362 -2.00751,4.50113 -4.50113,4.50113 h -30.68525 c -2.49362,0 -4.50113,-2.00751 -4.50113,-4.50113 V 74.640368 c 0,-2.493625 2.00751,-4.501128 4.50113,-4.501128 z" />
    <g
       aria-label=";"
       id="text1786"
       style="font-style:normal;font-weight:normal;font-size:22.5778px;line-height:1.25;font-family:sans-serif;fill:#000000;fill-opacity:1;stroke:none;stroke-width:0.264583"
       transform="translate(0.534117,0.534107)">
      <path
         d="m 113.07774,82.873513 q 0.5326,0 0.961,0.254724 0.4284,0.243146 0.67154,0.671545 0.25473,0.428399 0.25473,0.937847 0,0.509448 -0.25473,0.949425 -0.24314,0.4284 -0.67154,0.683124 -0.4284,0.254724 -0.961,0.254724 -0.52103,0 -0.94943,-0.254724 -0.41682,-0.254724 -0.67154,-0.683124 -0.24315,-0.439977 -0.24315,-0.949425 0,-0.509448 0.24315,-0.937847 0.25472,-0.428399 0.67154,-0.671545 0.4284,-0.254724 0.94943,-0.254724 z m 0,8.000646 q 0.5326,0 0.961,0.254724 0.4284,0.243146 0.67154,0.671545 0.25473,0.416821 0.25473,0.926269 0,0.451556 -0.10421,0.879955 -0.1042,0.4284 -0.35893,0.961004 l -1.87569,4.30715 h -1.75991 l 1.11152,-4.596609 q -0.35893,-0.243145 -0.56734,-0.648388 -0.19683,-0.416821 -0.19683,-0.891534 0,-0.509448 0.24315,-0.937847 0.25472,-0.428399 0.67154,-0.671545 0.4284,-0.254724 0.94943,-0.254724 z"
         style="font-style:normal;font-variant:normal;font-weight:normal;font-stretch:normal;font-size:22.5778px;font-family:'Fira Code';-inkscape-font-specification:'Fira Code';stroke-width:0.264583"
         id="path1351" />
    </g>
    <g
       aria-label="w"
       id="text1790"
       style="font-style:normal;font-weight:normal;font-size:22.5778px;line-height:1.25;font-family:sans-serif;fill:#000000;fill-opacity:1;stroke:none;stroke-width:0.264583"
       transform="translate(0.534117,0.534107)">
      <path
         d="m 468.95711,85.204724 -2.13042,12.192012 h -2.75565 l -1.57465,-8.950072 -1.7136,8.950072 h -2.68618 l -2.22304,-12.192012 h 1.99147 l 1.5515,10.987863 1.94517,-9.436363 h 2.30409 l 1.84096,9.436363 1.5515,-10.987863 z"
         style="font-style:normal;font-variant:normal;font-weight:normal;font-stretch:normal;font-size:22.5778px;font-family:'Fira Code';-inkscape-font-specification:'Fira Code';stroke-width:0.264583"
         id="path1354" />
    </g>
    <g
       aria-label="f"
       id="text1794"
       style="font-style:normal;font-variant:normal;font-weight:normal;font-stretch:normal;font-size:22.5778px;line-height:1.25;font-family:'Fira Code';-inkscape-font-specification:'Fira Code';fill:#000000;fill-opacity:1;stroke:none;stroke-width:0.264583"
       transform="translate(0.534117,0.534107)">
      <path
         d="m 257.64708,125.78608 q 0.94942,0 1.74833,0.17368 0.79891,0.16209 1.5515,0.48629 l -0.62523,1.44729 q -1.13468,-0.50945 -2.61671,-0.50945 -2.55882,0 -2.55882,2.02622 v 2.47777 h 4.13348 l -0.20841,1.52834 h -3.92507 v 9.71424 h -1.94516 v -9.71424 h -2.90617 v -1.52834 h 2.90617 v -2.43146 q 0,-1.09994 0.57892,-1.93359 0.57891,-0.83364 1.58623,-1.28519 1.00732,-0.45156 2.28094,-0.45156 z"
         style="font-style:normal;font-variant:normal;font-weight:normal;font-stretch:normal;font-size:22.5778px;font-family:'Fira Code';-inkscape-font-specification:'Fira Code';stroke-width:0.264583"
         id="path1357" />
    </g>
    <path
       id="rect1009-7-5-3"
       style="fill:#000000;fill-opacity:0;stroke:#000000;stroke-width:1.06821;stroke-miterlimit:4;stroke-dasharray:none;stroke-opacity:1"
       d="m 185.76544,70.13924 h 30.68525 c 2.49362,0 4.50113,2.007503 4.50113,4.501128 V 105.3256 c 0,2.49362 -2.00751,4.50113 -4.50113,4.50113 h -30.68525 c -2.49362,0 -4.50113,-2.00751 -4.50113,-4.50113 V 74.640368 c 0,-2.493625 2.00751,-4.501128 4.50113,-4.501128 z" />
    <path
       id="rect1009-7-5-3-6"
       style="fill:#000000;fill-opacity:0;stroke:#000000;stroke-width:1.06821;stroke-miterlimit:4;stroke-dasharray:none;stroke-opacity:1"
       d="m 229.42169,70.13924 h 30.68525 c 2.49362,0 4.50113,2.007503 4.50113,4.501128 V 105.3256 c 0,2.49362 -2.00751,4.50113 -4.50113,4.50113 h -30.68525 c -2.49362,0 -4.50113,-2.00751 -4.50113,-4.50113 V 74.640368 c 0,-2.493625 2.00751,-4.501128 4.50113,-4.501128 z" />
    <path
       id="rect1009-7-5-3-6-7"
       style="fill:#000000;fill-opacity:0;stroke:#000000;stroke-width:1.06821;stroke-miterlimit:4;stroke-dasharray:none;stroke-opacity:1"
       d="m 273.07794,70.13924 h 30.68525 c 2.49362,0 4.50113,2.007503 4.50113,4.501128 V 105.3256 c 0,2.49362 -2.00751,4.50113 -4.50113,4.50113 h -30.68525 c -2.49362,0 -4.50113,-2.00751 -4.50113,-4.50113 V 74.640368 c 0,-2.493625 2.00751,-4.501128 4.50113,-4.501128 z" />
    <path
       id="rect1009-7-5-3-6-7-5"
       style="fill:#000000;fill-opacity:0;stroke:#000000;stroke-width:1.06821;stroke-miterlimit:4;stroke-dasharray:none;stroke-opacity:1"
       d="m 316.73419,70.13924 h 30.68525 c 2.49362,0 4.50113,2.007503 4.50113,4.501128 V 105.3256 c 0,2.49362 -2.00751,4.50113 -4.50113,4.50113 h -30.68525 c -2.49362,0 -4.50113,-2.00751 -4.50113,-4.50113 V 74.640368 c 0,-2.493625 2.00751,-4.501128 4.50113,-4.501128 z" />
    <path
       id="rect1009-7-5-3-6-7-5-3"
       style="fill:#000000;fill-opacity:0;stroke:#000000;stroke-width:1.06821;stroke-miterlimit:4;stroke-dasharray:none;stroke-opacity:1"
       d="m 360.39044,70.13924 h 30.68525 c 2.49362,0 4.50113,2.007503 4.50113,4.501128 V 105.3256 c 0,2.49362 -2.00751,4.50113 -4.50113,4.50113 h -30.68525 c -2.49362,0 -4.50113,-2.00751 -4.50113,-4.50113 V 74.640368 c 0,-2.493625 2.00751,-4.501128 4.50113,-4.501128 z" />
    <path
       id="rect1009-7-5-3-6-7-5-3-5"
       style="fill:#000000;fill-opacity:0;stroke:#000000;stroke-width:1.06821;stroke-miterlimit:4;stroke-dasharray:none;stroke-opacity:1"
       d="m 404.04669,70.13924 h 30.68525 c 2.49362,0 4.50113,2.007503 4.50113,4.501128 V 105.3256 c 0,2.49362 -2.00751,4.50113 -4.50113,4.50113 h -30.68525 c -2.49362,0 -4.50113,-2.00751 -4.50113,-4.50113 V 74.640368 c 0,-2.493625 2.00751,-4.501128 4.50113,-4.501128 z" />
    <path
       id="rect1009-7-5-3-6-7-5-3-5-6"
       style="fill:#000000;fill-opacity:0;stroke:#000000;stroke-width:1.06821;stroke-miterlimit:4;stroke-dasharray:none;stroke-opacity:1"
       d="m 447.70294,70.13924 h 30.68525 c 2.49362,0 4.50113,2.007503 4.50113,4.501128 V 105.3256 c 0,2.49362 -2.00751,4.50113 -4.50113,4.50113 h -30.68525 c -2.49362,0 -4.50113,-2.00751 -4.50113,-4.50113 V 74.640368 c 0,-2.493625 2.00751,-4.501128 4.50113,-4.501128 z" />
    <g
       aria-label="p"
       id="text216"
       style="font-style:normal;font-weight:normal;font-size:22.5778px;line-height:1.25;font-family:sans-serif;fill:#000000;fill-opacity:1;stroke:none;stroke-width:0.264583"
       transform="translate(0.534117,0.534107)">
      <path
         d="m 202.0586,84.73965 q 2.33882,0 3.3693,1.655705 1.04205,1.655706 1.04205,4.689236 0,1.887272 -0.52102,3.322989 -0.52103,1.424138 -1.58624,2.234623 -1.05363,0.810485 -2.59355,0.810485 -2.01464,0 -3.21879,-1.412559 v 5.812331 l -1.94516,0.24315 V 84.994374 h 1.6557 l 0.1621,1.702019 q 0.67155,-0.949426 1.59782,-1.447295 0.93784,-0.509448 2.03779,-0.509448 z m -0.46314,1.563078 q -0.93785,0 -1.7136,0.555762 -0.76417,0.555761 -1.33151,1.400981 v 6.043904 q 0.48629,0.717858 1.20415,1.1231 0.72944,0.405243 1.58624,0.405243 1.52834,0 2.28093,-1.169414 0.76418,-1.169415 0.76418,-3.589292 0,-2.408298 -0.68313,-3.589291 -0.68312,-1.180993 -2.10726,-1.180993 z"
         style="font-style:normal;font-variant:normal;font-weight:normal;font-stretch:normal;font-size:22.5778px;font-family:'Fira Code';-inkscape-font-specification:'Fira Code';stroke-width:0.264583"
         id="path1367" />
    </g>
    <g
       aria-label="b"
       id="text220"
       style="font-style:normal;font-weight:normal;font-size:22.5778px;line-height:1.25;font-family:sans-serif;fill:#000000;fill-opacity:1;stroke:none;stroke-width:0.264583"
       transform="translate(0.534117,0.534107)">
      <path
         d="m 242.2066,87.382145 q 0.68313,-0.891533 1.56308,-1.366246 0.87996,-0.474713 1.91043,-0.474713 2.36199,0 3.46193,1.678862 1.11152,1.667284 1.11152,4.666079 0,1.864116 -0.55576,3.311411 -0.55576,1.435717 -1.64413,2.246202 -1.08836,0.810485 -2.62828,0.810485 -1.06521,0 -1.88728,-0.370508 -0.82206,-0.382085 -1.43571,-1.157836 l -0.13894,1.262042 h -1.70202 V 80.886686 l 1.94516,-0.243146 z m 2.75565,9.297423 q 1.5515,0 2.36199,-1.192571 0.81048,-1.204149 0.81048,-3.612448 0,-2.373564 -0.72943,-3.566135 -0.72944,-1.204149 -2.142,-1.204149 -0.93785,0 -1.7136,0.555761 -0.77575,0.555761 -1.34309,1.400982 v 6.043903 q 0.48629,0.741015 1.20415,1.157836 0.72944,0.416821 1.5515,0.416821 z"
         style="font-style:normal;font-variant:normal;font-weight:normal;font-stretch:normal;font-size:22.5778px;font-family:'Fira Code';-inkscape-font-specification:'Fira Code';stroke-width:0.264583"
         id="path1370" />
    </g>
    <g
       aria-label="j"
       id="text224"
       style="font-style:normal;font-weight:normal;font-size:22.5778px;line-height:1.25;font-family:sans-serif;fill:#000000;fill-opacity:1;stroke:none;stroke-width:0.264583"
       transform="translate(0.534117,0.534107)">
      <path
         d="m 290.03738,78.0442 q 0.63681,0 1.03048,0.393664 0.40524,0.382086 0.40524,0.961004 0,0.602075 -0.40524,0.995739 -0.39367,0.393664 -1.03048,0.393664 -0.61365,0 -1.00731,-0.393664 -0.38209,-0.393664 -0.38209,-0.995739 0,-0.578918 0.38209,-0.961004 0.39366,-0.393664 1.00731,-0.393664 z m 1.81781,15.943401 q 0,2.952481 -1.96833,4.58503 -1.96832,1.644129 -5.80075,2.280939 l -0.3242,-1.505189 q 2.95248,-0.486291 4.5503,-1.702019 1.59781,-1.215727 1.59781,-3.531399 v -8.82271 h -5.07132 v -1.539922 h 7.01649 z"
         style="font-style:normal;font-variant:normal;font-weight:normal;font-stretch:normal;font-size:22.5778px;font-family:'Fira Code';-inkscape-font-specification:'Fira Code';stroke-width:0.264583"
         id="path1373" />
    </g>
    <g
       aria-label="l"
       id="text228"
       style="font-style:normal;font-weight:normal;font-size:22.5778px;line-height:1.25;font-family:sans-serif;fill:#000000;fill-opacity:1;stroke:none;stroke-width:0.264583"
       transform="translate(0.534117,0.534107)">
      <path
         d="m 333.25892,94.855975 q 0,0.856798 0.5326,1.262041 0.54418,0.393664 1.48203,0.393664 0.98416,0 2.04937,-0.428399 l 0.52103,1.424138 q -0.55576,0.277881 -1.29678,0.451556 -0.74101,0.173676 -1.59781,0.173676 -1.07679,0 -1.91043,-0.405243 -0.82206,-0.405243 -1.27362,-1.169414 -0.45156,-0.764172 -0.45156,-1.806224 V 82.305033 h -3.73981 v -1.539922 h 5.68498 z"
         style="font-style:normal;font-variant:normal;font-weight:normal;font-stretch:normal;font-size:22.5778px;font-family:'Fira Code';-inkscape-font-specification:'Fira Code';stroke-width:0.264583"
         id="path1376" />
    </g>
    <g
       aria-label="u"
       id="text232"
       style="font-style:normal;font-weight:normal;font-size:22.5778px;line-height:1.25;font-family:sans-serif;fill:#000000;fill-opacity:1;stroke:none;stroke-width:0.264583"
       transform="translate(0.534117,0.534107)">
      <path
         d="m 372.93419,93.549028 q 0,1.192571 0.48629,1.736754 0.49787,0.532604 1.56308,0.532604 0.961,0 1.86411,-0.555761 0.91469,-0.555761 1.43572,-1.377825 v -8.973228 h 1.94516 v 12.192012 h -1.6557 l -0.1621,-1.644127 q -0.70628,0.903112 -1.75991,1.41256 -1.04205,0.49787 -2.14199,0.49787 -1.74834,0 -2.63987,-0.926269 -0.87996,-0.937847 -0.87996,-2.663023 v -8.869023 h 1.94517 z"
         style="font-style:normal;font-variant:normal;font-weight:normal;font-stretch:normal;font-size:22.5778px;font-family:'Fira Code';-inkscape-font-specification:'Fira Code';stroke-width:0.264583"
         id="path1379" />
    </g>
    <g
       aria-label="y"
       id="text236"
       style="font-style:normal;font-weight:normal;font-size:22.5778px;line-height:1.25;font-family:sans-serif;fill:#000000;fill-opacity:1;stroke:none;stroke-width:0.264583"
       transform="translate(0.534117,0.534107)">
      <path
         d="m 420.09407,97.145868 q -0.47471,1.366246 -1.13468,2.361985 -0.64838,0.995737 -1.71359,1.644127 -1.05363,0.65997 -2.59356,0.81049 l -0.30103,-1.5515 q 1.2273,-0.20842 1.95674,-0.625236 0.74101,-0.416821 1.15784,-1.053631 0.41682,-0.63681 0.77575,-1.667284 h -0.64839 l -4.26084,-12.192012 h 2.08411 l 3.49666,10.709982 3.45035,-10.709982 h 2.01464 z"
         style="font-style:normal;font-variant:normal;font-weight:normal;font-stretch:normal;font-size:22.5778px;font-family:'Fira Code';-inkscape-font-specification:'Fira Code';stroke-width:0.264583"
         id="path1382" />
    </g>
    <g
       aria-label="q"
       id="text240"
       style="font-style:normal;font-weight:normal;font-size:22.5778px;line-height:1.25;font-family:sans-serif;fill:#000000;fill-opacity:1;stroke:none;stroke-width:0.264583"
       transform="translate(0.534117,0.534107)">
      <path
         d="m 68.30135,82.475802 q 2.141997,0 3.404038,1.586236 l 0.162097,-1.331512 h 1.655705 v 17.101237 l -1.945164,-0.243145 v -6.206001 q -0.648388,0.91469 -1.528343,1.366246 -0.879956,0.439978 -1.898851,0.439978 -2.361986,0 -3.427195,-1.655705 -1.065209,-1.655706 -1.065209,-4.689236 0,-1.852537 0.532605,-3.288254 0.544183,-1.447295 1.586235,-2.25778 1.053631,-0.822064 2.524082,-0.822064 z m 0.486291,1.563079 q -3.045108,0 -3.045108,4.805019 0,2.373564 0.694702,3.554556 0.706279,1.169415 2.118839,1.169415 0.949426,0 1.702019,-0.521026 0.764172,-0.521027 1.319933,-1.354669 V 85.601959 Q 71.103313,84.860944 70.373877,84.455702 69.64444,84.038881 68.787641,84.038881 Z"
         style="font-style:normal;font-variant:normal;font-weight:normal;font-stretch:normal;font-size:22.5778px;font-family:'Fira Code';-inkscape-font-specification:'Fira Code';stroke-width:0.264583"
         id="path1385" />
    </g>
    <path
       id="rect1009-2"
       style="fill:#000000;fill-opacity:0;stroke:#000000;stroke-width:1.06821;stroke-miterlimit:4;stroke-dasharray:none;stroke-opacity:1"
       d="m 66.702937,113.79548 h 30.685244 c 2.493624,0 4.501129,2.00751 4.501129,4.50113 v 30.68524 c 0,2.49362 -2.007505,4.50113 -4.501129,4.50113 H 66.702937 c -2.493626,0 -4.50113,-2.00751 -4.50113,-4.50113 v -30.68524 c 0,-2.49362 2.007504,-4.50113 4.50113,-4.50113 z" />
    <path
       id="rect1009-7-9"
       style="fill:#000000;fill-opacity:0;stroke:#000000;stroke-width:1.06821;stroke-miterlimit:4;stroke-dasharray:none;stroke-opacity:1"
       d="m 110.35919,113.79548 h 30.68524 c 2.49363,0 4.50113,2.00751 4.50113,4.50113 v 30.68524 c 0,2.49362 -2.0075,4.50113 -4.50113,4.50113 h -30.68524 c -2.49363,0 -4.50113,-2.00751 -4.50113,-4.50113 v -30.68524 c 0,-2.49362 2.0075,-4.50113 4.50113,-4.50113 z" />
    <path
       id="rect1009-7-5-1"
       style="fill:#000000;fill-opacity:0;stroke:#000000;stroke-width:1.06821;stroke-miterlimit:4;stroke-dasharray:none;stroke-opacity:1"
       d="m 154.01544,113.79548 h 30.68525 c 2.49362,0 4.50113,2.00751 4.50113,4.50113 v 30.68524 c 0,2.49362 -2.00751,4.50113 -4.50113,4.50113 h -30.68525 c -2.49362,0 -4.50113,-2.00751 -4.50113,-4.50113 v -30.68524 c 0,-2.49362 2.00751,-4.50113 4.50113,-4.50113 z" />
    <g
       aria-label="a"
       id="text1786-2"
       style="font-style:normal;font-weight:normal;font-size:22.5778px;line-height:1.25;font-family:sans-serif;fill:#000000;fill-opacity:1;stroke:none;stroke-width:0.264583"
       transform="translate(0.534117,0.534107)">
      <path
         d="m 129.25577,137.55484 q 0,0.71786 0.23157,1.06521 0.23157,0.33577 0.76417,0.49787 l -0.47471,1.36625 q -1.75991,-0.23157 -2.23462,-1.7136 -0.64839,0.84522 -1.64413,1.2852 -0.98416,0.4284 -2.17673,0.4284 -1.20415,0 -2.09569,-0.46314 -0.89153,-0.46313 -1.36624,-1.30835 -0.47471,-0.8568 -0.47471,-1.99148 0,-1.88727 1.47045,-2.89459 1.47045,-1.00732 4.24926,-1.00732 h 1.79464 v -1.01889 q 0,-1.27362 -0.74101,-1.84096 -0.74102,-0.57892 -2.16516,-0.57892 -1.37782,0 -3.17247,0.62523 l -0.50945,-1.47045 q 2.0378,-0.76417 3.98296,-0.76417 2.23462,0 3.39246,1.05363 1.16941,1.04205 1.16941,2.88301 z m -5.03658,1.4473 q 0.90311,0 1.71359,-0.45156 0.82207,-0.46313 1.36625,-1.27362 v -3.13773 h -1.75991 q -1.93359,0 -2.80196,0.65996 -0.86838,0.65997 -0.86838,1.89885 0,2.3041 2.35041,2.3041 z"
         style="font-style:normal;font-variant:normal;font-weight:normal;font-stretch:normal;font-size:22.5778px;font-family:'Fira Code';-inkscape-font-specification:'Fira Code';stroke-width:0.264583"
         id="path1391" />
    </g>
    <g
       aria-label="r"
       id="text1790-0"
       style="font-style:normal;font-weight:normal;font-size:22.5778px;line-height:1.25;font-family:sans-serif;fill:#000000;fill-opacity:1;stroke:none;stroke-width:0.264583"
       transform="translate(0.534117,0.534107)">
      <path
         d="m 85.316788,126.71622 q 0.474713,0 0.868377,0.0695 0.393664,0.0579 0.856798,0.19683 l -0.27788,4.12189 h -1.597814 v -2.59355 h -0.104205 q -1.41256,0 -2.408299,0.99574 -0.995739,0.99574 -1.609392,3.01037 v 5.16395 h 2.477769 v 1.49361 h -6.321784 v -1.49361 h 1.898851 v -9.20479 h -1.898851 v -1.49361 h 3.380881 l 0.358929,2.88301 q 0.741015,-1.58624 1.759911,-2.36199 1.030474,-0.78732 2.616709,-0.78732 z"
         style="font-style:normal;font-variant:normal;font-weight:normal;font-stretch:normal;font-size:22.5778px;font-family:'Fira Code';-inkscape-font-specification:'Fira Code';stroke-width:0.264583"
         id="path1394" />
    </g>
    <g
       aria-label="s"
       id="text1794-3"
       style="font-style:normal;font-variant:normal;font-weight:normal;font-stretch:normal;font-size:22.5778px;line-height:1.25;font-family:'Fira Code';-inkscape-font-specification:'Fira Code';fill:#000000;fill-opacity:1;stroke:none;stroke-width:0.264583"
       transform="translate(0.534117,0.534107)">
      <path
         d="m 169.12651,139.6557 q 1.40098,0 2.21146,-0.52102 0.82207,-0.52103 0.82207,-1.41256 0,-0.60208 -0.21999,-0.98416 -0.20841,-0.39367 -0.84522,-0.71786 -0.62523,-0.32419 -1.88727,-0.63681 -1.40098,-0.34735 -2.29252,-0.75259 -0.87995,-0.41682 -1.37782,-1.07679 -0.48629,-0.65997 -0.48629,-1.67886 0,-1.00732 0.57891,-1.75991 0.57892,-0.7526 1.62097,-1.15784 1.05363,-0.40524 2.43146,-0.40524 1.37782,0 2.47777,0.37051 1.11152,0.35892 1.94516,0.97258 l -0.8568,1.31993 q -0.76417,-0.52103 -1.60939,-0.79891 -0.83364,-0.28945 -1.93358,-0.28945 -1.37783,0 -2.01464,0.42839 -0.62523,0.41683 -0.62523,1.16942 0,0.54418 0.28946,0.89153 0.30104,0.34735 0.961,0.62523 0.67155,0.26631 1.99148,0.62524 1.31993,0.35892 2.16515,0.7989 0.84522,0.43998 1.31994,1.15784 0.47471,0.70628 0.47471,1.80622 0,1.23889 -0.71786,2.06095 -0.71786,0.81049 -1.88727,1.19257 -1.15784,0.38209 -2.53566,0.38209 -2.87143,0 -4.77029,-1.64413 l 1.11153,-1.2852 q 0.74101,0.62523 1.67886,0.97258 0.93785,0.34735 1.9799,0.34735 z"
         style="font-style:normal;font-variant:normal;font-weight:normal;font-stretch:normal;font-size:22.5778px;font-family:'Fira Code';-inkscape-font-specification:'Fira Code';stroke-width:0.264583"
         id="path1397" />
    </g>
    <path
       id="rect1009-7-5-3-0"
       style="fill:#000000;fill-opacity:0;stroke:#000000;stroke-width:1.06821;stroke-miterlimit:4;stroke-dasharray:none;stroke-opacity:1"
       d="m 197.67169,113.79548 h 30.68525 c 2.49362,0 4.50113,2.00751 4.50113,4.50113 v 30.68524 c 0,2.49362 -2.00751,4.50113 -4.50113,4.50113 h -30.68525 c -2.49362,0 -4.50113,-2.00751 -4.50113,-4.50113 v -30.68524 c 0,-2.49362 2.00751,-4.50113 4.50113,-4.50113 z" />
    <path
       id="rect1009-7-5-3-6-6"
       style="fill:#000000;fill-opacity:0;stroke:#000000;stroke-width:1.06821;stroke-miterlimit:4;stroke-dasharray:none;stroke-opacity:1"
       d="m 241.32794,113.79548 h 30.68525 c 2.49362,0 4.50113,2.00751 4.50113,4.50113 v 30.68524 c 0,2.49362 -2.00751,4.50113 -4.50113,4.50113 h -30.68525 c -2.49362,0 -4.50113,-2.00751 -4.50113,-4.50113 v -30.68524 c 0,-2.49362 2.00751,-4.50113 4.50113,-4.50113 z" />
    <path
       id="rect1009-7-5-3-6-7-2"
       style="fill:#000000;fill-opacity:0;stroke:#000000;stroke-width:1.06821;stroke-miterlimit:4;stroke-dasharray:none;stroke-opacity:1"
       d="m 284.98419,113.79548 h 30.68525 c 2.49362,0 4.50113,2.00751 4.50113,4.50113 v 30.68524 c 0,2.49362 -2.00751,4.50113 -4.50113,4.50113 h -30.68525 c -2.49362,0 -4.50113,-2.00751 -4.50113,-4.50113 v -30.68524 c 0,-2.49362 2.00751,-4.50113 4.50113,-4.50113 z" />
    <path
       id="rect1009-7-5-3-6-7-5-6"
       style="fill:#000000;fill-opacity:0;stroke:#000000;stroke-width:1.06821;stroke-miterlimit:4;stroke-dasharray:none;stroke-opacity:1"
       d="m 328.64044,113.79548 h 30.68525 c 2.49362,0 4.50113,2.00751 4.50113,4.50113 v 30.68524 c 0,2.49362 -2.00751,4.50113 -4.50113,4.50113 h -30.68525 c -2.49362,0 -4.50113,-2.00751 -4.50113,-4.50113 v -30.68524 c 0,-2.49362 2.00751,-4.50113 4.50113,-4.50113 z" />
    <path
       id="rect1009-7-5-3-6-7-5-3-1"
       style="fill:#000000;fill-opacity:0;stroke:#000000;stroke-width:1.06821;stroke-miterlimit:4;stroke-dasharray:none;stroke-opacity:1"
       d="m 372.29669,113.79548 h 30.68525 c 2.49362,0 4.50113,2.00751 4.50113,4.50113 v 30.68524 c 0,2.49362 -2.00751,4.50113 -4.50113,4.50113 h -30.68525 c -2.49362,0 -4.50113,-2.00751 -4.50113,-4.50113 v -30.68524 c 0,-2.49362 2.00751,-4.50113 4.50113,-4.50113 z" />
    <path
       id="rect1009-7-5-3-6-7-5-3-5-8"
       style="fill:#000000;fill-opacity:0;stroke:#000000;stroke-width:1.06821;stroke-miterlimit:4;stroke-dasharray:none;stroke-opacity:1"
       d="m 415.95294,113.79548 h 30.68525 c 2.49362,0 4.50113,2.00751 4.50113,4.50113 v 30.68524 c 0,2.49362 -2.00751,4.50113 -4.50113,4.50113 h -30.68525 c -2.49362,0 -4.50113,-2.00751 -4.50113,-4.50113 v -30.68524 c 0,-2.49362 2.00751,-4.50113 4.50113,-4.50113 z" />
    <path
       id="rect1009-7-5-3-6-7-5-3-5-6-7"
       style="fill:#000000;fill-opacity:0;stroke:#000000;stroke-width:1.06821;stroke-miterlimit:4;stroke-dasharray:none;stroke-opacity:1"
       d="m 459.60919,113.79548 h 30.68525 c 2.49362,0 4.50113,2.00751 4.50113,4.50113 v 30.68524 c 0,2.49362 -2.00751,4.50113 -4.50113,4.50113 h -30.68525 c -2.49362,0 -4.50113,-2.00751 -4.50113,-4.50113 v -30.68524 c 0,-2.49362 2.00751,-4.50113 4.50113,-4.50113 z" />
    <g
       aria-label="t"
       id="text216-9"
       style="font-style:normal;font-weight:normal;font-size:22.5778px;line-height:1.25;font-family:sans-serif;fill:#000000;fill-opacity:1;stroke:none;stroke-width:0.264583"
       transform="translate(0.534117,0.534107)">
      <path
         d="m 218.19096,140.22898 q -0.61365,0.40525 -1.51676,0.63681 -0.89154,0.24315 -1.74833,0.24315 -1.2852,0 -2.21147,-0.46314 -0.91469,-0.47471 -1.40098,-1.30835 -0.48629,-0.83364 -0.48629,-1.91043 v -7.27121 h -2.80197 v -1.50519 h 2.80197 v -2.76722 l 1.94516,-0.23157 v 2.99879 h 4.21452 l -0.23156,1.50519 h -3.98296 v 7.24805 q 0,1.04206 0.54418,1.56308 0.55576,0.52103 1.78307,0.52103 1.23889,0 2.33883,-0.57892 z"
         style="font-style:normal;font-variant:normal;font-weight:normal;font-stretch:normal;font-size:22.5778px;font-family:'Fira Code';-inkscape-font-specification:'Fira Code';stroke-width:0.264583"
         id="path1407" />
    </g>
    <g
       aria-label="g"
       id="text220-0"
       style="font-style:normal;font-weight:normal;font-size:22.5778px;line-height:1.25;font-family:sans-serif;fill:#000000;fill-opacity:1;stroke:none;stroke-width:0.264583"
       transform="translate(0.534117,0.534107)">
      <path
         d="m 163.72414,83.869683 q -0.71785,0.219989 -1.53992,0.289459 -0.81048,0.06947 -2.02621,0.06947 2.11884,0.972582 2.11884,3.068265 0,1.20415 -0.55576,2.153575 -0.54419,0.937847 -1.58624,1.470452 -1.03047,0.521026 -2.44303,0.521026 -0.60208,0 -1.0189,-0.04631 -0.40524,-0.05789 -0.7989,-0.185254 -0.27788,0.196832 -0.46314,0.521026 -0.17367,0.312616 -0.17367,0.659966 0,0.474713 0.3705,0.752594 0.37051,0.266302 1.26205,0.266302 h 2.19988 q 1.20415,0 2.18831,0.439978 0.99574,0.428399 1.5515,1.192571 0.56734,0.752593 0.56734,1.678862 0,1.794646 -1.51676,2.755649 -1.51677,0.961006 -4.30715,0.961006 -1.92201,0 -3.05669,-0.39367 -1.1231,-0.39366 -1.60939,-1.204145 -0.48629,-0.798907 -0.48629,-2.072527 h 1.75991 q 0,0.752594 0.27788,1.192571 0.28946,0.451556 1.0189,0.671545 0.74101,0.219989 2.0841,0.219989 1.99148,0 2.92932,-0.497869 0.93785,-0.49787 0.93785,-1.505187 0,-0.84522 -0.76417,-1.296776 -0.76417,-0.451556 -1.99148,-0.451556 h -2.17673 q -1.00732,0 -1.70202,-0.312616 -0.6947,-0.312616 -1.03047,-0.833642 -0.33577,-0.521026 -0.33577,-1.146258 0,-0.590496 0.34735,-1.146257 0.34735,-0.555761 0.99574,-0.984161 -1.05364,-0.555761 -1.5515,-1.377824 -0.49787,-0.822064 -0.49787,-1.991478 0,-1.215728 0.61365,-2.176732 0.62523,-0.972582 1.72517,-1.516765 1.11153,-0.544183 2.52409,-0.544183 1.47045,0 2.43145,-0.115783 0.96101,-0.127362 1.60939,-0.335773 0.65997,-0.20841 1.51677,-0.578918 z m -6.15968,0.625231 q -1.42414,0 -2.15358,0.764172 -0.71786,0.764172 -0.71786,2.04937 0,1.296776 0.72944,2.072526 0.74102,0.764172 2.18831,0.764172 1.27362,0 1.95674,-0.741015 0.6947,-0.752594 0.6947,-2.107262 0,-1.377824 -0.68312,-2.084104 -0.68312,-0.717859 -2.01463,-0.717859 z"
         style="font-style:normal;font-variant:normal;font-weight:normal;font-stretch:normal;font-size:22.5778px;font-family:'Fira Code';-inkscape-font-specification:'Fira Code';stroke-width:0.264583"
         id="path1410" />
    </g>
    <g
       aria-label="m"
       id="text224-3"
       style="font-style:normal;font-weight:normal;font-size:22.5778px;line-height:1.25;font-family:sans-serif;fill:#000000;fill-opacity:1;stroke:none;stroke-width:0.264583"
       transform="translate(0.534117,0.534107)">
      <path
         d="m 303.75786,128.57847 q 1.04206,0 1.70202,0.72944 0.65997,0.71786 0.65997,2.63986 v 9.07744 h -1.80622 v -8.76482 q 0,-0.86838 -0.0579,-1.29678 -0.0579,-0.43997 -0.25472,-0.64838 -0.19683,-0.21999 -0.62523,-0.21999 -1.19257,0 -2.13042,1.45887 v 9.4711 h -1.8178 v -8.76482 q 0,-0.86838 -0.0579,-1.29678 -0.0579,-0.43997 -0.25473,-0.64838 -0.19683,-0.21999 -0.62523,-0.21999 -1.19257,0 -2.13042,1.45887 v 9.4711 h -1.79464 V 128.8332 h 1.52834 l 0.11578,1.41255 q 0.55577,-0.7989 1.181,-1.2273 0.62523,-0.43998 1.47045,-0.43998 1.72517,0 2.21147,1.60939 0.54418,-0.78733 1.16941,-1.19257 0.63681,-0.41682 1.51676,-0.41682 z"
         style="font-style:normal;font-variant:normal;font-weight:normal;font-stretch:normal;font-size:22.5778px;font-family:'Fira Code';-inkscape-font-specification:'Fira Code';stroke-width:0.264583"
         id="path1413" />
    </g>
    <g
       aria-label="n"
       id="text228-5"
       style="font-style:normal;font-weight:normal;font-size:22.5778px;line-height:1.25;font-family:sans-serif;fill:#000000;fill-opacity:1;stroke:none;stroke-width:0.264583"
       transform="translate(0.534117,0.534107)">
      <path
         d="m 340.38493,141.1823 v -12.19202 h 1.6557 l 0.15052,1.69044 q 0.72944,-0.91469 1.82938,-1.42413 1.11153,-0.52103 2.19989,-0.52103 1.74833,0 2.58198,0.92627 0.84522,0.92627 0.84522,2.66302 v 8.85745 h -1.94517 v -7.42173 q 0,-1.36625 -0.15052,-2.08411 -0.13894,-0.71785 -0.59049,-1.06521 -0.43998,-0.34735 -1.34309,-0.34735 -0.98416,0 -1.86412,0.61366 -0.86838,0.60207 -1.42414,1.42414 v 8.8806 z"
         style="font-style:normal;font-variant:normal;font-weight:normal;font-stretch:normal;font-size:22.5778px;font-family:'Fira Code';-inkscape-font-specification:'Fira Code';stroke-width:0.264583"
         id="path1416" />
    </g>
    <g
       aria-label="e"
       id="text232-2"
       style="font-style:normal;font-weight:normal;font-size:22.5778px;line-height:1.25;font-family:sans-serif;fill:#000000;fill-opacity:1;stroke:none;stroke-width:0.264583"
       transform="translate(0.534117,0.534107)">
      <path
         d="m 384.42362,135.35273 q 0.0463,1.36625 0.5326,2.28094 0.48629,0.90311 1.27362,1.34309 0.78733,0.4284 1.75991,0.4284 0.90311,0 1.65571,-0.2663 0.76417,-0.26631 1.59781,-0.83365 l 0.91469,1.2852 q -0.8568,0.67155 -1.96832,1.05363 -1.09994,0.38209 -2.22304,0.38209 -1.74834,0 -3.01038,-0.78733 -1.26204,-0.78733 -1.92201,-2.22304 -0.64838,-1.43572 -0.64838,-3.33457 0,-1.84096 0.65996,-3.28826 0.65997,-1.44729 1.86412,-2.25778 1.20415,-0.82206 2.80196,-0.82206 1.52834,0 2.63987,0.71786 1.1231,0.71786 1.71359,2.07252 0.60208,1.34309 0.60208,3.18405 0,0.53261 -0.0463,1.06521 z m 3.31141,-5.44183 q -1.41256,0 -2.3041,0.99574 -0.87995,0.98416 -0.99573,2.94091 h 6.35651 q -0.0347,-1.92201 -0.84522,-2.92933 -0.81048,-1.00732 -2.21146,-1.00732 z"
         style="font-style:normal;font-variant:normal;font-weight:normal;font-stretch:normal;font-size:22.5778px;font-family:'Fira Code';-inkscape-font-specification:'Fira Code';stroke-width:0.264583"
         id="path1419" />
    </g>
    <g
       aria-label="i"
       id="text236-8"
       style="font-style:normal;font-weight:normal;font-size:22.5778px;line-height:1.25;font-family:sans-serif;fill:#000000;fill-opacity:1;stroke:none;stroke-width:0.264583"
       transform="translate(0.534117,0.534107)">
      <path
         d="m 430.76144,123.11434 q 0.63681,0 1.03047,0.39366 0.39367,0.38209 0.39367,0.96101 0,0.60207 -0.39367,0.99573 -0.39366,0.39367 -1.03047,0.39367 -0.61365,0 -1.00732,-0.39367 -0.39366,-0.40524 -0.39366,-0.99573 0,-0.57892 0.39366,-0.96101 0.39367,-0.39366 1.00732,-0.39366 z m -4.04085,5.70813 h 5.59235 v 10.65209 h 3.43877 v 1.53992 h -9.1469 v -1.53992 h 3.76296 v -9.11217 h -3.64718 z"
         style="font-style:normal;font-variant:normal;font-weight:normal;font-stretch:normal;font-size:22.5778px;font-family:'Fira Code';-inkscape-font-specification:'Fira Code';stroke-width:0.264583"
         id="path1422" />
    </g>
    <g
       aria-label="o"
       id="text240-7"
       style="font-style:normal;font-weight:normal;font-size:22.5778px;line-height:1.25;font-family:sans-serif;fill:#000000;fill-opacity:1;stroke:none;stroke-width:0.264583"
       transform="translate(0.534117,0.534107)">
      <path
         d="m 474.75347,128.3959 q 1.69044,0 2.85985,0.77575 1.16942,0.76417 1.75991,2.19989 0.60208,1.42414 0.60208,3.3693 0,1.88727 -0.61366,3.32299 -0.60207,1.43572 -1.78306,2.2462 -1.181,0.79891 -2.84828,0.79891 -1.69044,0 -2.87143,-0.77575 -1.16942,-0.78733 -1.77149,-2.21147 -0.60208,-1.42414 -0.60208,-3.35772 0,-1.89885 0.60208,-3.33457 0.61365,-1.43572 1.79464,-2.23462 1.19257,-0.79891 2.87144,-0.79891 z m 0,1.58624 q -1.58624,0 -2.38515,1.18099 -0.7989,1.16941 -0.7989,3.60087 0,2.39672 0.78733,3.57771 0.78733,1.16941 2.37356,1.16941 1.58624,0 2.37356,-1.16941 0.78733,-1.18099 0.78733,-3.60087 0,-2.4083 -0.78733,-3.57771 -0.78732,-1.18099 -2.3504,-1.18099 z"
         style="font-style:normal;font-variant:normal;font-weight:normal;font-stretch:normal;font-size:22.5778px;font-family:'Fira Code';-inkscape-font-specification:'Fira Code';stroke-width:0.264583"
         id="path1425" />
    </g>
    <path
       id="rect1009-2-6"
       style="fill:#000000;fill-opacity:0;stroke:#000000;stroke-width:1.06821;stroke-miterlimit:4;stroke-dasharray:none;stroke-opacity:1"
       d="M 89.448952,156.91763 H 120.1342 c 2.49362,0 4.50113,2.00751 4.50113,4.50113 V 192.104 c 0,2.49362 -2.00751,4.50113 -4.50113,4.50113 H 89.448952 c -2.493626,0 -4.50113,-2.00751 -4.50113,-4.50113 v -30.68524 c 0,-2.49362 2.007504,-4.50113 4.50113,-4.50113 z" />
    <path
       id="rect1009-7-9-1"
       style="fill:#000000;fill-opacity:0;stroke:#000000;stroke-width:1.06821;stroke-miterlimit:4;stroke-dasharray:none;stroke-opacity:1"
       d="m 133.1052,156.91763 h 30.68524 c 2.49363,0 4.50113,2.00751 4.50113,4.50113 V 192.104 c 0,2.49362 -2.0075,4.50113 -4.50113,4.50113 H 133.1052 c -2.49363,0 -4.50113,-2.00751 -4.50113,-4.50113 v -30.68524 c 0,-2.49362 2.0075,-4.50113 4.50113,-4.50113 z" />
    <path
       id="rect1009-7-5-1-2"
       style="fill:#000000;fill-opacity:0;stroke:#000000;stroke-width:1.06821;stroke-miterlimit:4;stroke-dasharray:none;stroke-opacity:1"
       d="m 176.76145,156.91763 h 30.68525 c 2.49362,0 4.50113,2.00751 4.50113,4.50113 V 192.104 c 0,2.49362 -2.00751,4.50113 -4.50113,4.50113 h -30.68525 c -2.49362,0 -4.50113,-2.00751 -4.50113,-4.50113 v -30.68524 c 0,-2.49362 2.00751,-4.50113 4.50113,-4.50113 z" />
    <g
       aria-label="x"
       id="text1786-2-9"
       style="font-style:normal;font-weight:normal;font-size:22.5778px;line-height:1.25;font-family:sans-serif;fill:#000000;fill-opacity:1;stroke:none;stroke-width:0.264583"
       transform="translate(11.373878,1.7e-5)">
      <path
         d="m 92.802446,179.28147 -3.380881,5.23342 H 87.19852 l 4.503982,-6.43757 -3.94822,-5.75444 h 2.304093 l 2.82512,4.53872 2.859855,-4.53872 h 2.223045 l -3.936643,5.6734 4.492404,6.51861 h -2.385142 z"
         style="font-style:normal;font-variant:normal;font-weight:normal;font-stretch:normal;font-size:22.5778px;font-family:'Fira Code';-inkscape-font-specification:'Fira Code';stroke-width:0.264583"
         id="path1431" />
    </g>
    <g
       aria-label="c"
       id="text1790-0-1"
       style="font-style:normal;font-weight:normal;font-size:22.5778px;line-height:1.25;font-family:sans-serif;fill:#000000;fill-opacity:1;stroke:none;stroke-width:0.264583"
       transform="translate(11.373878,1.7e-5)">
      <path
         d="m 137.67774,182.95631 q 1.63255,0 3.17247,-1.06521 l 0.94942,1.27362 q -0.7989,0.67154 -1.922,1.07678 -1.12311,0.39367 -2.19989,0.39367 -1.79465,0 -3.09143,-0.77575 -1.28519,-0.77575 -1.95674,-2.19989 -0.67154,-1.42414 -0.67154,-3.33457 0,-1.84096 0.68312,-3.28825 0.68312,-1.45887 1.9799,-2.28094 1.29678,-0.83364 3.07984,-0.83364 2.32725,0 4.07559,1.41256 l -0.94943,1.29678 q -1.57466,-1.08837 -3.14931,-1.08837 -1.07679,0 -1.88728,0.5326 -0.81048,0.53261 -1.27362,1.6094 -0.45155,1.07678 -0.45155,2.63986 0,2.33883 0.97258,3.48509 0.98416,1.14626 2.63987,1.14626 z"
         style="font-style:normal;font-variant:normal;font-weight:normal;font-stretch:normal;font-size:22.5778px;font-family:'Fira Code';-inkscape-font-specification:'Fira Code';stroke-width:0.264583"
         id="path1434" />
    </g>
    <g
       aria-label="d"
       id="text1794-3-4"
       style="font-style:normal;font-variant:normal;font-weight:normal;font-stretch:normal;font-size:22.5778px;line-height:1.25;font-family:'Fira Code';-inkscape-font-specification:'Fira Code';fill:#000000;fill-opacity:1;stroke:none;stroke-width:0.264583"
       transform="translate(11.373878,1.7e-5)">
      <path
         d="m 183.62281,167.21209 1.94516,0.24315 v 17.10123 h -1.70202 l -0.18525,-1.60939 q -0.67155,0.94943 -1.5515,1.41256 -0.87996,0.46314 -1.91043,0.46314 -2.31567,0 -3.48509,-1.70202 -1.15783,-1.70202 -1.15783,-4.64293 0,-1.84096 0.56734,-3.28825 0.57891,-1.44729 1.6557,-2.25778 1.08837,-0.82206 2.55882,-0.82206 1.04205,0 1.84096,0.35893 0.81048,0.35892 1.42414,1.07678 z m -2.75565,6.46072 q -1.53992,0 -2.36199,1.21573 -0.81048,1.20415 -0.81048,3.58929 0,2.36199 0.74101,3.56614 0.7526,1.20415 2.18831,1.20415 1.72518,0 2.9988,-1.92201 v -6.09022 q -0.49787,-0.74101 -1.21573,-1.14625 -0.70628,-0.41683 -1.53992,-0.41683 z"
         style="font-style:normal;font-variant:normal;font-weight:normal;font-stretch:normal;font-size:22.5778px;font-family:'Fira Code';-inkscape-font-specification:'Fira Code';stroke-width:0.264583"
         id="path1437" />
    </g>
    <path
       id="rect1009-7-5-3-0-8"
       style="fill:#000000;fill-opacity:0;stroke:#000000;stroke-width:1.06821;stroke-miterlimit:4;stroke-dasharray:none;stroke-opacity:1"
       d="m 220.4177,156.91763 h 30.68525 c 2.49362,0 4.50113,2.00751 4.50113,4.50113 V 192.104 c 0,2.49362 -2.00751,4.50113 -4.50113,4.50113 H 220.4177 c -2.49362,0 -4.50113,-2.00751 -4.50113,-4.50113 v -30.68524 c 0,-2.49362 2.00751,-4.50113 4.50113,-4.50113 z" />
    <path
       id="rect1009-7-5-3-6-6-4"
       style="fill:#000000;fill-opacity:0;stroke:#000000;stroke-width:1.06821;stroke-miterlimit:4;stroke-dasharray:none;stroke-opacity:1"
       d="m 45.792698,156.91764 h 30.68525 c 2.49362,0 4.50113,2.00751 4.50113,4.50113 v 30.68524 c 0,2.49362 -2.00751,4.50113 -4.50113,4.50113 h -30.68525 c -2.49362,0 -4.50113,-2.00751 -4.50113,-4.50113 v -30.68524 c 0,-2.49362 2.00751,-4.50113 4.50113,-4.50113 z" />
    <path
       id="rect1009-7-5-3-6-7-2-5"
       style="fill:#000000;fill-opacity:0;stroke:#000000;stroke-width:1.06821;stroke-miterlimit:4;stroke-dasharray:none;stroke-opacity:1"
       d="m 307.7302,156.91763 h 30.68525 c 2.49362,0 4.50113,2.00751 4.50113,4.50113 V 192.104 c 0,2.49362 -2.00751,4.50113 -4.50113,4.50113 H 307.7302 c -2.49362,0 -4.50113,-2.00751 -4.50113,-4.50113 v -30.68524 c 0,-2.49362 2.00751,-4.50113 4.50113,-4.50113 z" />
    <path
       id="rect1009-7-5-3-6-7-5-6-0"
       style="fill:#000000;fill-opacity:0;stroke:#000000;stroke-width:1.06821;stroke-miterlimit:4;stroke-dasharray:none;stroke-opacity:1"
       d="m 351.38645,156.91763 h 30.68525 c 2.49362,0 4.50113,2.00751 4.50113,4.50113 V 192.104 c 0,2.49362 -2.00751,4.50113 -4.50113,4.50113 h -30.68525 c -2.49362,0 -4.50113,-2.00751 -4.50113,-4.50113 v -30.68524 c 0,-2.49362 2.00751,-4.50113 4.50113,-4.50113 z" />
    <path
       id="rect1009-7-5-3-6-7-5-3-1-3"
       style="fill:#000000;fill-opacity:0;stroke:#000000;stroke-width:1.06821;stroke-miterlimit:4;stroke-dasharray:none;stroke-opacity:1"
       d="m 395.0427,156.91763 h 30.68525 c 2.49362,0 4.50113,2.00751 4.50113,4.50113 V 192.104 c 0,2.49362 -2.00751,4.50113 -4.50113,4.50113 H 395.0427 c -2.49362,0 -4.50113,-2.00751 -4.50113,-4.50113 v -30.68524 c 0,-2.49362 2.00751,-4.50113 4.50113,-4.50113 z" />
    <path
       id="rect1009-7-5-3-6-7-5-3-5-8-6"
       style="fill:#000000;fill-opacity:0;stroke:#000000;stroke-width:1.06821;stroke-miterlimit:4;stroke-dasharray:none;stroke-opacity:1"
       d="m 438.69895,156.91763 h 30.68525 c 2.49362,0 4.50113,2.00751 4.50113,4.50113 V 192.104 c 0,2.49362 -2.00751,4.50113 -4.50113,4.50113 h -30.68525 c -2.49362,0 -4.50113,-2.00751 -4.50113,-4.50113 v -30.68524 c 0,-2.49362 2.00751,-4.50113 4.50113,-4.50113 z" />
    <path
       id="rect1009-7-5-3-6-7-5-3-5-6-7-1"
       style="fill:#000000;fill-opacity:0;stroke:#000000;stroke-width:1.06821;stroke-miterlimit:4;stroke-dasharray:none;stroke-opacity:1"
       d="m 482.3552,156.91763 h 30.68525 c 2.49362,0 4.50113,2.00751 4.50113,4.50113 V 192.104 c 0,2.49362 -2.00751,4.50113 -4.50113,4.50113 H 482.3552 c -2.49362,0 -4.50113,-2.00751 -4.50113,-4.50113 v -30.68524 c 0,-2.49362 2.00751,-4.50113 4.50113,-4.50113 z" />
    <g
       aria-label="k"
       id="text216-9-0"
       style="font-style:normal;font-weight:normal;font-size:22.5778px;line-height:1.25;font-family:sans-serif;fill:#000000;fill-opacity:1;stroke:none;stroke-width:0.264583"
       transform="translate(11.373878,1.7e-5)">
      <path
         d="m 220.30582,167.50873 1.94517,-0.24314 v 17.34438 h -1.94517 z m 7.56067,4.90923 h 2.52408 l -5.48814,5.48814 6.12495,6.70387 h -2.55881 l -5.99759,-6.65756 z"
         style="font-style:normal;font-variant:normal;font-weight:normal;font-stretch:normal;font-size:22.5778px;font-family:'Fira Code';-inkscape-font-specification:'Fira Code';stroke-width:0.264583"
         id="path1447" />
    </g>
    <g
       aria-label="z"
       id="text220-0-3"
       style="font-style:normal;font-weight:normal;font-size:22.5778px;line-height:1.25;font-family:sans-serif;fill:#000000;fill-opacity:1;stroke:none;stroke-width:0.264583"
       transform="translate(-206.90738,2.7e-5)">
      <path
         d="m 273.18662,174.01303 -6.71545,9.03112 h 6.78492 l -0.25473,1.65571 h -8.91533 v -1.47045 l 6.76176,-9.03112 h -6.22916 v -1.69044 h 8.56799 z"
         style="font-style:normal;font-variant:normal;font-weight:normal;font-stretch:normal;font-size:22.5778px;font-family:'Fira Code';-inkscape-font-specification:'Fira Code';stroke-width:0.264583"
         id="path1450" />
    </g>
    <g
       aria-label="v"
       id="text224-3-0"
       style="font-style:normal;font-weight:normal;font-size:22.5778px;line-height:1.25;font-family:sans-serif;fill:#000000;fill-opacity:1;stroke:none;stroke-width:0.264583"
       transform="translate(11.373878,1.7e-5)">
      <path
         d="m 315.23177,172.47477 h 2.01464 l -4.43451,12.19201 h -2.25779 l -4.39977,-12.19201 h 2.06095 l 3.5314,10.42052 z"
         style="font-style:normal;font-variant:normal;font-weight:normal;font-stretch:normal;font-size:22.5778px;font-family:'Fira Code';-inkscape-font-specification:'Fira Code';stroke-width:0.264583"
         id="path1453" />
    </g>
    <g
       aria-label="h"
       id="text228-5-1"
       style="font-style:normal;font-weight:normal;font-size:22.5778px;line-height:1.25;font-family:sans-serif;fill:#000000;fill-opacity:1;stroke:none;stroke-width:0.264583"
       transform="translate(11.373878,1.7e-5)">
      <path
         d="m 354.26945,174.65412 q 0.70628,-0.92627 1.73676,-1.42414 1.04205,-0.49787 2.15357,-0.49787 1.74834,0 2.58198,0.92627 0.84522,0.92627 0.84522,2.66302 v 8.85745 h -1.94517 v -8.81113 q 0,-1.08837 -0.50944,-1.59782 -0.50945,-0.50944 -1.59782,-0.50944 -0.961,0 -1.84096,0.61365 -0.87995,0.60207 -1.42414,1.42414 v 8.8806 h -1.94516 v -17.07808 l 1.94516,-0.20841 z"
         style="font-style:normal;font-variant:normal;font-weight:normal;font-stretch:normal;font-size:22.5778px;font-family:'Fira Code';-inkscape-font-specification:'Fira Code';stroke-width:0.264583"
         id="path1456" />
    </g>
    <g
       aria-label="/"
       id="text232-2-5"
       style="font-style:normal;font-weight:normal;font-size:22.5778px;line-height:1.25;font-family:sans-serif;fill:#000000;fill-opacity:1;stroke:none;stroke-width:0.264583"
       transform="translate(11.373878,1.7e-5)">
      <path
         d="m 405.15258,166.43488 -9.88792,20.36634 -1.57466,-0.6947 9.91108,-20.43581 z"
         style="font-style:normal;font-variant:normal;font-weight:normal;font-stretch:normal;font-size:22.5778px;font-family:'Fira Code';-inkscape-font-specification:'Fira Code';stroke-width:0.264583"
         id="path1459" />
    </g>
    <g
       aria-label="."
       id="text236-8-7"
       style="font-style:normal;font-weight:normal;font-size:22.5778px;line-height:1.25;font-family:sans-serif;fill:#000000;fill-opacity:1;stroke:none;stroke-width:0.264583"
       transform="translate(11.373878,1.7e-5)">
      <path
         d="m 440.61832,182.59425 q 0,-0.55576 0.2663,-1.01889 0.2663,-0.46314 0.72944,-0.72944 0.46313,-0.27788 1.03047,-0.27788 0.57892,0 1.04205,0.27788 0.47472,0.2663 0.74102,0.72944 0.2663,0.46313 0.2663,1.01889 0,0.56734 -0.2663,1.04205 -0.2663,0.46314 -0.74102,0.74102 -0.46313,0.2663 -1.04205,0.2663 -0.56734,0 -1.03047,-0.2663 -0.46314,-0.27788 -0.72944,-0.74102 -0.2663,-0.47471 -0.2663,-1.04205 z"
         style="font-style:normal;font-variant:normal;font-weight:normal;font-stretch:normal;font-size:22.5778px;font-family:'Fira Code';-inkscape-font-specification:'Fira Code';stroke-width:0.264583"
         id="path1462" />
    </g>
    <g
       aria-label=","
       id="text240-7-5"
       style="font-style:normal;font-weight:normal;font-size:22.5778px;line-height:1.25;font-family:sans-serif;fill:#000000;fill-opacity:1;stroke:none;stroke-width:0.264583"
       transform="translate(11.373878,1.7e-5)">
      <path
         d="m 486.63656,180.68961 q 0.5326,0 0.961,0.25472 0.4284,0.24315 0.67155,0.67154 0.24314,0.41683 0.24314,0.92627 0,0.4284 -0.1042,0.8568 -0.10421,0.4284 -0.34735,0.96101 l -1.8757,4.29557 h -1.75991 l 1.11153,-4.57345 q -0.34735,-0.25473 -0.55577,-0.65997 -0.19683,-0.41682 -0.19683,-0.87996 0,-0.50944 0.24315,-0.92627 0.24314,-0.42839 0.65996,-0.67154 0.4284,-0.25472 0.94943,-0.25472 z"
         style="font-style:normal;font-variant:normal;font-weight:normal;font-stretch:normal;font-size:22.5778px;font-family:'Fira Code';-inkscape-font-specification:'Fira Code';stroke-width:0.264583"
         id="path1465" />
    </g>
    <path
       id="rect1009-2-6-7"
       style="fill:#000000;fill-opacity:0;stroke:#000000;stroke-width:1.06821;stroke-miterlimit:4;stroke-dasharray:none;stroke-opacity:1"
       d="m 152.94895,200.57388 h 300.56024 c 2.49363,0 4.50113,2.00751 4.50113,4.50113 v 30.68525 c 0,2.49362 -2.0075,4.50112 -4.50113,4.50112 H 152.94895 c -2.49362,0 -4.50113,-2.0075 -4.50113,-4.50112 v -30.68525 c 0,-2.49362 2.00751,-4.50113 4.50113,-4.50113 z" />
    <path
       id="rect1009-7-5-3-6-7-5-3-1-3-5"
       style="fill:#000000;fill-opacity:0;stroke:#000000;stroke-width:1.06821;stroke-miterlimit:4;stroke-dasharray:none;stroke-opacity:1"
       d="m 264.07395,156.91763 h 30.68525 c 2.49362,0 4.50113,2.00751 4.50113,4.50113 V 192.104 c 0,2.49362 -2.00751,4.50113 -4.50113,4.50113 h -30.68525 c -2.49362,0 -4.50113,-2.00751 -4.50113,-4.50113 v -30.68524 c 0,-2.49362 2.00751,-4.50113 4.50113,-4.50113 z" />
    <g
       aria-label="/"
       id="text232-2-5-6"
       style="font-style:normal;font-weight:normal;font-size:22.5778px;line-height:1.25;font-family:sans-serif;fill:#000000;fill-opacity:1;stroke:none;stroke-width:0.264583"
       transform="matrix(-1,0,0,1,679.24771,2.1e-5)">
      <path
         d="m 405.15258,166.43488 -9.88792,20.36634 -1.57466,-0.6947 9.91108,-20.43581 z"
         style="font-style:normal;font-variant:normal;font-weight:normal;font-stretch:normal;font-size:22.5778px;font-family:'Fira Code';-inkscape-font-specification:'Fira Code';stroke-width:0.264583"
         id="path1459-2" />
    </g>
  </g>
</svg>
