<?xml version="1.0" encoding="UTF-8" standalone="no"?>
<svg
   xmlns:dc="http://purl.org/dc/elements/1.1/"
   xmlns:cc="http://creativecommons.org/ns#"
   xmlns:rdf="http://www.w3.org/1999/02/22-rdf-syntax-ns#"
   xmlns:svg="http://www.w3.org/2000/svg"
   xmlns="http://www.w3.org/2000/svg"
   xmlns:sodipodi="http://sodipodi.sourceforge.net/DTD/sodipodi-0.dtd"
   xmlns:inkscape="http://www.inkscape.org/namespaces/inkscape"
   width="1749.0374"
   height="669.03735"
   viewBox="0 0 462.76613 177.01614"
   version="1.1"
   id="svg1007"
   inkscape:version="1.0.2 (e86c870879, 2021-01-15, custom)"
   sodipodi:docname="colemaq-f.svg">
  <defs
     id="defs1001" />
  <sodipodi:namedview
     id="base"
     pagecolor="#ffffff"
     bordercolor="#666666"
     borderopacity="1.0"
     inkscape:pageopacity="0.0"
     inkscape:pageshadow="2"
     inkscape:zoom="0.5"
     inkscape:cx="1102.3277"
     inkscape:cy="459.4069"
     inkscape:document-units="px"
     inkscape:current-layer="layer1"
     inkscape:document-rotation="0"
     showgrid="true"
     units="px"
     showguides="true"
     inkscape:guide-bbox="true"
     objecttolerance="20"
     guidetolerance="10"
     inkscape:snap-bbox="true"
     inkscape:bbox-nodes="false"
     inkscape:snap-bbox-edge-midpoints="false"
     inkscape:snap-bbox-midpoints="false"
     inkscape:window-width="1600"
     inkscape:window-height="818"
     inkscape:window-x="0"
     inkscape:window-y="40"
     inkscape:window-maximized="1"
     inkscape:bbox-paths="true"
     fit-margin-top="10"
     fit-margin-left="10"
     fit-margin-right="10"
     fit-margin-bottom="10"
     lock-margins="true">
    <inkscape:grid
       type="xygrid"
       id="grid1742"
       spacingx="3.96875"
       spacingy="3.96875"
       empspacing="0"
       originx="-100.00756"
       originy="-139.69507" />
  </sodipodi:namedview>
  <metadata
     id="metadata1004">
    <rdf:RDF>
      <cc:Work
         rdf:about="">
        <dc:format>image/svg+xml</dc:format>
        <dc:type
           rdf:resource="http://purl.org/dc/dcmitype/StillImage" />
        <dc:title></dc:title>
      </cc:Work>
    </rdf:RDF>
  </metadata>
  <g
     inkscape:label="Layer 1"
     inkscape:groupmode="layer"
     id="layer1"
     transform="translate(-48.947915,-68.791658)">
    <path
       id="rect1009"
       style="fill:#000000;fill-opacity:0;stroke:#000000;stroke-width:1.06821;stroke-miterlimit:4;stroke-dasharray:none;stroke-opacity:1"
       d="m 56.628983,71.971596 h 30.685245 c 2.493625,0 4.501129,2.007503 4.501129,4.501127 v 30.685237 c 0,2.49363 -2.007504,4.50113 -4.501129,4.50113 H 56.628983 c -2.493626,0 -4.50113,-2.0075 -4.50113,-4.50113 V 76.472723 c 0,-2.493624 2.007504,-4.501127 4.50113,-4.501127 z" />
    <path
       id="rect1009-7"
       style="fill:#000000;fill-opacity:0;stroke:#000000;stroke-width:1.06821;stroke-miterlimit:4;stroke-dasharray:none;stroke-opacity:1"
       d="m 100.28523,71.971596 h 30.68525 c 2.49362,0 4.50113,2.007503 4.50113,4.501127 v 30.685237 c 0,2.49363 -2.00751,4.50113 -4.50113,4.50113 h -30.68525 c -2.493623,0 -4.501127,-2.0075 -4.501127,-4.50113 V 76.472723 c 0,-2.493624 2.007504,-4.501127 4.501127,-4.501127 z" />
    <path
       id="rect1009-7-5"
       style="fill:#000000;fill-opacity:0;stroke:#000000;stroke-width:1.06821;stroke-miterlimit:4;stroke-dasharray:none;stroke-opacity:1"
       d="m 143.94148,71.971596 h 30.68525 c 2.49362,0 4.50113,2.007503 4.50113,4.501127 v 30.685237 c 0,2.49363 -2.00751,4.50113 -4.50113,4.50113 h -30.68525 c -2.49362,0 -4.50113,-2.0075 -4.50113,-4.50113 V 76.472723 c 0,-2.493624 2.00751,-4.501127 4.50113,-4.501127 z" />
    <g
       aria-label=";"
       id="text1786"
       style="font-style:normal;font-weight:normal;font-size:22.5778px;line-height:1.25;font-family:sans-serif;fill:#000000;fill-opacity:1;stroke:none;stroke-width:0.264583">
      <path
         d="m 72.133698,83.814698 q 0.532604,0 0.961004,0.254724 0.428399,0.243146 0.671544,0.671545 0.254724,0.428399 0.254724,0.937847 0,0.509448 -0.254724,0.949425 -0.243145,0.4284 -0.671544,0.683124 -0.4284,0.254724 -0.961004,0.254724 -0.521026,0 -0.949426,-0.254724 -0.416821,-0.254724 -0.671545,-0.683124 -0.243145,-0.439977 -0.243145,-0.949425 0,-0.509448 0.243145,-0.937847 0.254724,-0.428399 0.671545,-0.671545 0.4284,-0.254724 0.949426,-0.254724 z m 0,8.000646 q 0.532604,0 0.961004,0.254724 0.428399,0.243146 0.671544,0.671545 0.254724,0.416821 0.254724,0.926269 0,0.451556 -0.104205,0.879955 -0.104205,0.4284 -0.358929,0.961004 l -1.875694,4.30715 h -1.759911 l 1.111523,-4.596609 q -0.35893,-0.243145 -0.56734,-0.648388 -0.196832,-0.416821 -0.196832,-0.891534 0,-0.509448 0.243145,-0.937847 0.254724,-0.428399 0.671545,-0.671545 0.4284,-0.254724 0.949426,-0.254724 z"
         style="font-style:normal;font-variant:normal;font-weight:normal;font-stretch:normal;font-size:22.5778px;font-family:'Fira Code';-inkscape-font-specification:'Fira Code';stroke-width:0.264583"
         id="path788" />
    </g>
    <g
       aria-label="w"
       id="text1790"
       style="font-style:normal;font-weight:normal;font-size:22.5778px;line-height:1.25;font-family:sans-serif;fill:#000000;fill-opacity:1;stroke:none;stroke-width:0.264583">
      <path
         d="m 122.16964,87.846585 -2.13042,12.192015 h -2.75565 l -1.57466,-8.950075 -1.7136,8.950075 h -2.68618 l -2.22304,-12.192015 h 1.99148 l 1.5515,10.987863 1.94516,-9.436363 h 2.3041 l 1.84095,9.436363 1.5515,-10.987863 z"
         style="font-style:normal;font-variant:normal;font-weight:normal;font-stretch:normal;font-size:22.5778px;font-family:'Fira Code';-inkscape-font-specification:'Fira Code';stroke-width:0.264583"
         id="path791" />
    </g>
    <g
       aria-label="f"
       id="text1794"
       style="font-style:normal;font-variant:normal;font-weight:normal;font-stretch:normal;font-size:22.5778px;line-height:1.25;font-family:'Fira Code';-inkscape-font-specification:'Fira Code';fill:#000000;fill-opacity:1;stroke:none;stroke-width:0.264583">
      <path
         d="m 162.7572,83.04503 q 0.94943,0 1.74833,0.173675 0.79891,0.162097 1.5515,0.486291 l -0.62523,1.447295 q -1.13468,-0.509448 -2.61671,-0.509448 -2.55882,0 -2.55882,2.026213 v 2.477769 h 4.13348 l -0.20841,1.528343 h -3.92507 v 9.714242 h -1.94516 v -9.714242 h -2.90617 v -1.528343 h 2.90617 V 86.71537 q 0,-1.099945 0.57892,-1.933586 0.57892,-0.833642 1.58623,-1.285198 1.00732,-0.451556 2.28094,-0.451556 z"
         style="font-style:normal;font-variant:normal;font-weight:normal;font-stretch:normal;font-size:22.5778px;font-family:'Fira Code';-inkscape-font-specification:'Fira Code';stroke-width:0.264583"
         id="path794" />
    </g>
    <path
       id="rect1009-7-5-3"
       style="fill:#000000;fill-opacity:0;stroke:#000000;stroke-width:1.06821;stroke-miterlimit:4;stroke-dasharray:none;stroke-opacity:1"
       d="m 187.59773,71.971596 h 30.68525 c 2.49362,0 4.50113,2.007503 4.50113,4.501127 v 30.685237 c 0,2.49363 -2.00751,4.50113 -4.50113,4.50113 h -30.68525 c -2.49362,0 -4.50113,-2.0075 -4.50113,-4.50113 V 76.472723 c 0,-2.493624 2.00751,-4.501127 4.50113,-4.501127 z" />
    <path
       id="rect1009-7-5-3-6"
       style="fill:#000000;fill-opacity:0;stroke:#000000;stroke-width:1.06821;stroke-miterlimit:4;stroke-dasharray:none;stroke-opacity:1"
       d="m 231.25398,71.971596 h 30.68525 c 2.49362,0 4.50113,2.007503 4.50113,4.501127 v 30.685237 c 0,2.49363 -2.00751,4.50113 -4.50113,4.50113 h -30.68525 c -2.49362,0 -4.50113,-2.0075 -4.50113,-4.50113 V 76.472723 c 0,-2.493624 2.00751,-4.501127 4.50113,-4.501127 z" />
    <path
       id="rect1009-7-5-3-6-7"
       style="fill:#000000;fill-opacity:0;stroke:#000000;stroke-width:1.06821;stroke-miterlimit:4;stroke-dasharray:none;stroke-opacity:1"
       d="m 274.91025,71.971596 h 30.68524 c 2.49363,0 4.50113,2.007503 4.50113,4.501127 v 30.685237 c 0,2.49363 -2.0075,4.50113 -4.50113,4.50113 h -30.68524 c -2.49363,0 -4.50113,-2.0075 -4.50113,-4.50113 V 76.472723 c 0,-2.493624 2.0075,-4.501127 4.50113,-4.501127 z" />
    <path
       id="rect1009-7-5-3-6-7-5"
       style="fill:#000000;fill-opacity:0;stroke:#000000;stroke-width:1.06821;stroke-miterlimit:4;stroke-dasharray:none;stroke-opacity:1"
       d="m 318.5665,71.971596 h 30.68524 c 2.49363,0 4.50113,2.007503 4.50113,4.501127 v 30.685237 c 0,2.49363 -2.0075,4.50113 -4.50113,4.50113 H 318.5665 c -2.49363,0 -4.50113,-2.0075 -4.50113,-4.50113 V 76.472723 c 0,-2.493624 2.0075,-4.501127 4.50113,-4.501127 z" />
    <path
       id="rect1009-7-5-3-6-7-5-3"
       style="fill:#000000;fill-opacity:0;stroke:#000000;stroke-width:1.06821;stroke-miterlimit:4;stroke-dasharray:none;stroke-opacity:1"
       d="m 362.22275,71.971596 h 30.68524 c 2.49363,0 4.50113,2.007503 4.50113,4.501127 v 30.685237 c 0,2.49363 -2.0075,4.50113 -4.50113,4.50113 h -30.68524 c -2.49363,0 -4.50113,-2.0075 -4.50113,-4.50113 V 76.472723 c 0,-2.493624 2.0075,-4.501127 4.50113,-4.501127 z" />
    <path
       id="rect1009-7-5-3-6-7-5-3-5"
       style="fill:#000000;fill-opacity:0;stroke:#000000;stroke-width:1.06821;stroke-miterlimit:4;stroke-dasharray:none;stroke-opacity:1"
       d="m 405.879,71.971596 h 30.68524 c 2.49363,0 4.50113,2.007503 4.50113,4.501127 v 30.685237 c 0,2.49363 -2.0075,4.50113 -4.50113,4.50113 H 405.879 c -2.49363,0 -4.50113,-2.0075 -4.50113,-4.50113 V 76.472723 c 0,-2.493624 2.0075,-4.501127 4.50113,-4.501127 z" />
    <path
       id="rect1009-7-5-3-6-7-5-3-5-6"
       style="fill:#000000;fill-opacity:0;stroke:#000000;stroke-width:1.06821;stroke-miterlimit:4;stroke-dasharray:none;stroke-opacity:1"
       d="m 449.53525,71.971596 h 30.68524 c 2.49363,0 4.50113,2.007503 4.50113,4.501127 v 30.685237 c 0,2.49363 -2.0075,4.50113 -4.50113,4.50113 h -30.68524 c -2.49363,0 -4.50113,-2.0075 -4.50113,-4.50113 V 76.472723 c 0,-2.493624 2.0075,-4.501127 4.50113,-4.501127 z" />
    <g
       aria-label="p"
       id="text216"
       style="font-style:normal;font-weight:normal;font-size:22.5778px;line-height:1.25;font-family:sans-serif;fill:#000000;fill-opacity:1;stroke:none;stroke-width:0.264583">
      <path
         d="m 204.42501,87.106113 q 2.33882,0 3.3693,1.655705 1.04205,1.655705 1.04205,4.689235 0,1.887273 -0.52103,3.32299 -0.52102,1.424138 -1.58623,2.234623 -1.05363,0.810485 -2.59355,0.810485 -2.01464,0 -3.21879,-1.41256 v 5.812339 l -1.94516,0.24314 V 87.360836 h 1.6557 l 0.1621,1.702019 q 0.67155,-0.949425 1.59781,-1.447295 0.93785,-0.509447 2.0378,-0.509447 z m -0.46314,1.563078 q -0.93785,0 -1.7136,0.555761 -0.76417,0.555762 -1.33151,1.400982 v 6.043903 q 0.48629,0.717859 1.20415,1.123101 0.72944,0.405243 1.58624,0.405243 1.52834,0 2.28093,-1.169415 0.76418,-1.169414 0.76418,-3.589291 0,-2.408299 -0.68313,-3.589291 -0.68312,-1.180993 -2.10726,-1.180993 z"
         style="font-style:normal;font-variant:normal;font-weight:normal;font-stretch:normal;font-size:22.5778px;font-family:'Fira Code';-inkscape-font-specification:'Fira Code';stroke-width:0.264583"
         id="path804" />
    </g>
    <g
       aria-label="b"
       id="text220"
       style="font-style:normal;font-weight:normal;font-size:22.5778px;line-height:1.25;font-family:sans-serif;fill:#000000;fill-opacity:1;stroke:none;stroke-width:0.264583">
      <path
         d="m 244.57301,89.748616 q 0.68313,-0.891534 1.56308,-1.366247 0.87996,-0.474712 1.91043,-0.474712 2.36199,0 3.46193,1.678862 1.11152,1.667284 1.11152,4.666079 0,1.864115 -0.55576,3.31141 -0.55576,1.435717 -1.64413,2.246202 -1.08836,0.81049 -2.62828,0.81049 -1.06521,0 -1.88728,-0.37051 -0.82206,-0.382088 -1.43571,-1.157838 l -0.13894,1.262038 h -1.70202 V 83.253156 l 1.94516,-0.243145 z m 2.75565,9.297422 q 1.5515,0 2.36199,-1.192571 0.81048,-1.204149 0.81048,-3.612448 0,-2.373563 -0.72943,-3.566134 -0.72944,-1.20415 -2.142,-1.20415 -0.93785,0 -1.7136,0.555761 -0.77575,0.555762 -1.34309,1.400982 v 6.043904 q 0.48629,0.741015 1.20415,1.157835 0.72944,0.416821 1.5515,0.416821 z"
         style="font-style:normal;font-variant:normal;font-weight:normal;font-stretch:normal;font-size:22.5778px;font-family:'Fira Code';-inkscape-font-specification:'Fira Code';stroke-width:0.264583"
         id="path807" />
    </g>
    <g
       aria-label="j"
       id="text224"
       style="font-style:normal;font-weight:normal;font-size:22.5778px;line-height:1.25;font-family:sans-serif;fill:#000000;fill-opacity:1;stroke:none;stroke-width:0.264583">
      <path
         d="m 292.40381,80.410663 q 0.63681,0 1.03047,0.393664 0.40524,0.382086 0.40524,0.961004 0,0.602074 -0.40524,0.995739 -0.39366,0.393664 -1.03047,0.393664 -0.61366,0 -1.00732,-0.393664 -0.38209,-0.393665 -0.38209,-0.995739 0,-0.578918 0.38209,-0.961004 0.39366,-0.393664 1.00732,-0.393664 z m 1.8178,15.943401 q 0,2.952481 -1.96832,4.585026 -1.96832,1.64413 -5.80076,2.28094 l -0.32419,-1.50519 q 2.95248,-0.48629 4.55029,-1.70201 1.59782,-1.215733 1.59782,-3.531405 v -8.822709 h -5.07133 v -1.539922 h 7.01649 z"
         style="font-style:normal;font-variant:normal;font-weight:normal;font-stretch:normal;font-size:22.5778px;font-family:'Fira Code';-inkscape-font-specification:'Fira Code';stroke-width:0.264583"
         id="path810" />
    </g>
    <g
       aria-label="l"
       id="text228"
       style="font-style:normal;font-weight:normal;font-size:22.5778px;line-height:1.25;font-family:sans-serif;fill:#000000;fill-opacity:1;stroke:none;stroke-width:0.264583">
      <path
         d="m 335.62534,97.222438 q 0,0.856798 0.53261,1.262041 0.54418,0.393664 1.48203,0.393664 0.98416,0 2.04937,-0.428399 l 0.52102,1.424138 q -0.55576,0.277878 -1.29677,0.451558 -0.74102,0.17367 -1.59782,0.17367 -1.07679,0 -1.91043,-0.40524 -0.82206,-0.405242 -1.27362,-1.169414 -0.45155,-0.764171 -0.45155,-1.806224 V 84.671496 h -3.73981 v -1.539922 h 5.68497 z"
         style="font-style:normal;font-variant:normal;font-weight:normal;font-stretch:normal;font-size:22.5778px;font-family:'Fira Code';-inkscape-font-specification:'Fira Code';stroke-width:0.264583"
         id="path813" />
    </g>
    <g
       aria-label="u"
       id="text232"
       style="font-style:normal;font-weight:normal;font-size:22.5778px;line-height:1.25;font-family:sans-serif;fill:#000000;fill-opacity:1;stroke:none;stroke-width:0.264583">
      <path
         d="m 375.30061,95.915491 q 0,1.192571 0.48629,1.736754 0.49787,0.532604 1.56308,0.532604 0.96101,0 1.86412,-0.555761 0.91469,-0.555761 1.43571,-1.377825 v -8.973228 h 1.94517 v 12.192012 h -1.65571 l -0.16209,-1.644127 q -0.70628,0.903112 -1.75991,1.41256 -1.04206,0.497869 -2.142,0.497869 -1.74833,0 -2.63987,-0.926268 -0.87995,-0.937848 -0.87995,-2.663023 v -8.869023 h 1.94516 z"
         style="font-style:normal;font-variant:normal;font-weight:normal;font-stretch:normal;font-size:22.5778px;font-family:'Fira Code';-inkscape-font-specification:'Fira Code';stroke-width:0.264583"
         id="path816" />
    </g>
    <g
       aria-label="y"
       id="text236"
       style="font-style:normal;font-weight:normal;font-size:22.5778px;line-height:1.25;font-family:sans-serif;fill:#000000;fill-opacity:1;stroke:none;stroke-width:0.264583">
      <path
         d="m 422.4605,99.512331 q -0.47472,1.366249 -1.13468,2.361989 -0.64839,0.99573 -1.7136,1.64412 -1.05363,0.65997 -2.59355,0.81049 l -0.30104,-1.5515 q 1.22731,-0.20841 1.95674,-0.62523 0.74102,-0.41682 1.15784,-1.05363 0.41682,-0.63681 0.77575,-1.667288 h -0.64839 L 415.69874,87.23927 h 2.0841 l 3.49666,10.709982 3.45036,-10.709982 h 2.01463 z"
         style="font-style:normal;font-variant:normal;font-weight:normal;font-stretch:normal;font-size:22.5778px;font-family:'Fira Code';-inkscape-font-specification:'Fira Code';stroke-width:0.264583"
         id="path819" />
    </g>
    <g
       aria-label="q"
       id="text240"
       style="font-style:normal;font-weight:normal;font-size:22.5778px;line-height:1.25;font-family:sans-serif;fill:#000000;fill-opacity:1;stroke:none;stroke-width:0.264583">
      <path
         d="m 464.58841,87.106113 q 2.142,0 3.40404,1.586235 l 0.16209,-1.331512 h 1.65571 v 17.101234 l -1.94516,-0.24314 v -6.206003 q -0.64839,0.91469 -1.52835,1.366246 -0.87995,0.439978 -1.89885,0.439978 -2.36198,0 -3.42719,-1.655705 -1.06521,-1.655706 -1.06521,-4.689236 0,-1.852537 0.5326,-3.288254 0.54419,-1.447295 1.58624,-2.25778 1.05363,-0.822063 2.52408,-0.822063 z m 0.48629,1.563078 q -3.04511,0 -3.04511,4.805019 0,2.373564 0.6947,3.554556 0.70628,1.169415 2.11884,1.169415 0.94943,0 1.70202,-0.521026 0.76417,-0.521027 1.31994,-1.354668 V 90.23227 q -0.47472,-0.741015 -1.20415,-1.146258 -0.72944,-0.416821 -1.58624,-0.416821 z"
         style="font-style:normal;font-variant:normal;font-weight:normal;font-stretch:normal;font-size:22.5778px;font-family:'Fira Code';-inkscape-font-specification:'Fira Code';stroke-width:0.264583"
         id="path822" />
    </g>
    <path
       id="rect1009-2"
       style="fill:#000000;fill-opacity:0;stroke:#000000;stroke-width:1.06821;stroke-miterlimit:4;stroke-dasharray:none;stroke-opacity:1"
       d="m 68.535233,115.62785 h 30.685245 c 2.493622,0 4.501132,2.00751 4.501132,4.50113 v 30.68524 c 0,2.49362 -2.00751,4.50113 -4.501132,4.50113 H 68.535233 c -2.493626,0 -4.50113,-2.00751 -4.50113,-4.50113 v -30.68524 c 0,-2.49362 2.007504,-4.50113 4.50113,-4.50113 z" />
    <path
       id="rect1009-7-9"
       style="fill:#000000;fill-opacity:0;stroke:#000000;stroke-width:1.06821;stroke-miterlimit:4;stroke-dasharray:none;stroke-opacity:1"
       d="m 112.19148,115.62785 h 30.68525 c 2.49362,0 4.50113,2.00751 4.50113,4.50113 v 30.68524 c 0,2.49362 -2.00751,4.50113 -4.50113,4.50113 h -30.68525 c -2.49362,0 -4.50113,-2.00751 -4.50113,-4.50113 v -30.68524 c 0,-2.49362 2.00751,-4.50113 4.50113,-4.50113 z" />
    <path
       id="rect1009-7-5-1"
       style="fill:#000000;fill-opacity:0;stroke:#000000;stroke-width:1.06821;stroke-miterlimit:4;stroke-dasharray:none;stroke-opacity:1"
       d="m 155.84773,115.62785 h 30.68525 c 2.49362,0 4.50113,2.00751 4.50113,4.50113 v 30.68524 c 0,2.49362 -2.00751,4.50113 -4.50113,4.50113 h -30.68525 c -2.49362,0 -4.50113,-2.00751 -4.50113,-4.50113 v -30.68524 c 0,-2.49362 2.00751,-4.50113 4.50113,-4.50113 z" />
    <g
       aria-label="a"
       id="text1786-2"
       style="font-style:normal;font-weight:normal;font-size:22.5778px;line-height:1.25;font-family:sans-serif;fill:#000000;fill-opacity:1;stroke:none;stroke-width:0.264583">
      <path
         d="m 88.254942,140.48235 q 0,0.71786 0.231567,1.06521 0.231568,0.33577 0.764172,0.49787 l -0.474713,1.36624 q -1.75991,-0.23156 -2.234623,-1.71359 -0.648388,0.84522 -1.644127,1.28519 -0.984161,0.4284 -2.176732,0.4284 -1.204149,0 -2.095683,-0.46313 -0.891533,-0.46314 -1.366246,-1.30836 -0.474713,-0.85679 -0.474713,-1.99147 0,-1.88728 1.470452,-2.89459 1.470451,-1.00732 4.249258,-1.00732 h 1.794645 v -1.0189 q 0,-1.27362 -0.741015,-1.84096 -0.741015,-0.57891 -2.165153,-0.57891 -1.377825,0 -3.17247,0.62523 l -0.509448,-1.47045 q 2.037791,-0.76418 3.982956,-0.76418 2.234623,0 3.392459,1.05363 1.169414,1.04206 1.169414,2.88302 z m -5.036586,1.44729 q 0.903112,0 1.713597,-0.45155 0.822064,-0.46314 1.366246,-1.27362 v -3.13774 h -1.75991 q -1.933586,0 -2.801963,0.65997 -0.868377,0.65996 -0.868377,1.89885 0,2.30409 2.350407,2.30409 z"
         style="font-style:normal;font-variant:normal;font-weight:normal;font-stretch:normal;font-size:22.5778px;font-family:'Fira Code';-inkscape-font-specification:'Fira Code';stroke-width:0.264583"
         id="path828" />
    </g>
    <g
       aria-label="r"
       id="text1790-0"
       style="font-style:normal;font-weight:normal;font-size:22.5778px;line-height:1.25;font-family:sans-serif;fill:#000000;fill-opacity:1;stroke:none;stroke-width:0.264583">
      <path
         d="m 131.17968,131.02916 q 0.47471,0 0.86838,0.0695 0.39366,0.0579 0.8568,0.19683 l -0.27788,4.1219 h -1.59782 v -2.59356 h -0.1042 q -1.41256,0 -2.4083,0.99574 -0.99574,0.99574 -1.60939,3.01038 v 5.16394 h 2.47776 v 1.49361 h -6.32178 v -1.49361 h 1.89885 v -9.20479 h -1.89885 v -1.49361 h 3.38088 l 0.35893,2.88301 q 0.74102,-1.58623 1.75991,-2.36198 1.03047,-0.78733 2.61671,-0.78733 z"
         style="font-style:normal;font-variant:normal;font-weight:normal;font-stretch:normal;font-size:22.5778px;font-family:'Fira Code';-inkscape-font-specification:'Fira Code';stroke-width:0.264583"
         id="path831" />
    </g>
    <g
       aria-label="s"
       id="text1794-3"
       style="font-style:normal;font-variant:normal;font-weight:normal;font-stretch:normal;font-size:22.5778px;line-height:1.25;font-family:'Fira Code';-inkscape-font-specification:'Fira Code';fill:#000000;fill-opacity:1;stroke:none;stroke-width:0.264583">
      <path
         d="m 171.49292,142.02216 q 1.40098,0 2.21146,-0.52103 0.82207,-0.52102 0.82207,-1.41256 0,-0.60207 -0.21999,-0.98416 -0.20841,-0.39366 -0.84522,-0.71785 -0.62523,-0.3242 -1.88727,-0.63681 -1.40099,-0.34736 -2.29252,-0.7526 -0.87995,-0.41682 -1.37782,-1.07679 -0.48629,-0.65996 -0.48629,-1.67886 0,-1.00731 0.57891,-1.75991 0.57892,-0.75259 1.62097,-1.15783 1.05363,-0.40525 2.43146,-0.40525 1.37782,0 2.47777,0.37051 1.11152,0.35893 1.94516,0.97258 l -0.8568,1.31994 q -0.76417,-0.52103 -1.60939,-0.79891 -0.83364,-0.28946 -1.93358,-0.28946 -1.37783,0 -2.01464,0.4284 -0.62523,0.41682 -0.62523,1.16941 0,0.54419 0.28946,0.89154 0.30104,0.34735 0.961,0.62523 0.67155,0.2663 1.99148,0.62523 1.31993,0.35893 2.16515,0.79891 0.84522,0.43997 1.31994,1.15783 0.47471,0.70628 0.47471,1.80623 0,1.23888 -0.71786,2.06095 -0.71786,0.81048 -1.88727,1.19257 -1.15784,0.38208 -2.53566,0.38208 -2.87144,0 -4.77029,-1.64413 l 1.11153,-1.28519 q 0.74101,0.62523 1.67886,0.97258 0.93785,0.34735 1.9799,0.34735 z"
         style="font-style:normal;font-variant:normal;font-weight:normal;font-stretch:normal;font-size:22.5778px;font-family:'Fira Code';-inkscape-font-specification:'Fira Code';stroke-width:0.264583"
         id="path834" />
    </g>
    <path
       id="rect1009-7-5-3-0"
       style="fill:#000000;fill-opacity:0;stroke:#000000;stroke-width:1.06821;stroke-miterlimit:4;stroke-dasharray:none;stroke-opacity:1"
       d="m 199.50398,115.62785 h 30.68525 c 2.49362,0 4.50113,2.00751 4.50113,4.50113 v 30.68524 c 0,2.49362 -2.00751,4.50113 -4.50113,4.50113 h -30.68525 c -2.49362,0 -4.50113,-2.00751 -4.50113,-4.50113 v -30.68524 c 0,-2.49362 2.00751,-4.50113 4.50113,-4.50113 z" />
    <path
       id="rect1009-7-5-3-6-6"
       style="fill:#000000;fill-opacity:0;stroke:#000000;stroke-width:1.06821;stroke-miterlimit:4;stroke-dasharray:none;stroke-opacity:1"
       d="m 243.16023,115.62785 h 30.68525 c 2.49362,0 4.50113,2.00751 4.50113,4.50113 v 30.68524 c 0,2.49362 -2.00751,4.50113 -4.50113,4.50113 h -30.68525 c -2.49362,0 -4.50113,-2.00751 -4.50113,-4.50113 v -30.68524 c 0,-2.49362 2.00751,-4.50113 4.50113,-4.50113 z" />
    <path
       id="rect1009-7-5-3-6-7-2"
       style="fill:#000000;fill-opacity:0;stroke:#000000;stroke-width:1.06821;stroke-miterlimit:4;stroke-dasharray:none;stroke-opacity:1"
       d="m 286.8165,115.62785 h 30.68524 c 2.49363,0 4.50113,2.00751 4.50113,4.50113 v 30.68524 c 0,2.49362 -2.0075,4.50113 -4.50113,4.50113 H 286.8165 c -2.49363,0 -4.50113,-2.00751 -4.50113,-4.50113 v -30.68524 c 0,-2.49362 2.0075,-4.50113 4.50113,-4.50113 z" />
    <path
       id="rect1009-7-5-3-6-7-5-6"
       style="fill:#000000;fill-opacity:0;stroke:#000000;stroke-width:1.06821;stroke-miterlimit:4;stroke-dasharray:none;stroke-opacity:1"
       d="m 330.47275,115.62785 h 30.68524 c 2.49363,0 4.50113,2.00751 4.50113,4.50113 v 30.68524 c 0,2.49362 -2.0075,4.50113 -4.50113,4.50113 h -30.68524 c -2.49363,0 -4.50113,-2.00751 -4.50113,-4.50113 v -30.68524 c 0,-2.49362 2.0075,-4.50113 4.50113,-4.50113 z" />
    <path
       id="rect1009-7-5-3-6-7-5-3-1"
       style="fill:#000000;fill-opacity:0;stroke:#000000;stroke-width:1.06821;stroke-miterlimit:4;stroke-dasharray:none;stroke-opacity:1"
       d="m 374.129,115.62785 h 30.68524 c 2.49363,0 4.50113,2.00751 4.50113,4.50113 v 30.68524 c 0,2.49362 -2.0075,4.50113 -4.50113,4.50113 H 374.129 c -2.49363,0 -4.50113,-2.00751 -4.50113,-4.50113 v -30.68524 c 0,-2.49362 2.0075,-4.50113 4.50113,-4.50113 z" />
    <path
       id="rect1009-7-5-3-6-7-5-3-5-8"
       style="fill:#000000;fill-opacity:0;stroke:#000000;stroke-width:1.06821;stroke-miterlimit:4;stroke-dasharray:none;stroke-opacity:1"
       d="m 417.78525,115.62785 h 30.68524 c 2.49363,0 4.50113,2.00751 4.50113,4.50113 v 30.68524 c 0,2.49362 -2.0075,4.50113 -4.50113,4.50113 h -30.68524 c -2.49363,0 -4.50113,-2.00751 -4.50113,-4.50113 v -30.68524 c 0,-2.49362 2.0075,-4.50113 4.50113,-4.50113 z" />
    <path
       id="rect1009-7-5-3-6-7-5-3-5-6-7"
       style="fill:#000000;fill-opacity:0;stroke:#000000;stroke-width:1.06821;stroke-miterlimit:4;stroke-dasharray:none;stroke-opacity:1"
       d="m 461.4415,115.62785 h 30.68524 c 2.49363,0 4.50113,2.00751 4.50113,4.50113 v 30.68524 c 0,2.49362 -2.0075,4.50113 -4.50113,4.50113 H 461.4415 c -2.49363,0 -4.50113,-2.00751 -4.50113,-4.50113 v -30.68524 c 0,-2.49362 2.0075,-4.50113 4.50113,-4.50113 z" />
    <g
       aria-label="t"
       id="text216-9"
       style="font-style:normal;font-weight:normal;font-size:22.5778px;line-height:1.25;font-family:sans-serif;fill:#000000;fill-opacity:1;stroke:none;stroke-width:0.264583">
      <path
         d="m 220.55737,142.59544 q -0.61365,0.40524 -1.51676,0.63681 -0.89154,0.24314 -1.74834,0.24314 -1.28519,0 -2.21146,-0.46313 -0.91469,-0.47471 -1.40098,-1.30836 -0.48629,-0.83364 -0.48629,-1.91042 v -7.27121 h -2.80197 v -1.50519 h 2.80197 v -2.76723 l 1.94516,-0.23157 v 2.9988 h 4.21452 l -0.23156,1.50519 h -3.98296 v 7.24805 q 0,1.04205 0.54418,1.56308 0.55576,0.52102 1.78307,0.52102 1.23888,0 2.33883,-0.57891 z"
         style="font-style:normal;font-variant:normal;font-weight:normal;font-stretch:normal;font-size:22.5778px;font-family:'Fira Code';-inkscape-font-specification:'Fira Code';stroke-width:0.264583"
         id="path844" />
    </g>
    <g
       aria-label="g"
       id="text220-0"
       style="font-style:normal;font-weight:normal;font-size:22.5778px;line-height:1.25;font-family:sans-serif;fill:#000000;fill-opacity:1;stroke:none;stroke-width:0.264583">
      <path
         d="m 264.57012,130.62705 q -0.71786,0.21998 -1.53992,0.28945 -0.81049,0.0695 -2.02621,0.0695 2.11884,0.97259 2.11884,3.06827 0,1.20415 -0.55576,2.15357 -0.54419,0.93785 -1.58624,1.47046 -1.03047,0.52102 -2.44303,0.52102 -0.60208,0 -1.0189,-0.0463 -0.40524,-0.0579 -0.79891,-0.18525 -0.27788,0.19683 -0.46313,0.52102 -0.17368,0.31262 -0.17368,0.65997 0,0.47471 0.37051,0.75259 0.37051,0.2663 1.26204,0.2663 h 2.19989 q 1.20415,0 2.18831,0.43998 0.99574,0.4284 1.5515,1.19257 0.56734,0.7526 0.56734,1.67886 0,1.79465 -1.51676,2.75565 -1.51677,0.96101 -4.30715,0.96101 -1.92201,0 -3.05669,-0.39367 -1.1231,-0.39366 -1.60939,-1.20415 -0.48629,-0.7989 -0.48629,-2.07252 h 1.75991 q 0,0.75259 0.27788,1.19257 0.28946,0.45155 1.01889,0.67154 0.74102,0.21999 2.08411,0.21999 1.99148,0 2.92932,-0.49787 0.93785,-0.49787 0.93785,-1.50518 0,-0.84522 -0.76417,-1.29678 -0.76417,-0.45156 -1.99148,-0.45156 h -2.17673 q -1.00732,0 -1.70202,-0.31261 -0.6947,-0.31262 -1.03047,-0.83364 -0.33578,-0.52103 -0.33578,-1.14626 0,-0.5905 0.34735,-1.14626 0.34735,-0.55576 0.99574,-0.98416 -1.05363,-0.55576 -1.5515,-1.37782 -0.49787,-0.82207 -0.49787,-1.99148 0,-1.21573 0.61366,-2.17673 0.62523,-0.97259 1.72517,-1.51677 1.11152,-0.54418 2.52408,-0.54418 1.47046,0 2.43146,-0.11579 0.961,-0.12736 1.60939,-0.33577 0.65997,-0.20841 1.51677,-0.57892 z m -6.15969,0.62523 q -1.42413,0 -2.15357,0.76417 -0.71786,0.76417 -0.71786,2.04937 0,1.29677 0.72944,2.07252 0.74101,0.76418 2.18831,0.76418 1.27362,0 1.95674,-0.74102 0.6947,-0.75259 0.6947,-2.10726 0,-1.37783 -0.68312,-2.0841 -0.68312,-0.71786 -2.01464,-0.71786 z"
         style="font-style:normal;font-variant:normal;font-weight:normal;font-stretch:normal;font-size:22.5778px;font-family:'Fira Code';-inkscape-font-specification:'Fira Code';stroke-width:0.264583"
         id="path847" />
    </g>
    <g
       aria-label="m"
       id="text224-3"
       style="font-style:normal;font-weight:normal;font-size:22.5778px;line-height:1.25;font-family:sans-serif;fill:#000000;fill-opacity:1;stroke:none;stroke-width:0.264583">
      <path
         d="m 306.12429,130.94493 q 1.04205,0 1.70202,0.72943 0.65996,0.71786 0.65996,2.63987 v 9.07743 h -1.80622 v -8.76482 q 0,-0.86837 -0.0579,-1.29677 -0.0579,-0.43998 -0.25473,-0.64839 -0.19683,-0.21999 -0.62523,-0.21999 -1.19257,0 -2.13041,1.45887 v 9.4711 h -1.81781 v -8.76482 q 0,-0.86837 -0.0579,-1.29677 -0.0579,-0.43998 -0.25472,-0.64839 -0.19683,-0.21999 -0.62523,-0.21999 -1.19258,0 -2.13042,1.45887 v 9.4711 h -1.79465 v -12.19201 h 1.52835 l 0.11578,1.41256 q 0.55576,-0.79891 1.18099,-1.22731 0.62523,-0.43997 1.47045,-0.43997 1.72518,0 2.21147,1.60939 0.54418,-0.78733 1.16941,-1.19257 0.63681,-0.41682 1.51677,-0.41682 z"
         style="font-style:normal;font-variant:normal;font-weight:normal;font-stretch:normal;font-size:22.5778px;font-family:'Fira Code';-inkscape-font-specification:'Fira Code';stroke-width:0.264583"
         id="path850" />
    </g>
    <g
       aria-label="n"
       id="text228-5"
       style="font-style:normal;font-weight:normal;font-size:22.5778px;line-height:1.25;font-family:sans-serif;fill:#000000;fill-opacity:1;stroke:none;stroke-width:0.264583">
      <path
         d="m 342.75135,143.54875 v -12.19201 h 1.65571 l 0.15052,1.69044 q 0.72943,-0.91469 1.82938,-1.42414 1.11152,-0.52102 2.19989,-0.52102 1.74833,0 2.58197,0.92626 0.84522,0.92627 0.84522,2.66303 v 8.85744 h -1.94516 v -7.42173 q 0,-1.36624 -0.15052,-2.0841 -0.13894,-0.71786 -0.5905,-1.06521 -0.43998,-0.34735 -1.34309,-0.34735 -0.98416,0 -1.86411,0.61365 -0.86838,0.60208 -1.42414,1.42414 v 8.8806 z"
         style="font-style:normal;font-variant:normal;font-weight:normal;font-stretch:normal;font-size:22.5778px;font-family:'Fira Code';-inkscape-font-specification:'Fira Code';stroke-width:0.264583"
         id="path853" />
    </g>
    <g
       aria-label="e"
       id="text232-2"
       style="font-style:normal;font-weight:normal;font-size:22.5778px;line-height:1.25;font-family:sans-serif;fill:#000000;fill-opacity:1;stroke:none;stroke-width:0.264583">
      <path
         d="m 386.79004,137.71919 q 0.0463,1.36624 0.53261,2.28093 0.48629,0.90312 1.27362,1.34309 0.78732,0.4284 1.75991,0.4284 0.90311,0 1.6557,-0.2663 0.76417,-0.2663 1.59782,-0.83364 l 0.91469,1.2852 q -0.8568,0.67154 -1.96833,1.05363 -1.09994,0.38208 -2.22304,0.38208 -1.74833,0 -3.01037,-0.78732 -1.26204,-0.78733 -1.92201,-2.22305 -0.64839,-1.43572 -0.64839,-3.33457 0,-1.84096 0.65997,-3.28825 0.65996,-1.4473 1.86411,-2.25778 1.20415,-0.82206 2.80197,-0.82206 1.52834,0 2.63986,0.71785 1.1231,0.71786 1.7136,2.07253 0.60207,1.34309 0.60207,3.18405 0,0.5326 -0.0463,1.06521 z m 3.31141,-5.44183 q -1.41256,0 -2.30409,0.99574 -0.87996,0.98416 -0.99574,2.9409 h 6.35652 q -0.0347,-1.92201 -0.84522,-2.92932 -0.81049,-1.00732 -2.21147,-1.00732 z"
         style="font-style:normal;font-variant:normal;font-weight:normal;font-stretch:normal;font-size:22.5778px;font-family:'Fira Code';-inkscape-font-specification:'Fira Code';stroke-width:0.264583"
         id="path856" />
    </g>
    <g
       aria-label="i"
       id="text236-8"
       style="font-style:normal;font-weight:normal;font-size:22.5778px;line-height:1.25;font-family:sans-serif;fill:#000000;fill-opacity:1;stroke:none;stroke-width:0.264583">
      <path
         d="m 433.12786,125.48079 q 0.63681,0 1.03048,0.39367 0.39366,0.38208 0.39366,0.961 0,0.60207 -0.39366,0.99574 -0.39367,0.39366 -1.03048,0.39366 -0.61365,0 -1.00731,-0.39366 -0.39367,-0.40524 -0.39367,-0.99574 0,-0.57892 0.39367,-0.961 0.39366,-0.39367 1.00731,-0.39367 z m -4.04084,5.70813 h 5.59234 v 10.65209 h 3.43878 v 1.53993 h -9.14691 v -1.53993 h 3.76297 v -9.11216 h -3.64718 z"
         style="font-style:normal;font-variant:normal;font-weight:normal;font-stretch:normal;font-size:22.5778px;font-family:'Fira Code';-inkscape-font-specification:'Fira Code';stroke-width:0.264583"
         id="path859" />
    </g>
    <g
       aria-label="o"
       id="text240-7"
       style="font-style:normal;font-weight:normal;font-size:22.5778px;line-height:1.25;font-family:sans-serif;fill:#000000;fill-opacity:1;stroke:none;stroke-width:0.264583">
      <path
         d="m 477.11989,130.76235 q 1.69044,0 2.85986,0.77575 1.16941,0.76418 1.75991,2.19989 0.60207,1.42414 0.60207,3.36931 0,1.88727 -0.61365,3.32298 -0.60208,1.43572 -1.78307,2.24621 -1.18099,0.7989 -2.84828,0.7989 -1.69044,0 -2.87143,-0.77575 -1.16941,-0.78733 -1.77149,-2.21146 -0.60207,-1.42414 -0.60207,-3.35773 0,-1.89885 0.60207,-3.33456 0.61366,-1.43572 1.79465,-2.23463 1.19257,-0.79891 2.87143,-0.79891 z m 0,1.58624 q -1.58623,0 -2.38514,1.18099 -0.79891,1.16942 -0.79891,3.60087 0,2.39672 0.78733,3.57772 0.78733,1.16941 2.37356,1.16941 1.58624,0 2.37357,-1.16941 0.78733,-1.181 0.78733,-3.60087 0,-2.4083 -0.78733,-3.57772 -0.78733,-1.18099 -2.35041,-1.18099 z"
         style="font-style:normal;font-variant:normal;font-weight:normal;font-stretch:normal;font-size:22.5778px;font-family:'Fira Code';-inkscape-font-specification:'Fira Code';stroke-width:0.264583"
         id="path862" />
    </g>
    <path
       id="rect1009-2-6"
       style="fill:#000000;fill-opacity:0;stroke:#000000;stroke-width:1.06821;stroke-miterlimit:4;stroke-dasharray:none;stroke-opacity:1"
       d="m 80.441483,159.2841 h 30.685247 c 2.49362,0 4.50113,2.00751 4.50113,4.50113 v 30.68524 c 0,2.49362 -2.00751,4.50113 -4.50113,4.50113 H 80.441483 c -2.493626,0 -4.50113,-2.00751 -4.50113,-4.50113 v -30.68524 c 0,-2.49362 2.007504,-4.50113 4.50113,-4.50113 z" />
    <path
       id="rect1009-7-9-1"
       style="fill:#000000;fill-opacity:0;stroke:#000000;stroke-width:1.06821;stroke-miterlimit:4;stroke-dasharray:none;stroke-opacity:1"
       d="m 124.09773,159.2841 h 30.68525 c 2.49362,0 4.50113,2.00751 4.50113,4.50113 v 30.68524 c 0,2.49362 -2.00751,4.50113 -4.50113,4.50113 h -30.68525 c -2.49362,0 -4.50113,-2.00751 -4.50113,-4.50113 v -30.68524 c 0,-2.49362 2.00751,-4.50113 4.50113,-4.50113 z" />
    <path
       id="rect1009-7-5-1-2"
       style="fill:#000000;fill-opacity:0;stroke:#000000;stroke-width:1.06821;stroke-miterlimit:4;stroke-dasharray:none;stroke-opacity:1"
       d="m 167.75398,159.2841 h 30.68525 c 2.49362,0 4.50113,2.00751 4.50113,4.50113 v 30.68524 c 0,2.49362 -2.00751,4.50113 -4.50113,4.50113 h -30.68525 c -2.49362,0 -4.50113,-2.00751 -4.50113,-4.50113 v -30.68524 c 0,-2.49362 2.00751,-4.50113 4.50113,-4.50113 z" />
    <g
       aria-label="x"
       id="text1786-2-9"
       style="font-style:normal;font-weight:normal;font-size:22.5778px;line-height:1.25;font-family:sans-serif;fill:#000000;fill-opacity:1;stroke:none;stroke-width:0.264583">
      <path
         d="m 95.168856,181.64794 -3.380881,5.23342 H 89.56493 l 4.503981,-6.43756 -3.94822,-5.75445 h 2.304093 l 2.82512,4.53872 2.859855,-4.53872 h 2.223041 l -3.936638,5.6734 4.492408,6.51861 h -2.385147 z"
         style="font-style:normal;font-variant:normal;font-weight:normal;font-stretch:normal;font-size:22.5778px;font-family:'Fira Code';-inkscape-font-specification:'Fira Code';stroke-width:0.264583"
         id="path868" />
    </g>
    <g
       aria-label="c"
       id="text1790-0-1"
       style="font-style:normal;font-weight:normal;font-size:22.5778px;line-height:1.25;font-family:sans-serif;fill:#000000;fill-opacity:1;stroke:none;stroke-width:0.264583">
      <path
         d="m 140.04415,185.32278 q 1.63254,0 3.17247,-1.06521 l 0.94942,1.27362 q -0.7989,0.67154 -1.92201,1.07678 -1.1231,0.39367 -2.19988,0.39367 -1.79465,0 -3.09143,-0.77575 -1.28519,-0.77575 -1.95674,-2.19989 -0.67154,-1.42414 -0.67154,-3.33457 0,-1.84096 0.68312,-3.28825 0.68312,-1.45887 1.9799,-2.28094 1.29678,-0.83364 3.07984,-0.83364 2.32725,0 4.07559,1.41256 l -0.94943,1.29678 q -1.57466,-1.08837 -3.14931,-1.08837 -1.07679,0 -1.88728,0.5326 -0.81048,0.53261 -1.27362,1.6094 -0.45155,1.07678 -0.45155,2.63986 0,2.33883 0.97258,3.48509 0.98416,1.14626 2.63987,1.14626 z"
         style="font-style:normal;font-variant:normal;font-weight:normal;font-stretch:normal;font-size:22.5778px;font-family:'Fira Code';-inkscape-font-specification:'Fira Code';stroke-width:0.264583"
         id="path871" />
    </g>
    <g
       aria-label="d"
       id="text1794-3-4"
       style="font-style:normal;font-variant:normal;font-weight:normal;font-stretch:normal;font-size:22.5778px;line-height:1.25;font-family:'Fira Code';-inkscape-font-specification:'Fira Code';fill:#000000;fill-opacity:1;stroke:none;stroke-width:0.264583">
      <path
         d="m 185.98922,169.57856 1.94516,0.24315 v 17.10123 h -1.70202 l -0.18525,-1.60939 q -0.67155,0.94943 -1.5515,1.41256 -0.87996,0.46314 -1.91043,0.46314 -2.31567,0 -3.48509,-1.70202 -1.15783,-1.70202 -1.15783,-4.64293 0,-1.84095 0.56734,-3.28825 0.57891,-1.44729 1.6557,-2.25778 1.08837,-0.82206 2.55882,-0.82206 1.04205,0 1.84096,0.35893 0.81048,0.35893 1.42414,1.07678 z m -2.75565,6.46073 q -1.53993,0 -2.36199,1.21572 -0.81048,1.20415 -0.81048,3.58929 0,2.36199 0.74101,3.56614 0.75259,1.20415 2.18831,1.20415 1.72518,0 2.9988,-1.92201 v -6.09022 q -0.49787,-0.74101 -1.21573,-1.14625 -0.70628,-0.41682 -1.53992,-0.41682 z"
         style="font-style:normal;font-variant:normal;font-weight:normal;font-stretch:normal;font-size:22.5778px;font-family:'Fira Code';-inkscape-font-specification:'Fira Code';stroke-width:0.264583"
         id="path874" />
    </g>
    <path
       id="rect1009-7-5-3-0-8"
       style="fill:#000000;fill-opacity:0;stroke:#000000;stroke-width:1.06821;stroke-miterlimit:4;stroke-dasharray:none;stroke-opacity:1"
       d="m 211.41023,159.2841 h 30.68525 c 2.49362,0 4.50113,2.00751 4.50113,4.50113 v 30.68524 c 0,2.49362 -2.00751,4.50113 -4.50113,4.50113 h -30.68525 c -2.49362,0 -4.50113,-2.00751 -4.50113,-4.50113 v -30.68524 c 0,-2.49362 2.00751,-4.50113 4.50113,-4.50113 z" />
    <path
       id="rect1009-7-5-3-6-6-4"
       style="fill:#000000;fill-opacity:0;stroke:#000000;stroke-width:1.06821;stroke-miterlimit:4;stroke-dasharray:none;stroke-opacity:1"
       d="m 255.0665,159.2841 h 30.68524 c 2.49363,0 4.50113,2.00751 4.50113,4.50113 v 30.68524 c 0,2.49362 -2.0075,4.50113 -4.50113,4.50113 H 255.0665 c -2.49363,0 -4.50113,-2.00751 -4.50113,-4.50113 v -30.68524 c 0,-2.49362 2.0075,-4.50113 4.50113,-4.50113 z" />
    <path
       id="rect1009-7-5-3-6-7-2-5"
       style="fill:#000000;fill-opacity:0;stroke:#000000;stroke-width:1.06821;stroke-miterlimit:4;stroke-dasharray:none;stroke-opacity:1"
       d="m 298.72275,159.2841 h 30.68524 c 2.49363,0 4.50113,2.00751 4.50113,4.50113 v 30.68524 c 0,2.49362 -2.0075,4.50113 -4.50113,4.50113 h -30.68524 c -2.49363,0 -4.50113,-2.00751 -4.50113,-4.50113 v -30.68524 c 0,-2.49362 2.0075,-4.50113 4.50113,-4.50113 z" />
    <path
       id="rect1009-7-5-3-6-7-5-6-0"
       style="fill:#000000;fill-opacity:0;stroke:#000000;stroke-width:1.06821;stroke-miterlimit:4;stroke-dasharray:none;stroke-opacity:1"
       d="m 342.379,159.2841 h 30.68524 c 2.49363,0 4.50113,2.00751 4.50113,4.50113 v 30.68524 c 0,2.49362 -2.0075,4.50113 -4.50113,4.50113 H 342.379 c -2.49363,0 -4.50113,-2.00751 -4.50113,-4.50113 v -30.68524 c 0,-2.49362 2.0075,-4.50113 4.50113,-4.50113 z" />
    <path
       id="rect1009-7-5-3-6-7-5-3-1-3"
       style="fill:#000000;fill-opacity:0;stroke:#000000;stroke-width:1.06821;stroke-miterlimit:4;stroke-dasharray:none;stroke-opacity:1"
       d="m 386.03525,159.2841 h 30.68524 c 2.49363,0 4.50113,2.00751 4.50113,4.50113 v 30.68524 c 0,2.49362 -2.0075,4.50113 -4.50113,4.50113 h -30.68524 c -2.49363,0 -4.50113,-2.00751 -4.50113,-4.50113 v -30.68524 c 0,-2.49362 2.0075,-4.50113 4.50113,-4.50113 z" />
    <path
       id="rect1009-7-5-3-6-7-5-3-5-8-6"
       style="fill:#000000;fill-opacity:0;stroke:#000000;stroke-width:1.06821;stroke-miterlimit:4;stroke-dasharray:none;stroke-opacity:1"
       d="m 429.6915,159.2841 h 30.68524 c 2.49363,0 4.50113,2.00751 4.50113,4.50113 v 30.68524 c 0,2.49362 -2.0075,4.50113 -4.50113,4.50113 H 429.6915 c -2.49363,0 -4.50113,-2.00751 -4.50113,-4.50113 v -30.68524 c 0,-2.49362 2.0075,-4.50113 4.50113,-4.50113 z" />
    <path
       id="rect1009-7-5-3-6-7-5-3-5-6-7-1"
       style="fill:#000000;fill-opacity:0;stroke:#000000;stroke-width:1.06821;stroke-miterlimit:4;stroke-dasharray:none;stroke-opacity:1"
       d="m 473.34775,159.2841 h 30.68524 c 2.49363,0 4.50113,2.00751 4.50113,4.50113 v 30.68524 c 0,2.49362 -2.0075,4.50113 -4.50113,4.50113 h -30.68524 c -2.49363,0 -4.50113,-2.00751 -4.50113,-4.50113 v -30.68524 c 0,-2.49362 2.0075,-4.50113 4.50113,-4.50113 z" />
    <g
       aria-label="k"
       id="text216-9-0"
       style="font-style:normal;font-weight:normal;font-size:22.5778px;line-height:1.25;font-family:sans-serif;fill:#000000;fill-opacity:1;stroke:none;stroke-width:0.264583">
      <path
         d="m 222.67223,169.8752 1.94517,-0.24314 v 17.34438 h -1.94517 z m 7.56067,4.90923 h 2.52408 l -5.48814,5.48814 6.12495,6.70387 h -2.55881 l -5.99759,-6.65756 z"
         style="font-style:normal;font-variant:normal;font-weight:normal;font-stretch:normal;font-size:22.5778px;font-family:'Fira Code';-inkscape-font-specification:'Fira Code';stroke-width:0.264583"
         id="path884" />
    </g>
    <g
       aria-label="z"
       id="text220-0-3"
       style="font-style:normal;font-weight:normal;font-size:22.5778px;line-height:1.25;font-family:sans-serif;fill:#000000;fill-opacity:1;stroke:none;stroke-width:0.264583">
      <path
         d="m 275.55304,176.3795 -6.71545,9.03112 h 6.78492 l -0.25472,1.65571 h -8.91534 v -1.47045 l 6.76176,-9.03112 h -6.22915 v -1.69044 h 8.56798 z"
         style="font-style:normal;font-variant:normal;font-weight:normal;font-stretch:normal;font-size:22.5778px;font-family:'Fira Code';-inkscape-font-specification:'Fira Code';stroke-width:0.264583"
         id="path887" />
    </g>
    <g
       aria-label="v"
       id="text224-3-0"
       style="font-style:normal;font-weight:normal;font-size:22.5778px;line-height:1.25;font-family:sans-serif;fill:#000000;fill-opacity:1;stroke:none;stroke-width:0.264583">
      <path
         d="m 317.5982,174.84124 h 2.01463 l -4.43451,12.19201 h -2.25778 l -4.39978,-12.19201 h 2.06095 l 3.5314,10.42052 z"
         style="font-style:normal;font-variant:normal;font-weight:normal;font-stretch:normal;font-size:22.5778px;font-family:'Fira Code';-inkscape-font-specification:'Fira Code';stroke-width:0.264583"
         id="path890" />
    </g>
    <g
       aria-label="h"
       id="text228-5-1"
       style="font-style:normal;font-weight:normal;font-size:22.5778px;line-height:1.25;font-family:sans-serif;fill:#000000;fill-opacity:1;stroke:none;stroke-width:0.264583">
      <path
         d="m 356.63588,177.02059 q 0.70628,-0.92627 1.73675,-1.42414 1.04206,-0.49787 2.15358,-0.49787 1.74833,0 2.58197,0.92627 0.84522,0.92627 0.84522,2.66302 v 8.85745 h -1.94516 v -8.81113 q 0,-1.08837 -0.50945,-1.59782 -0.50945,-0.50944 -1.59781,-0.50944 -0.96101,0 -1.84096,0.61365 -0.87996,0.60207 -1.42414,1.42414 v 8.8806 h -1.94517 v -17.07808 l 1.94517,-0.20841 z"
         style="font-style:normal;font-variant:normal;font-weight:normal;font-stretch:normal;font-size:22.5778px;font-family:'Fira Code';-inkscape-font-specification:'Fira Code';stroke-width:0.264583"
         id="path893" />
    </g>
    <g
       aria-label="/"
       id="text232-2-5"
       style="font-style:normal;font-weight:normal;font-size:22.5778px;line-height:1.25;font-family:sans-serif;fill:#000000;fill-opacity:1;stroke:none;stroke-width:0.264583">
      <path
         d="m 407.519,168.80135 -9.88792,20.36634 -1.57465,-0.6947 9.91107,-20.43581 z"
         style="font-style:normal;font-variant:normal;font-weight:normal;font-stretch:normal;font-size:22.5778px;font-family:'Fira Code';-inkscape-font-specification:'Fira Code';stroke-width:0.264583"
         id="path896" />
    </g>
    <g
       aria-label="."
       id="text236-8-7"
       style="font-style:normal;font-weight:normal;font-size:22.5778px;line-height:1.25;font-family:sans-serif;fill:#000000;fill-opacity:1;stroke:none;stroke-width:0.264583">
      <path
         d="m 442.98474,184.96072 q 0,-0.55576 0.26631,-1.01889 0.2663,-0.46314 0.72943,-0.72944 0.46314,-0.27788 1.03048,-0.27788 0.57891,0 1.04205,0.27788 0.47471,0.2663 0.74101,0.72944 0.26631,0.46313 0.26631,1.01889 0,0.56734 -0.26631,1.04205 -0.2663,0.46314 -0.74101,0.74102 -0.46314,0.2663 -1.04205,0.2663 -0.56734,0 -1.03048,-0.2663 -0.46313,-0.27788 -0.72943,-0.74102 -0.26631,-0.47471 -0.26631,-1.04205 z"
         style="font-style:normal;font-variant:normal;font-weight:normal;font-stretch:normal;font-size:22.5778px;font-family:'Fira Code';-inkscape-font-specification:'Fira Code';stroke-width:0.264583"
         id="path899" />
    </g>
    <g
       aria-label=","
       id="text240-7-5"
       style="font-style:normal;font-weight:normal;font-size:22.5778px;line-height:1.25;font-family:sans-serif;fill:#000000;fill-opacity:1;stroke:none;stroke-width:0.264583">
      <path
         d="m 489.00298,183.05608 q 0.53261,0 0.96101,0.25472 0.4284,0.24315 0.67154,0.67154 0.24315,0.41683 0.24315,0.92627 0,0.4284 -0.10421,0.8568 -0.1042,0.4284 -0.34735,0.96101 l -1.87569,4.29557 h -1.75991 l 1.11152,-4.57345 q -0.34735,-0.25473 -0.55576,-0.65997 -0.19683,-0.41682 -0.19683,-0.87996 0,-0.50944 0.24314,-0.92627 0.24315,-0.42839 0.65997,-0.67154 0.4284,-0.25472 0.94942,-0.25472 z"
         style="font-style:normal;font-variant:normal;font-weight:normal;font-stretch:normal;font-size:22.5778px;font-family:'Fira Code';-inkscape-font-specification:'Fira Code';stroke-width:0.264583"
         id="path902" />
    </g>
    <path
       id="rect1009-2-6-7"
       style="fill:#000000;fill-opacity:0;stroke:#000000;stroke-width:1.06821;stroke-miterlimit:4;stroke-dasharray:none;stroke-opacity:1"
       d="m 143.94148,202.94035 h 300.56024 c 2.49363,0 4.50113,2.00751 4.50113,4.50113 v 30.68525 c 0,2.49362 -2.0075,4.50112 -4.50113,4.50112 H 143.94148 c -2.49362,0 -4.50113,-2.0075 -4.50113,-4.50112 v -30.68525 c 0,-2.49362 2.00751,-4.50113 4.50113,-4.50113 z" />
  </g>
</svg>
