<?xml version="1.0" encoding="UTF-8" standalone="no"?>
<svg
   xmlns:dc="http://purl.org/dc/elements/1.1/"
   xmlns:cc="http://creativecommons.org/ns#"
   xmlns:rdf="http://www.w3.org/1999/02/22-rdf-syntax-ns#"
   xmlns:svg="http://www.w3.org/2000/svg"
   xmlns="http://www.w3.org/2000/svg"
   xmlns:sodipodi="http://sodipodi.sourceforge.net/DTD/sodipodi-0.dtd"
   xmlns:inkscape="http://www.inkscape.org/namespaces/inkscape"
   width="1873.0746"
   height="669.03729"
   viewBox="0 0 495.58432 177.01612"
   version="1.1"
   id="svg1007"
   inkscape:version="1.0.2 (e86c870879, 2021-01-15, custom)"
   sodipodi:docname="colemaq-wide.svg">
  <defs
     id="defs1001" />
  <sodipodi:namedview
     id="base"
     pagecolor="#ffffff"
     bordercolor="#666666"
     borderopacity="1.0"
     inkscape:pageopacity="0.0"
     inkscape:pageshadow="2"
     inkscape:zoom="0.9899495"
     inkscape:cx="758.16308"
     inkscape:cy="263.6597"
     inkscape:document-units="px"
     inkscape:current-layer="layer1"
     inkscape:document-rotation="0"
     showgrid="true"
     units="px"
     showguides="true"
     inkscape:guide-bbox="true"
     objecttolerance="20"
     guidetolerance="10"
     inkscape:snap-bbox="true"
     inkscape:bbox-nodes="false"
     inkscape:snap-bbox-edge-midpoints="false"
     inkscape:snap-bbox-midpoints="false"
     inkscape:window-width="1600"
     inkscape:window-height="858"
     inkscape:window-x="900"
     inkscape:window-y="0"
     inkscape:window-maximized="1"
     inkscape:bbox-paths="false"
     fit-margin-top="10"
     fit-margin-left="10"
     fit-margin-right="10"
     fit-margin-bottom="10"
     lock-margins="true"
     inkscape:snap-nodes="false">
    <inkscape:grid
       type="xygrid"
       id="grid1742"
       spacingx="3.96875"
       spacingy="3.96875"
       empspacing="0"
       originx="-199.22631"
       originy="-278.60132" />
  </sodipodi:namedview>
  <metadata
     id="metadata1004">
    <rdf:RDF>
      <cc:Work
         rdf:about="">
        <dc:format>image/svg+xml</dc:format>
        <dc:type
           rdf:resource="http://purl.org/dc/dcmitype/StillImage" />
        <dc:title></dc:title>
      </cc:Work>
    </rdf:RDF>
  </metadata>
  <g
     inkscape:label="Layer 1"
     inkscape:groupmode="layer"
     id="layer1"
     transform="translate(-46.047383,-65.891107)">
    <path
       id="rect1009"
       style="fill:#000000;fill-opacity:0;stroke:#000000;stroke-width:1.06821;stroke-miterlimit:4;stroke-dasharray:none;stroke-opacity:1"
       d="m 53.728451,69.071045 h 30.685245 c 2.493626,0 4.501129,2.007503 4.501129,4.501128 v 30.685237 c 0,2.49362 -2.007503,4.50113 -4.501129,4.50113 H 53.728451 c -2.493626,0 -4.501129,-2.00751 -4.501129,-4.50113 V 73.572173 c 0,-2.493625 2.007503,-4.501128 4.501129,-4.501128 z" />
    <path
       id="rect1009-7"
       style="fill:#000000;fill-opacity:0;stroke:#000000;stroke-width:1.06821;stroke-miterlimit:4;stroke-dasharray:none;stroke-opacity:1"
       d="m 97.384705,69.071045 h 30.685245 c 2.49363,0 4.50113,2.007503 4.50113,4.501128 v 30.685237 c 0,2.49362 -2.0075,4.50113 -4.50113,4.50113 H 97.384705 c -2.493626,0 -4.50113,-2.00751 -4.50113,-4.50113 V 73.572173 c 0,-2.493625 2.007504,-4.501128 4.50113,-4.501128 z" />
    <path
       id="rect1009-7-5"
       style="fill:#000000;fill-opacity:0;stroke:#000000;stroke-width:1.06821;stroke-miterlimit:4;stroke-dasharray:none;stroke-opacity:1"
       d="m 141.04096,69.071045 h 30.68524 c 2.49363,0 4.50113,2.007503 4.50113,4.501128 v 30.685237 c 0,2.49362 -2.0075,4.50113 -4.50113,4.50113 h -30.68524 c -2.49363,0 -4.50113,-2.00751 -4.50113,-4.50113 V 73.572173 c 0,-2.493625 2.0075,-4.501128 4.50113,-4.501128 z" />
    <g
       aria-label=";"
       id="text1786"
       style="font-style:normal;font-weight:normal;font-size:22.5778px;line-height:1.25;font-family:sans-serif;fill:#000000;fill-opacity:1;stroke:none;stroke-width:0.264583">
      <path
         d="m 442.67786,172.53262 q 0.5326,0 0.961,0.25473 0.4284,0.24314 0.67155,0.67154 0.25472,0.4284 0.25472,0.93785 0,0.50945 -0.25472,0.94943 -0.24315,0.42839 -0.67155,0.68312 -0.4284,0.25472 -0.961,0.25472 -0.52103,0 -0.94943,-0.25472 -0.41682,-0.25473 -0.67154,-0.68312 -0.24315,-0.43998 -0.24315,-0.94943 0,-0.50945 0.24315,-0.93785 0.25472,-0.4284 0.67154,-0.67154 0.4284,-0.25473 0.94943,-0.25473 z m 0,8.00065 q 0.5326,0 0.961,0.25472 0.4284,0.24315 0.67155,0.67155 0.25472,0.41682 0.25472,0.92627 0,0.45155 -0.10421,0.87995 -0.1042,0.4284 -0.35893,0.96101 l -1.87569,4.30715 h -1.75991 l 1.11152,-4.59661 q -0.35893,-0.24315 -0.56734,-0.64839 -0.19683,-0.41682 -0.19683,-0.89153 0,-0.50945 0.24315,-0.93785 0.25472,-0.4284 0.67154,-0.67155 0.4284,-0.25472 0.94943,-0.25472 z"
         style="font-style:normal;font-variant:normal;font-weight:normal;font-stretch:normal;font-size:22.5778px;font-family:'Fira Code';-inkscape-font-specification:'Fira Code';stroke-width:0.264583"
         id="path472" />
    </g>
    <g
       aria-label="w"
       id="text1790"
       style="font-style:normal;font-weight:normal;font-size:22.5778px;line-height:1.25;font-family:sans-serif;fill:#000000;fill-opacity:1;stroke:none;stroke-width:0.264583">
      <path
         d="m 119.26911,84.946041 -2.13042,12.192013 h -2.75565 l -1.57466,-8.950072 -1.71359,8.950072 h -2.68618 l -2.22305,-12.192013 h 1.99148 l 1.5515,10.987864 1.94516,-9.436363 h 2.3041 l 1.84096,9.436363 1.5515,-10.987864 z"
         style="font-style:normal;font-variant:normal;font-weight:normal;font-stretch:normal;font-size:22.5778px;font-family:'Fira Code';-inkscape-font-specification:'Fira Code';stroke-width:0.264583"
         id="path469" />
    </g>
    <g
       aria-label="f"
       id="text1794"
       style="font-style:normal;font-variant:normal;font-weight:normal;font-stretch:normal;font-size:22.5778px;line-height:1.25;font-family:'Fira Code';-inkscape-font-specification:'Fira Code';fill:#000000;fill-opacity:1;stroke:none;stroke-width:0.264583"
       transform="translate(-99.36319,-42.786957)">
      <path
         d="m 258.87259,123.88686 q 0.94942,0 1.74833,0.17368 0.79891,0.1621 1.5515,0.48629 l -0.62523,1.4473 q -1.13468,-0.50945 -2.61671,-0.50945 -2.55882,0 -2.55882,2.02621 v 2.47777 h 4.13348 l -0.20841,1.52834 h -3.92507 v 9.71425 H 254.4265 V 131.517 h -2.90617 v -1.52834 h 2.90617 v -2.43146 q 0,-1.09994 0.57892,-1.93358 0.57891,-0.83364 1.58623,-1.2852 1.00732,-0.45156 2.28094,-0.45156 z"
         style="font-style:normal;font-variant:normal;font-weight:normal;font-stretch:normal;font-size:22.5778px;font-family:'Fira Code';-inkscape-font-specification:'Fira Code';stroke-width:0.264583"
         id="path466" />
    </g>
    <path
       id="rect1009-7-5-3"
       style="fill:#000000;fill-opacity:0;stroke:#000000;stroke-width:1.06821;stroke-miterlimit:4;stroke-dasharray:none;stroke-opacity:1"
       d="m 184.69721,69.071045 h 30.68524 c 2.49363,0 4.50113,2.007503 4.50113,4.501128 v 30.685237 c 0,2.49362 -2.0075,4.50113 -4.50113,4.50113 h -30.68524 c -2.49363,0 -4.50113,-2.00751 -4.50113,-4.50113 V 73.572173 c 0,-2.493625 2.0075,-4.501128 4.50113,-4.501128 z" />
    <path
       id="rect1009-7-5-3-6"
       style="fill:#000000;fill-opacity:0;stroke:#000000;stroke-width:1.06821;stroke-miterlimit:4;stroke-dasharray:none;stroke-opacity:1"
       d="m 228.35346,69.071045 h 30.68524 c 2.49363,0 4.50113,2.007503 4.50113,4.501128 v 30.685237 c 0,2.49362 -2.0075,4.50113 -4.50113,4.50113 h -30.68524 c -2.49363,0 -4.50113,-2.00751 -4.50113,-4.50113 V 73.572173 c 0,-2.493625 2.0075,-4.501128 4.50113,-4.501128 z" />
    <path
       id="rect1009-7-5-3-6-7"
       style="fill:#000000;fill-opacity:0;stroke:#000000;stroke-width:1.06821;stroke-miterlimit:4;stroke-dasharray:none;stroke-opacity:1"
       d="m 316.73416,70.139252 h 30.68525 c 2.49362,0 4.50113,2.007503 4.50113,4.501127 v 30.685241 c 0,2.49362 -2.00751,4.50112 -4.50113,4.50112 h -30.68525 c -2.49362,0 -4.50113,-2.0075 -4.50113,-4.50112 V 74.640379 c 0,-2.493624 2.00751,-4.501127 4.50113,-4.501127 z" />
    <path
       id="rect1009-7-5-3-6-7-5"
       style="fill:#000000;fill-opacity:0;stroke:#000000;stroke-width:1.06821;stroke-miterlimit:4;stroke-dasharray:none;stroke-opacity:1"
       d="m 360.39041,70.139252 h 30.68525 c 2.49362,0 4.50113,2.007503 4.50113,4.501127 v 30.685241 c 0,2.49362 -2.00751,4.50112 -4.50113,4.50112 h -30.68525 c -2.49362,0 -4.50113,-2.0075 -4.50113,-4.50112 V 74.640379 c 0,-2.493624 2.00751,-4.501127 4.50113,-4.501127 z" />
    <path
       id="rect1009-7-5-3-6-7-5-3"
       style="fill:#000000;fill-opacity:0;stroke:#000000;stroke-width:1.06821;stroke-miterlimit:4;stroke-dasharray:none;stroke-opacity:1"
       d="m 404.04666,70.139252 h 30.68525 c 2.49362,0 4.50113,2.007503 4.50113,4.501127 v 30.685241 c 0,2.49362 -2.00751,4.50112 -4.50113,4.50112 h -30.68525 c -2.49362,0 -4.50113,-2.0075 -4.50113,-4.50112 V 74.640379 c 0,-2.493624 2.00751,-4.501127 4.50113,-4.501127 z" />
    <path
       id="rect1009-7-5-3-6-7-5-3-5"
       style="fill:#000000;fill-opacity:0;stroke:#000000;stroke-width:1.06821;stroke-miterlimit:4;stroke-dasharray:none;stroke-opacity:1"
       d="m 447.70291,70.139252 h 30.68525 c 2.49362,0 4.50113,2.007503 4.50113,4.501127 v 30.685241 c 0,2.49362 -2.00751,4.50112 -4.50113,4.50112 h -30.68525 c -2.49362,0 -4.50113,-2.0075 -4.50113,-4.50112 V 74.640379 c 0,-2.493624 2.00751,-4.501127 4.50113,-4.501127 z" />
    <path
       id="rect1009-7-5-3-6-7-5-3-5-6"
       style="fill:#000000;fill-opacity:0;stroke:#000000;stroke-width:1.06821;stroke-miterlimit:4;stroke-dasharray:none;stroke-opacity:1"
       d="m 491.35913,70.139252 h 30.68525 c 2.49362,0 4.50113,2.007503 4.50113,4.501127 v 30.685241 c 0,2.49362 -2.00751,4.50112 -4.50113,4.50112 h -30.68525 c -2.49362,0 -4.50113,-2.0075 -4.50113,-4.50112 V 74.640379 c 0,-2.493624 2.00751,-4.501127 4.50113,-4.501127 z" />
    <g
       aria-label="p"
       id="text216"
       style="font-style:normal;font-weight:normal;font-size:22.5778px;line-height:1.25;font-family:sans-serif;fill:#000000;fill-opacity:1;stroke:none;stroke-width:0.264583">
      <path
         d="m 201.52448,84.205562 q 2.33883,0 3.3693,1.655705 1.04205,1.655705 1.04205,4.689236 0,1.887272 -0.52102,3.322989 -0.52103,1.424138 -1.58624,2.234623 -1.05363,0.810485 -2.59355,0.810485 -2.01464,0 -3.21879,-1.41256 v 5.81234 l -1.94516,0.24314 V 84.460286 h 1.65571 l 0.16209,1.702018 q 0.67155,-0.949425 1.59782,-1.447295 0.93784,-0.509447 2.03779,-0.509447 z m -0.46314,1.563078 q -0.93784,0 -1.71359,0.555761 -0.76418,0.555762 -1.33152,1.400982 v 6.043903 q 0.4863,0.717859 1.20415,1.123101 0.72944,0.405243 1.58624,0.405243 1.52834,0 2.28094,-1.169414 0.76417,-1.169415 0.76417,-3.589292 0,-2.408299 -0.68313,-3.589291 -0.68312,-1.180993 -2.10726,-1.180993 z"
         style="font-style:normal;font-variant:normal;font-weight:normal;font-stretch:normal;font-size:22.5778px;font-family:'Fira Code';-inkscape-font-specification:'Fira Code';stroke-width:0.264583"
         id="path456" />
    </g>
    <g
       aria-label="b"
       id="text220"
       style="font-style:normal;font-weight:normal;font-size:22.5778px;line-height:1.25;font-family:sans-serif;fill:#000000;fill-opacity:1;stroke:none;stroke-width:0.264583">
      <path
         d="m 241.67248,86.848057 q 0.68313,-0.891533 1.56308,-1.366246 0.87996,-0.474713 1.91043,-0.474713 2.36199,0 3.46193,1.678862 1.11152,1.667284 1.11152,4.666079 0,1.864116 -0.55576,3.311411 -0.55576,1.435716 -1.64412,2.246202 -1.08837,0.810485 -2.62829,0.810485 -1.06521,0 -1.88727,-0.370508 -0.82207,-0.382086 -1.43572,-1.157836 l -0.13894,1.262042 h -1.70202 V 80.352598 l 1.94516,-0.243146 z m 2.75565,9.297423 q 1.5515,0 2.36199,-1.192571 0.81048,-1.204149 0.81048,-3.612448 0,-2.373564 -0.72943,-3.566135 -0.72944,-1.204149 -2.142,-1.204149 -0.93785,0 -1.7136,0.555761 -0.77575,0.555761 -1.34309,1.400981 v 6.043904 q 0.4863,0.741015 1.20415,1.157836 0.72944,0.416821 1.5515,0.416821 z"
         style="font-style:normal;font-variant:normal;font-weight:normal;font-stretch:normal;font-size:22.5778px;font-family:'Fira Code';-inkscape-font-specification:'Fira Code';stroke-width:0.264583"
         id="path453" />
    </g>
    <g
       aria-label="j"
       id="text224"
       style="font-style:normal;font-weight:normal;font-size:22.5778px;line-height:1.25;font-family:sans-serif;fill:#000000;fill-opacity:1;stroke:none;stroke-width:0.264583">
      <path
         d="m 334.22772,78.578319 q 0.63681,0 1.03048,0.393664 0.40524,0.382086 0.40524,0.961004 0,0.602074 -0.40524,0.995739 -0.39367,0.393664 -1.03048,0.393664 -0.61365,0 -1.00732,-0.393664 -0.38208,-0.393665 -0.38208,-0.995739 0,-0.578918 0.38208,-0.961004 0.39367,-0.393664 1.00732,-0.393664 z m 1.8178,15.9434 q 0,2.952482 -1.96832,4.585031 -1.96832,1.64413 -5.80076,2.28094 l -0.32419,-1.50519 q 2.95248,-0.486291 4.5503,-1.702019 1.59781,-1.215728 1.59781,-3.5314 v -8.822709 h -5.07132 V 84.28645 h 7.01648 z"
         style="font-style:normal;font-variant:normal;font-weight:normal;font-stretch:normal;font-size:22.5778px;font-family:'Fira Code';-inkscape-font-specification:'Fira Code';stroke-width:0.264583"
         id="path450" />
    </g>
    <g
       aria-label="l"
       id="text228"
       style="font-style:normal;font-weight:normal;font-size:22.5778px;line-height:1.25;font-family:sans-serif;fill:#000000;fill-opacity:1;stroke:none;stroke-width:0.264583">
      <path
         d="m 377.44926,95.390078 q 0,0.856799 0.5326,1.262041 0.54418,0.393665 1.48203,0.393665 0.98416,0 2.04937,-0.4284 l 0.52103,1.424139 q -0.55577,0.27788 -1.29678,0.451556 -0.74102,0.173675 -1.59781,0.173675 -1.07679,0 -1.91043,-0.405243 -0.82207,-0.405242 -1.27362,-1.169414 -0.45156,-0.764172 -0.45156,-1.806224 V 82.839137 h -3.73981 v -1.539922 h 5.68498 z"
         style="font-style:normal;font-variant:normal;font-weight:normal;font-stretch:normal;font-size:22.5778px;font-family:'Fira Code';-inkscape-font-specification:'Fira Code';stroke-width:0.264583"
         id="path447" />
    </g>
    <g
       aria-label="u"
       id="text232"
       style="font-style:normal;font-weight:normal;font-size:22.5778px;line-height:1.25;font-family:sans-serif;fill:#000000;fill-opacity:1;stroke:none;stroke-width:0.264583">
      <path
         d="m 417.12453,94.083147 q 0,1.192571 0.48629,1.736754 0.49787,0.532604 1.56308,0.532604 0.961,0 1.86411,-0.555761 0.91469,-0.555761 1.43572,-1.377825 v -8.973228 h 1.94516 v 12.192012 h -1.6557 l -0.1621,-1.644127 q -0.70628,0.903112 -1.75991,1.41256 -1.04205,0.497869 -2.142,0.497869 -1.74833,0 -2.63986,-0.926269 -0.87996,-0.937847 -0.87996,-2.663022 v -8.869023 h 1.94517 z"
         style="font-style:normal;font-variant:normal;font-weight:normal;font-stretch:normal;font-size:22.5778px;font-family:'Fira Code';-inkscape-font-specification:'Fira Code';stroke-width:0.264583"
         id="path444" />
    </g>
    <g
       aria-label="y"
       id="text236"
       style="font-style:normal;font-weight:normal;font-size:22.5778px;line-height:1.25;font-family:sans-serif;fill:#000000;fill-opacity:1;stroke:none;stroke-width:0.264583">
      <path
         d="m 464.28441,97.679987 q -0.47471,1.366246 -1.13468,2.361983 -0.64839,0.99574 -1.7136,1.64413 -1.05363,0.65997 -2.59355,0.81048 l -0.30104,-1.5515 q 1.22731,-0.20841 1.95675,-0.62523 0.74101,-0.416818 1.15783,-1.053628 0.41682,-0.63681 0.77575,-1.667284 h -0.64838 l -4.26084,-12.192012 h 2.0841 l 3.49667,10.709982 3.45035,-10.709982 h 2.01463 z"
         style="font-style:normal;font-variant:normal;font-weight:normal;font-stretch:normal;font-size:22.5778px;font-family:'Fira Code';-inkscape-font-specification:'Fira Code';stroke-width:0.264583"
         id="path441" />
    </g>
    <g
       aria-label="q"
       id="text240"
       style="font-style:normal;font-weight:normal;font-size:22.5778px;line-height:1.25;font-family:sans-serif;fill:#000000;fill-opacity:1;stroke:none;stroke-width:0.264583">
      <path
         d="m 506.41229,85.273768 q 2.142,0 3.40404,1.586236 l 0.1621,-1.331512 h 1.6557 v 17.101238 l -1.94516,-0.24315 v -6.205997 q -0.64839,0.91469 -1.52834,1.366246 -0.87996,0.439978 -1.89886,0.439978 -2.36198,0 -3.42719,-1.655705 -1.06521,-1.655706 -1.06521,-4.689236 0,-1.852537 0.53261,-3.288254 0.54418,-1.447295 1.58623,-2.25778 1.05363,-0.822064 2.52408,-0.822064 z m 0.48629,1.563079 q -3.0451,0 -3.0451,4.805019 0,2.373564 0.6947,3.554556 0.70628,1.169415 2.11884,1.169415 0.94942,0 1.70202,-0.521026 0.76417,-0.521027 1.31993,-1.354669 v -6.090217 q -0.47471,-0.741015 -1.20415,-1.146257 -0.72944,-0.416821 -1.58624,-0.416821 z"
         style="font-style:normal;font-variant:normal;font-weight:normal;font-stretch:normal;font-size:22.5778px;font-family:'Fira Code';-inkscape-font-specification:'Fira Code';stroke-width:0.264583"
         id="path438" />
    </g>
    <path
       id="rect1009-2"
       style="fill:#000000;fill-opacity:0;stroke:#000000;stroke-width:1.06821;stroke-miterlimit:4;stroke-dasharray:none;stroke-opacity:1"
       d="m 65.634701,112.72729 h 30.685245 c 2.493626,0 4.501134,2.0075 4.501134,4.50113 v 30.68523 c 0,2.49363 -2.007508,4.50113 -4.501134,4.50113 H 65.634701 c -2.493626,0 -4.501129,-2.0075 -4.501129,-4.50113 v -30.68523 c 0,-2.49363 2.007503,-4.50113 4.501129,-4.50113 z" />
    <path
       id="rect1009-7-9"
       style="fill:#000000;fill-opacity:0;stroke:#000000;stroke-width:1.06821;stroke-miterlimit:4;stroke-dasharray:none;stroke-opacity:1"
       d="m 109.29096,112.72729 h 30.68525 c 2.49362,0 4.50113,2.0075 4.50113,4.50113 v 30.68523 c 0,2.49363 -2.00751,4.50113 -4.50113,4.50113 h -30.68525 c -2.49362,0 -4.50113,-2.0075 -4.50113,-4.50113 v -30.68523 c 0,-2.49363 2.00751,-4.50113 4.50113,-4.50113 z" />
    <path
       id="rect1009-7-5-1"
       style="fill:#000000;fill-opacity:0;stroke:#000000;stroke-width:1.06821;stroke-miterlimit:4;stroke-dasharray:none;stroke-opacity:1"
       d="m 152.94721,112.72729 h 30.68524 c 2.49363,0 4.50113,2.0075 4.50113,4.50113 v 30.68523 c 0,2.49363 -2.0075,4.50113 -4.50113,4.50113 h -30.68524 c -2.49363,0 -4.50113,-2.0075 -4.50113,-4.50113 v -30.68523 c 0,-2.49363 2.0075,-4.50113 4.50113,-4.50113 z" />
    <g
       aria-label="a"
       id="text1786-2"
       style="font-style:normal;font-weight:normal;font-size:22.5778px;line-height:1.25;font-family:sans-serif;fill:#000000;fill-opacity:1;stroke:none;stroke-width:0.264583">
      <path
         d="m 85.354414,137.5818 q 0,0.71786 0.231567,1.06521 0.231568,0.33578 0.764172,0.49787 l -0.474713,1.36625 q -1.75991,-0.23157 -2.234623,-1.7136 -0.648388,0.84522 -1.644127,1.2852 -0.984161,0.4284 -2.176732,0.4284 -1.204149,0 -2.095683,-0.46313 -0.891533,-0.46314 -1.366246,-1.30836 -0.474713,-0.8568 -0.474713,-1.99148 0,-1.88727 1.470452,-2.89459 1.470452,-1.00731 4.249258,-1.00731 h 1.794645 v -1.0189 q 0,-1.27362 -0.741015,-1.84096 -0.741015,-0.57892 -2.165153,-0.57892 -1.377825,0 -3.17247,0.62523 l -0.509448,-1.47045 q 2.037791,-0.76417 3.982956,-0.76417 2.234623,0 3.392459,1.05363 1.169414,1.04205 1.169414,2.88301 z m -5.036586,1.4473 q 0.903112,0 1.713597,-0.45156 0.822064,-0.46313 1.366246,-1.27362 v -3.13773 h -1.75991 q -1.933586,0 -2.801963,0.65997 -0.868377,0.65996 -0.868377,1.89885 0,2.30409 2.350407,2.30409 z"
         style="font-style:normal;font-variant:normal;font-weight:normal;font-stretch:normal;font-size:22.5778px;font-family:'Fira Code';-inkscape-font-specification:'Fira Code';stroke-width:0.264583"
         id="path432" />
    </g>
    <g
       aria-label="r"
       id="text1790-0"
       style="font-style:normal;font-weight:normal;font-size:22.5778px;line-height:1.25;font-family:sans-serif;fill:#000000;fill-opacity:1;stroke:none;stroke-width:0.264583">
      <path
         d="m 128.27915,128.12861 q 0.47471,0 0.86838,0.0695 0.39366,0.0579 0.8568,0.19684 l -0.27788,4.12189 h -1.59782 v -2.59355 h -0.1042 q -1.41256,0 -2.4083,0.99574 -0.99574,0.99574 -1.60939,3.01037 v 5.16395 h 2.47777 v 1.49361 h -6.32179 v -1.49361 h 1.89885 v -9.20479 h -1.89885 v -1.49361 h 3.38088 l 0.35893,2.88301 q 0.74102,-1.58624 1.75991,-2.36199 1.03048,-0.78733 2.61671,-0.78733 z"
         style="font-style:normal;font-variant:normal;font-weight:normal;font-stretch:normal;font-size:22.5778px;font-family:'Fira Code';-inkscape-font-specification:'Fira Code';stroke-width:0.264583"
         id="path429" />
    </g>
    <g
       aria-label="s"
       id="text1794-3"
       style="font-style:normal;font-variant:normal;font-weight:normal;font-stretch:normal;font-size:22.5778px;line-height:1.25;font-family:'Fira Code';-inkscape-font-specification:'Fira Code';fill:#000000;fill-opacity:1;stroke:none;stroke-width:0.264583">
      <path
         d="m 168.59239,139.12162 q 1.40098,0 2.21147,-0.52103 0.82206,-0.52103 0.82206,-1.41256 0,-0.60207 -0.21999,-0.98416 -0.20841,-0.39366 -0.84522,-0.71786 -0.62523,-0.32419 -1.88727,-0.63681 -1.40098,-0.34735 -2.29252,-0.75259 -0.87995,-0.41682 -1.37782,-1.07679 -0.48629,-0.65997 -0.48629,-1.67886 0,-1.00732 0.57892,-1.75991 0.57891,-0.75259 1.62097,-1.15784 1.05363,-0.40524 2.43145,-0.40524 1.37783,0 2.47777,0.37051 1.11152,0.35893 1.94516,0.97258 l -0.85679,1.31993 q -0.76418,-0.52102 -1.6094,-0.7989 -0.83364,-0.28946 -1.93358,-0.28946 -1.37783,0 -2.01464,0.4284 -0.62523,0.41682 -0.62523,1.16941 0,0.54418 0.28946,0.89153 0.30104,0.34736 0.961,0.62524 0.67155,0.2663 1.99148,0.62523 1.31994,0.35893 2.16516,0.7989 0.84522,0.43998 1.31993,1.15784 0.47471,0.70628 0.47471,1.80622 0,1.23889 -0.71786,2.06095 -0.71786,0.81049 -1.88727,1.19257 -1.15784,0.38209 -2.53566,0.38209 -2.87143,0 -4.77028,-1.64413 l 1.11152,-1.2852 q 0.74101,0.62524 1.67886,0.97259 0.93785,0.34735 1.9799,0.34735 z"
         style="font-style:normal;font-variant:normal;font-weight:normal;font-stretch:normal;font-size:22.5778px;font-family:'Fira Code';-inkscape-font-specification:'Fira Code';stroke-width:0.264583"
         id="path426" />
    </g>
    <path
       id="rect1009-7-5-3-0"
       style="fill:#000000;fill-opacity:0;stroke:#000000;stroke-width:1.06821;stroke-miterlimit:4;stroke-dasharray:none;stroke-opacity:1"
       d="m 196.60346,112.72729 h 30.68524 c 2.49363,0 4.50113,2.0075 4.50113,4.50113 v 30.68523 c 0,2.49363 -2.0075,4.50113 -4.50113,4.50113 h -30.68524 c -2.49363,0 -4.50113,-2.0075 -4.50113,-4.50113 v -30.68523 c 0,-2.49363 2.0075,-4.50113 4.50113,-4.50113 z" />
    <path
       id="rect1009-7-5-3-6-6"
       style="fill:#000000;fill-opacity:0;stroke:#000000;stroke-width:1.06821;stroke-miterlimit:4;stroke-dasharray:none;stroke-opacity:1"
       d="m 240.25971,112.72729 h 30.68524 c 2.49363,0 4.50113,2.0075 4.50113,4.50113 v 30.68523 c 0,2.49363 -2.0075,4.50113 -4.50113,4.50113 h -30.68524 c -2.49363,0 -4.50113,-2.0075 -4.50113,-4.50113 v -30.68523 c 0,-2.49363 2.0075,-4.50113 4.50113,-4.50113 z" />
    <path
       id="rect1009-7-5-3-6-7-2"
       style="fill:#000000;fill-opacity:0;stroke:#000000;stroke-width:1.06821;stroke-miterlimit:4;stroke-dasharray:none;stroke-opacity:1"
       d="m 328.64041,113.7955 h 30.68525 c 2.49362,0 4.50113,2.0075 4.50113,4.50113 v 30.68524 c 0,2.49362 -2.00751,4.50112 -4.50113,4.50112 h -30.68525 c -2.49362,0 -4.50113,-2.0075 -4.50113,-4.50112 v -30.68524 c 0,-2.49363 2.00751,-4.50113 4.50113,-4.50113 z" />
    <path
       id="rect1009-7-5-3-6-7-5-6"
       style="fill:#000000;fill-opacity:0;stroke:#000000;stroke-width:1.06821;stroke-miterlimit:4;stroke-dasharray:none;stroke-opacity:1"
       d="m 372.29666,113.7955 h 30.68525 c 2.49362,0 4.50113,2.0075 4.50113,4.50113 v 30.68524 c 0,2.49362 -2.00751,4.50112 -4.50113,4.50112 h -30.68525 c -2.49362,0 -4.50113,-2.0075 -4.50113,-4.50112 v -30.68524 c 0,-2.49363 2.00751,-4.50113 4.50113,-4.50113 z" />
    <path
       id="rect1009-7-5-3-6-7-5-3-1"
       style="fill:#000000;fill-opacity:0;stroke:#000000;stroke-width:1.06821;stroke-miterlimit:4;stroke-dasharray:none;stroke-opacity:1"
       d="m 415.95291,113.7955 h 30.68525 c 2.49362,0 4.50113,2.0075 4.50113,4.50113 v 30.68524 c 0,2.49362 -2.00751,4.50112 -4.50113,4.50112 h -30.68525 c -2.49362,0 -4.50113,-2.0075 -4.50113,-4.50112 v -30.68524 c 0,-2.49363 2.00751,-4.50113 4.50113,-4.50113 z" />
    <path
       id="rect1009-7-5-3-6-7-5-3-5-8"
       style="fill:#000000;fill-opacity:0;stroke:#000000;stroke-width:1.06821;stroke-miterlimit:4;stroke-dasharray:none;stroke-opacity:1"
       d="m 459.60916,113.7955 h 30.68525 c 2.49362,0 4.50113,2.0075 4.50113,4.50113 v 30.68524 c 0,2.49362 -2.00751,4.50112 -4.50113,4.50112 h -30.68525 c -2.49362,0 -4.50113,-2.0075 -4.50113,-4.50112 v -30.68524 c 0,-2.49363 2.00751,-4.50113 4.50113,-4.50113 z" />
    <path
       id="rect1009-7-5-3-6-7-5-3-5-6-7"
       style="fill:#000000;fill-opacity:0;stroke:#000000;stroke-width:1.06821;stroke-miterlimit:4;stroke-dasharray:none;stroke-opacity:1"
       d="m 503.26538,113.7955 h 30.68525 c 2.49362,0 4.50113,2.0075 4.50113,4.50113 v 30.68524 c 0,2.49362 -2.00751,4.50112 -4.50113,4.50112 h -30.68525 c -2.49362,0 -4.50113,-2.0075 -4.50113,-4.50112 v -30.68524 c 0,-2.49363 2.00751,-4.50113 4.50113,-4.50113 z" />
    <g
       aria-label="t"
       id="text216-9"
       style="font-style:normal;font-weight:normal;font-size:22.5778px;line-height:1.25;font-family:sans-serif;fill:#000000;fill-opacity:1;stroke:none;stroke-width:0.264583">
      <path
         d="m 217.65684,139.69489 q -0.61365,0.40525 -1.51676,0.63681 -0.89153,0.24315 -1.74833,0.24315 -1.2852,0 -2.21147,-0.46313 -0.91469,-0.47472 -1.40098,-1.30836 -0.48629,-0.83364 -0.48629,-1.91043 v -7.27121 h -2.80197 v -1.50518 h 2.80197 v -2.76723 l 1.94516,-0.23157 v 2.9988 h 4.21452 l -0.23156,1.50518 h -3.98296 v 7.24806 q 0,1.04205 0.54418,1.56307 0.55577,0.52103 1.78307,0.52103 1.23889,0 2.33883,-0.57892 z"
         style="font-style:normal;font-variant:normal;font-weight:normal;font-stretch:normal;font-size:22.5778px;font-family:'Fira Code';-inkscape-font-specification:'Fira Code';stroke-width:0.264583"
         id="path416" />
    </g>
    <g
       aria-label="g"
       id="text220-0"
       style="font-style:normal;font-weight:normal;font-size:22.5778px;line-height:1.25;font-family:sans-serif;fill:#000000;fill-opacity:1;stroke:none;stroke-width:0.264583"
       transform="translate(99.867421,42.618446)">
      <path
         d="m 162.24123,84.139237 q -0.71785,0.219989 -1.53992,0.289459 -0.81048,0.06947 -2.02621,0.06947 2.11884,0.972582 2.11884,3.068266 0,1.204149 -0.55576,2.153574 -0.54419,0.937847 -1.58624,1.470452 -1.03047,0.521026 -2.44303,0.521026 -0.60208,0 -1.0189,-0.04631 -0.40524,-0.05789 -0.7989,-0.185254 -0.27788,0.196832 -0.46314,0.521026 -0.17367,0.312616 -0.17367,0.659967 0,0.474712 0.3705,0.752593 0.37051,0.266302 1.26204,0.266302 h 2.19989 q 1.20415,0 2.18831,0.439978 0.99574,0.428399 1.5515,1.192571 0.56734,0.752593 0.56734,1.678862 0,1.794646 -1.51676,2.75565 -1.51677,0.961001 -4.30715,0.961001 -1.92201,0 -3.05669,-0.39366 -1.1231,-0.393666 -1.60939,-1.204151 -0.48629,-0.798907 -0.48629,-2.072527 h 1.75991 q 0,0.752594 0.27788,1.192571 0.28946,0.451557 1.0189,0.671545 0.74101,0.219989 2.0841,0.219989 1.99148,0 2.92932,-0.497869 0.93785,-0.49787 0.93785,-1.505187 0,-0.84522 -0.76417,-1.296776 -0.76417,-0.451556 -1.99148,-0.451556 h -2.17673 q -1.00732,0 -1.70202,-0.312616 -0.6947,-0.312616 -1.03047,-0.833642 -0.33577,-0.521026 -0.33577,-1.146257 0,-0.590497 0.34735,-1.146258 0.34735,-0.555761 0.99574,-0.984161 -1.05364,-0.555761 -1.5515,-1.377824 -0.49787,-0.822064 -0.49787,-1.991478 0,-1.215728 0.61365,-2.176732 0.62523,-0.972582 1.72517,-1.516765 1.11153,-0.544183 2.52409,-0.544183 1.47045,0 2.43145,-0.115783 0.96101,-0.127362 1.60939,-0.335773 0.65997,-0.20841 1.51677,-0.578918 z m -6.15968,0.625232 q -1.42414,0 -2.15358,0.764171 -0.71786,0.764172 -0.71786,2.04937 0,1.296776 0.72944,2.072526 0.74101,0.764172 2.18831,0.764172 1.27362,0 1.95674,-0.741015 0.6947,-0.752593 0.6947,-2.107261 0,-1.377825 -0.68312,-2.084105 -0.68312,-0.717858 -2.01463,-0.717858 z"
         style="font-style:normal;font-variant:normal;font-weight:normal;font-stretch:normal;font-size:22.5778px;font-family:'Fira Code';-inkscape-font-specification:'Fira Code';stroke-width:0.264583"
         id="path413" />
    </g>
    <g
       aria-label="m"
       id="text224-3"
       style="font-style:normal;font-weight:normal;font-size:22.5778px;line-height:1.25;font-family:sans-serif;fill:#000000;fill-opacity:1;stroke:none;stroke-width:0.264583">
      <path
         d="m 347.9482,129.11257 q 1.04206,0 1.70202,0.72944 0.65997,0.71786 0.65997,2.63987 v 9.07743 h -1.80623 v -8.76482 q 0,-0.86837 -0.0579,-1.29677 -0.0579,-0.43998 -0.25472,-0.64839 -0.19683,-0.21999 -0.62523,-0.21999 -1.19257,0 -2.13042,1.45887 v 9.4711 h -1.8178 v -8.76482 q 0,-0.86837 -0.0579,-1.29677 -0.0579,-0.43998 -0.25472,-0.64839 -0.19683,-0.21999 -0.62523,-0.21999 -1.19257,0 -2.13042,1.45887 v 9.4711 h -1.79464 V 129.3673 h 1.52834 l 0.11578,1.41256 q 0.55576,-0.79891 1.181,-1.22731 0.62523,-0.43998 1.47045,-0.43998 1.72517,0 2.21146,1.6094 0.54419,-0.78733 1.16942,-1.19257 0.63681,-0.41683 1.51676,-0.41683 z"
         style="font-style:normal;font-variant:normal;font-weight:normal;font-stretch:normal;font-size:22.5778px;font-family:'Fira Code';-inkscape-font-specification:'Fira Code';stroke-width:0.264583"
         id="path410" />
    </g>
    <g
       aria-label="n"
       id="text228-5"
       style="font-style:normal;font-weight:normal;font-size:22.5778px;line-height:1.25;font-family:sans-serif;fill:#000000;fill-opacity:1;stroke:none;stroke-width:0.264583">
      <path
         d="m 384.57527,141.7164 v -12.19201 h 1.6557 l 0.15052,1.69044 q 0.72944,-0.91469 1.82938,-1.42414 1.11152,-0.52103 2.19989,-0.52103 1.74833,0 2.58197,0.92627 0.84522,0.92627 0.84522,2.66303 v 8.85744 h -1.94516 v -7.42173 q 0,-1.36624 -0.15052,-2.0841 -0.13894,-0.71786 -0.5905,-1.06521 -0.43997,-0.34735 -1.34308,-0.34735 -0.98417,0 -1.86412,0.61365 -0.86838,0.60208 -1.42414,1.42414 v 8.8806 z"
         style="font-style:normal;font-variant:normal;font-weight:normal;font-stretch:normal;font-size:22.5778px;font-family:'Fira Code';-inkscape-font-specification:'Fira Code';stroke-width:0.264583"
         id="path407" />
    </g>
    <g
       aria-label="e"
       id="text232-2"
       style="font-style:normal;font-weight:normal;font-size:22.5778px;line-height:1.25;font-family:sans-serif;fill:#000000;fill-opacity:1;stroke:none;stroke-width:0.264583">
      <path
         d="m 428.61396,135.88684 q 0.0463,1.36624 0.5326,2.28093 0.48629,0.90312 1.27362,1.34309 0.78733,0.4284 1.75991,0.4284 0.90311,0 1.65571,-0.2663 0.76417,-0.2663 1.59781,-0.83364 l 0.91469,1.2852 q -0.8568,0.67154 -1.96832,1.05363 -1.09995,0.38208 -2.22305,0.38208 -1.74833,0 -3.01037,-0.78733 -1.26204,-0.78732 -1.92201,-2.22304 -0.64839,-1.43572 -0.64839,-3.33457 0,-1.84096 0.65997,-3.28825 0.65997,-1.4473 1.86412,-2.25778 1.20415,-0.82207 2.80196,-0.82207 1.52834,0 2.63987,0.71786 1.1231,0.71786 1.71359,2.07253 0.60208,1.34309 0.60208,3.18405 0,0.5326 -0.0463,1.06521 z m 3.31141,-5.44183 q -1.41256,0 -2.3041,0.99574 -0.87995,0.98416 -0.99574,2.9409 h 6.35652 q -0.0347,-1.92201 -0.84522,-2.92933 -0.81048,-1.00731 -2.21146,-1.00731 z"
         style="font-style:normal;font-variant:normal;font-weight:normal;font-stretch:normal;font-size:22.5778px;font-family:'Fira Code';-inkscape-font-specification:'Fira Code';stroke-width:0.264583"
         id="path404" />
    </g>
    <g
       aria-label="i"
       id="text236-8"
       style="font-style:normal;font-weight:normal;font-size:22.5778px;line-height:1.25;font-family:sans-serif;fill:#000000;fill-opacity:1;stroke:none;stroke-width:0.264583">
      <path
         d="m 474.95178,123.64844 q 0.63681,0 1.03047,0.39366 0.39366,0.38209 0.39366,0.96101 0,0.60207 -0.39366,0.99574 -0.39366,0.39366 -1.03047,0.39366 -0.61366,0 -1.00732,-0.39366 -0.39367,-0.40525 -0.39367,-0.99574 0,-0.57892 0.39367,-0.96101 0.39366,-0.39366 1.00732,-0.39366 z m -4.04085,5.70813 h 5.59235 v 10.65209 h 3.43877 v 1.53992 h -9.1469 v -1.53992 h 3.76296 v -9.11217 h -3.64718 z"
         style="font-style:normal;font-variant:normal;font-weight:normal;font-stretch:normal;font-size:22.5778px;font-family:'Fira Code';-inkscape-font-specification:'Fira Code';stroke-width:0.264583"
         id="path401" />
    </g>
    <g
       aria-label="o"
       id="text240-7"
       style="font-style:normal;font-weight:normal;font-size:22.5778px;line-height:1.25;font-family:sans-serif;fill:#000000;fill-opacity:1;stroke:none;stroke-width:0.264583">
      <path
         d="m 518.94377,128.93 q 1.69045,0 2.85986,0.77575 1.16941,0.76417 1.75991,2.19989 0.60207,1.42414 0.60207,3.3693 0,1.88728 -0.61365,3.32299 -0.60207,1.43572 -1.78307,2.2462 -1.18099,0.79891 -2.84827,0.79891 -1.69044,0 -2.87144,-0.77575 -1.16941,-0.78733 -1.77148,-2.21146 -0.60208,-1.42414 -0.60208,-3.35773 0,-1.89885 0.60208,-3.33457 0.61365,-1.43571 1.79464,-2.23462 1.19257,-0.79891 2.87143,-0.79891 z m 0,1.58624 q -1.58623,0 -2.38514,1.18099 -0.7989,1.16942 -0.7989,3.60087 0,2.39672 0.78732,3.57771 0.78733,1.16942 2.37357,1.16942 1.58623,0 2.37356,-1.16942 0.78733,-1.18099 0.78733,-3.60087 0,-2.40829 -0.78733,-3.57771 -0.78733,-1.18099 -2.35041,-1.18099 z"
         style="font-style:normal;font-variant:normal;font-weight:normal;font-stretch:normal;font-size:22.5778px;font-family:'Fira Code';-inkscape-font-specification:'Fira Code';stroke-width:0.264583"
         id="path398" />
    </g>
    <path
       id="rect1009-2-6"
       style="fill:#000000;fill-opacity:0;stroke:#000000;stroke-width:1.06821;stroke-miterlimit:4;stroke-dasharray:none;stroke-opacity:1"
       d="M 77.540955,156.38354 H 108.2262 c 2.49363,0 4.50113,2.00751 4.50113,4.50113 v 30.68524 c 0,2.49362 -2.0075,4.50113 -4.50113,4.50113 H 77.540955 c -2.493626,0 -4.50113,-2.00751 -4.50113,-4.50113 v -30.68524 c 0,-2.49362 2.007504,-4.50113 4.50113,-4.50113 z" />
    <path
       id="rect1009-7-9-1"
       style="fill:#000000;fill-opacity:0;stroke:#000000;stroke-width:1.06821;stroke-miterlimit:4;stroke-dasharray:none;stroke-opacity:1"
       d="m 121.19721,156.38354 h 30.68525 c 2.49362,0 4.50113,2.00751 4.50113,4.50113 v 30.68524 c 0,2.49362 -2.00751,4.50113 -4.50113,4.50113 h -30.68525 c -2.49362,0 -4.50113,-2.00751 -4.50113,-4.50113 v -30.68524 c 0,-2.49362 2.00751,-4.50113 4.50113,-4.50113 z" />
    <path
       id="rect1009-7-5-1-2"
       style="fill:#000000;fill-opacity:0;stroke:#000000;stroke-width:1.06821;stroke-miterlimit:4;stroke-dasharray:none;stroke-opacity:1"
       d="m 164.85346,156.38354 h 30.68524 c 2.49363,0 4.50113,2.00751 4.50113,4.50113 v 30.68524 c 0,2.49362 -2.0075,4.50113 -4.50113,4.50113 h -30.68524 c -2.49363,0 -4.50113,-2.00751 -4.50113,-4.50113 v -30.68524 c 0,-2.49362 2.0075,-4.50113 4.50113,-4.50113 z" />
    <g
       aria-label="x"
       id="text1786-2-9"
       style="font-style:normal;font-weight:normal;font-size:22.5778px;line-height:1.25;font-family:sans-serif;fill:#000000;fill-opacity:1;stroke:none;stroke-width:0.264583">
      <path
         d="m 92.268328,178.74739 -3.380881,5.23341 h -2.223045 l 4.503981,-6.43756 -3.94822,-5.75445 h 2.304093 l 2.82512,4.53872 2.859855,-4.53872 h 2.223045 l -3.936642,5.6734 4.492403,6.51861 h -2.385142 z"
         style="font-style:normal;font-variant:normal;font-weight:normal;font-stretch:normal;font-size:22.5778px;font-family:'Fira Code';-inkscape-font-specification:'Fira Code';stroke-width:0.264583"
         id="path392" />
    </g>
    <g
       aria-label="c"
       id="text1790-0-1"
       style="font-style:normal;font-weight:normal;font-size:22.5778px;line-height:1.25;font-family:sans-serif;fill:#000000;fill-opacity:1;stroke:none;stroke-width:0.264583">
      <path
         d="m 137.14362,182.42222 q 1.63255,0 3.17247,-1.06521 l 0.94942,1.27362 q -0.7989,0.67154 -1.922,1.07679 -1.1231,0.39366 -2.19989,0.39366 -1.79465,0 -3.09142,-0.77575 -1.2852,-0.77575 -1.95675,-2.19989 -0.67154,-1.42414 -0.67154,-3.33457 0,-1.84095 0.68312,-3.28825 0.68313,-1.45887 1.9799,-2.28094 1.29678,-0.83364 3.07984,-0.83364 2.32726,0 4.07559,1.41256 l -0.94943,1.29678 q -1.57465,-1.08837 -3.14931,-1.08837 -1.07679,0 -1.88727,0.53261 -0.81049,0.5326 -1.27362,1.60939 -0.45156,1.07679 -0.45156,2.63986 0,2.33883 0.97258,3.48509 0.98416,1.14626 2.63987,1.14626 z"
         style="font-style:normal;font-variant:normal;font-weight:normal;font-stretch:normal;font-size:22.5778px;font-family:'Fira Code';-inkscape-font-specification:'Fira Code';stroke-width:0.264583"
         id="path389" />
    </g>
    <g
       aria-label="d"
       id="text1794-3-4"
       style="font-style:normal;font-variant:normal;font-weight:normal;font-stretch:normal;font-size:22.5778px;line-height:1.25;font-family:'Fira Code';-inkscape-font-specification:'Fira Code';fill:#000000;fill-opacity:1;stroke:none;stroke-width:0.264583">
      <path
         d="m 183.08869,166.678 1.94516,0.24315 v 17.10123 h -1.70202 l -0.18525,-1.60939 q -0.67154,0.94943 -1.5515,1.41256 -0.87996,0.46314 -1.91043,0.46314 -2.31567,0 -3.48509,-1.70202 -1.15783,-1.70202 -1.15783,-4.64292 0,-1.84096 0.56734,-3.28826 0.57892,-1.44729 1.6557,-2.25778 1.08837,-0.82206 2.55882,-0.82206 1.04205,0 1.84096,0.35893 0.81049,0.35893 1.42414,1.07678 z m -2.75565,6.46073 q -1.53992,0 -2.36199,1.21572 -0.81048,1.20415 -0.81048,3.5893 0,2.36198 0.74101,3.56613 0.7526,1.20415 2.18831,1.20415 1.72518,0 2.9988,-1.92201 v -6.09021 q -0.49787,-0.74102 -1.21573,-1.14626 -0.70628,-0.41682 -1.53992,-0.41682 z"
         style="font-style:normal;font-variant:normal;font-weight:normal;font-stretch:normal;font-size:22.5778px;font-family:'Fira Code';-inkscape-font-specification:'Fira Code';stroke-width:0.264583"
         id="path386" />
    </g>
    <path
       id="rect1009-7-5-3-0-8"
       style="fill:#000000;fill-opacity:0;stroke:#000000;stroke-width:1.06821;stroke-miterlimit:4;stroke-dasharray:none;stroke-opacity:1"
       d="m 208.50971,156.38354 h 30.68524 c 2.49363,0 4.50113,2.00751 4.50113,4.50113 v 30.68524 c 0,2.49362 -2.0075,4.50113 -4.50113,4.50113 h -30.68524 c -2.49363,0 -4.50113,-2.00751 -4.50113,-4.50113 v -30.68524 c 0,-2.49362 2.0075,-4.50113 4.50113,-4.50113 z" />
    <path
       id="rect1009-7-5-3-6-6-4"
       style="fill:#000000;fill-opacity:0;stroke:#000000;stroke-width:1.06821;stroke-miterlimit:4;stroke-dasharray:none;stroke-opacity:1"
       d="m 252.16596,156.38354 h 30.68524 c 2.49363,0 4.50113,2.00751 4.50113,4.50113 v 30.68524 c 0,2.49362 -2.0075,4.50113 -4.50113,4.50113 h -30.68524 c -2.49363,0 -4.50113,-2.00751 -4.50113,-4.50113 v -30.68524 c 0,-2.49362 2.0075,-4.50113 4.50113,-4.50113 z" />
    <path
       id="rect1009-7-5-3-6-7-2-5"
       style="fill:#000000;fill-opacity:0;stroke:#000000;stroke-width:1.06821;stroke-miterlimit:4;stroke-dasharray:none;stroke-opacity:1"
       d="m 340.54666,157.45174 h 30.68525 c 2.49362,0 4.50113,2.0075 4.50113,4.50112 v 30.68524 c 0,2.49363 -2.00751,4.50113 -4.50113,4.50113 h -30.68525 c -2.49362,0 -4.50113,-2.0075 -4.50113,-4.50113 v -30.68524 c 0,-2.49362 2.00751,-4.50112 4.50113,-4.50112 z" />
    <path
       id="rect1009-7-5-3-6-7-5-6-0"
       style="fill:#000000;fill-opacity:0;stroke:#000000;stroke-width:1.06821;stroke-miterlimit:4;stroke-dasharray:none;stroke-opacity:1"
       d="m 384.20291,157.45174 h 30.68525 c 2.49362,0 4.50113,2.0075 4.50113,4.50112 v 30.68524 c 0,2.49363 -2.00751,4.50113 -4.50113,4.50113 h -30.68525 c -2.49362,0 -4.50113,-2.0075 -4.50113,-4.50113 v -30.68524 c 0,-2.49362 2.00751,-4.50112 4.50113,-4.50112 z" />
    <path
       id="rect1009-7-5-3-6-7-5-3-1-3"
       style="fill:#000000;fill-opacity:0;stroke:#000000;stroke-width:1.06821;stroke-miterlimit:4;stroke-dasharray:none;stroke-opacity:1"
       d="m 427.85916,157.45174 h 30.68525 c 2.49362,0 4.50113,2.0075 4.50113,4.50112 v 30.68524 c 0,2.49363 -2.00751,4.50113 -4.50113,4.50113 h -30.68525 c -2.49362,0 -4.50113,-2.0075 -4.50113,-4.50113 v -30.68524 c 0,-2.49362 2.00751,-4.50112 4.50113,-4.50112 z" />
    <path
       id="rect1009-7-5-3-6-7-5-3-5-8-6"
       style="fill:#000000;fill-opacity:0;stroke:#000000;stroke-width:1.06821;stroke-miterlimit:4;stroke-dasharray:none;stroke-opacity:1"
       d="m 471.51541,157.45174 h 30.68525 c 2.49362,0 4.50113,2.0075 4.50113,4.50112 v 30.68524 c 0,2.49363 -2.00751,4.50113 -4.50113,4.50113 h -30.68525 c -2.49362,0 -4.50113,-2.0075 -4.50113,-4.50113 v -30.68524 c 0,-2.49362 2.00751,-4.50112 4.50113,-4.50112 z" />
    <g
       aria-label="k"
       id="text216-9-0"
       style="font-style:normal;font-weight:normal;font-size:22.5778px;line-height:1.25;font-family:sans-serif;fill:#000000;fill-opacity:1;stroke:none;stroke-width:0.264583">
      <path
         d="m 219.77171,166.97465 1.94516,-0.24315 v 17.34438 h -1.94516 z m 7.56066,4.90922 h 2.52409 l -5.48815,5.48814 6.12496,6.70387 h -2.55882 l -5.99759,-6.65755 z"
         style="font-style:normal;font-variant:normal;font-weight:normal;font-stretch:normal;font-size:22.5778px;font-family:'Fira Code';-inkscape-font-specification:'Fira Code';stroke-width:0.264583"
         id="path377" />
    </g>
    <g
       aria-label="z"
       id="text220-0-3"
       style="font-style:normal;font-weight:normal;font-size:22.5778px;line-height:1.25;font-family:sans-serif;fill:#000000;fill-opacity:1;stroke:none;stroke-width:0.264583">
      <path
         d="m 271.6792,171.94718 -6.71545,9.03112 h 6.78492 l -0.25472,1.6557 h -8.91534 v -1.47045 l 6.76176,-9.03112 h -6.22915 v -1.69044 h 8.56798 z"
         style="font-style:normal;font-variant:normal;font-weight:normal;font-stretch:normal;font-size:22.5778px;font-family:'Fira Code';-inkscape-font-specification:'Fira Code';stroke-width:0.264583"
         id="path374" />
    </g>
    <g
       aria-label="v"
       id="text224-3-0"
       style="font-style:normal;font-weight:normal;font-size:22.5778px;line-height:1.25;font-family:sans-serif;fill:#000000;fill-opacity:1;stroke:none;stroke-width:0.264583">
      <path
         d="m 359.42211,173.00887 h 2.01463 l -4.43451,12.19201 h -2.25778 l -4.39977,-12.19201 h 2.06094 l 3.5314,10.42052 z"
         style="font-style:normal;font-variant:normal;font-weight:normal;font-stretch:normal;font-size:22.5778px;font-family:'Fira Code';-inkscape-font-specification:'Fira Code';stroke-width:0.264583"
         id="path371" />
    </g>
    <g
       aria-label="h"
       id="text228-5-1"
       style="font-style:normal;font-weight:normal;font-size:22.5778px;line-height:1.25;font-family:sans-serif;fill:#000000;fill-opacity:1;stroke:none;stroke-width:0.264583">
      <path
         d="m 398.45979,175.18822 q 0.70628,-0.92627 1.73676,-1.42414 1.04205,-0.49786 2.15357,-0.49786 1.74833,0 2.58198,0.92626 0.84522,0.92627 0.84522,2.66303 v 8.85744 h -1.94517 v -8.81113 q 0,-1.08837 -0.50945,-1.59781 -0.50944,-0.50945 -1.59781,-0.50945 -0.961,0 -1.84096,0.61365 -0.87995,0.60208 -1.42414,1.42414 v 8.8806 h -1.94516 v -17.07808 l 1.94516,-0.20841 z"
         style="font-style:normal;font-variant:normal;font-weight:normal;font-stretch:normal;font-size:22.5778px;font-family:'Fira Code';-inkscape-font-specification:'Fira Code';stroke-width:0.264583"
         id="path368" />
    </g>
    <g
       aria-label="."
       id="text236-8-7"
       style="font-style:normal;font-weight:normal;font-size:22.5778px;line-height:1.25;font-family:sans-serif;fill:#000000;fill-opacity:1;stroke:none;stroke-width:0.264583">
      <path
         d="m 484.80863,183.12836 q 0,-0.55577 0.2663,-1.0189 0.2663,-0.46313 0.72944,-0.72944 0.46313,-0.27788 1.03047,-0.27788 0.57892,0 1.04205,0.27788 0.47471,0.26631 0.74102,0.72944 0.2663,0.46313 0.2663,1.0189 0,0.56733 -0.2663,1.04205 -0.26631,0.46313 -0.74102,0.74101 -0.46313,0.2663 -1.04205,0.2663 -0.56734,0 -1.03047,-0.2663 -0.46314,-0.27788 -0.72944,-0.74101 -0.2663,-0.47472 -0.2663,-1.04205 z"
         style="font-style:normal;font-variant:normal;font-weight:normal;font-stretch:normal;font-size:22.5778px;font-family:'Fira Code';-inkscape-font-specification:'Fira Code';stroke-width:0.264583"
         id="path365" />
    </g>
    <g
       aria-label=","
       id="text240-7-5"
       style="font-style:normal;font-weight:normal;font-size:22.5778px;line-height:1.25;font-family:sans-serif;fill:#000000;fill-opacity:1;stroke:none;stroke-width:0.264583">
      <path
         d="m 68.692831,90.50901 q 0.532604,0 0.961004,0.254724 0.428399,0.243146 0.671545,0.671545 0.243145,0.416821 0.243145,0.926269 0,0.428399 -0.104205,0.856799 -0.104205,0.428399 -0.347351,0.961003 l -1.875694,4.295572 h -1.759911 l 1.111523,-4.573452 q -0.347351,-0.254724 -0.555761,-0.659967 -0.196833,-0.416821 -0.196833,-0.879955 0,-0.509448 0.243146,-0.926269 0.243145,-0.428399 0.659966,-0.671545 0.4284,-0.254724 0.949426,-0.254724 z"
         style="font-style:normal;font-variant:normal;font-weight:normal;font-stretch:normal;font-size:22.5778px;font-family:'Fira Code';-inkscape-font-specification:'Fira Code';stroke-width:0.264583"
         id="path362" />
    </g>
    <path
       id="rect1009-2-6-7"
       style="fill:#000000;fill-opacity:0;stroke:#000000;stroke-width:1.06821;stroke-miterlimit:4;stroke-dasharray:none;stroke-opacity:1"
       d="M 141.04096,200.03979 H 441.6012 c 2.49362,0 4.50113,2.00751 4.50113,4.50113 v 30.68525 c 0,2.49362 -2.00751,4.50112 -4.50113,4.50112 H 141.04096 c -2.49363,0 -4.50113,-2.0075 -4.50113,-4.50112 v -30.68525 c 0,-2.49362 2.0075,-4.50113 4.50113,-4.50113 z" />
    <path
       id="rect1009-7-5-3-6-7-8"
       style="fill:#000000;fill-opacity:0;stroke:#000000;stroke-width:1.06821;stroke-miterlimit:4;stroke-dasharray:none;stroke-opacity:1"
       d="m 273.07791,70.139244 h 30.68525 c 2.49362,0 4.50113,2.007503 4.50113,4.501128 v 30.685238 c 0,2.49362 -2.00751,4.50113 -4.50113,4.50113 h -30.68525 c -2.49362,0 -4.50113,-2.00751 -4.50113,-4.50113 V 74.640372 c 0,-2.493625 2.00751,-4.501128 4.50113,-4.501128 z" />
    <path
       id="rect1009-7-5-3-6-7-2-3"
       style="fill:#000000;fill-opacity:0;stroke:#000000;stroke-width:1.06821;stroke-miterlimit:4;stroke-dasharray:none;stroke-opacity:1"
       d="m 284.98416,113.79549 h 30.68525 c 2.49362,0 4.50113,2.0075 4.50113,4.50112 v 30.68524 c 0,2.49363 -2.00751,4.50113 -4.50113,4.50113 h -30.68525 c -2.49362,0 -4.50113,-2.0075 -4.50113,-4.50113 v -30.68524 c 0,-2.49362 2.00751,-4.50112 4.50113,-4.50112 z" />
    <path
       id="rect1009-7-5-3-6-7-2-5-9"
       style="fill:#000000;fill-opacity:0;stroke:#000000;stroke-width:1.06821;stroke-miterlimit:4;stroke-dasharray:none;stroke-opacity:1"
       d="m 296.89041,157.45174 h 30.68525 c 2.49362,0 4.50113,2.0075 4.50113,4.50112 v 30.68524 c 0,2.49363 -2.00751,4.50113 -4.50113,4.50113 h -30.68525 c -2.49362,0 -4.50113,-2.0075 -4.50113,-4.50113 v -30.68524 c 0,-2.49362 2.00751,-4.50112 4.50113,-4.50112 z" />
    <g
       aria-label="\"
       id="text862"
       style="font-style:normal;font-weight:normal;font-size:22.5778px;line-height:1.25;font-family:sans-serif;fill:#000000;fill-opacity:1;stroke:none;stroke-width:0.264583">
      <path
         d="m 315.6887,187.40361 -9.88792,-20.36634 1.5515,-0.76417 9.91108,20.4358 z"
         style="font-style:normal;font-variant:normal;font-weight:normal;font-stretch:normal;font-size:22.5778px;font-family:'Fira Code';-inkscape-font-specification:'Fira Code';stroke-width:0.264583"
         id="path355" />
    </g>
    <g
       aria-label="="
       id="text866"
       style="font-style:normal;font-weight:normal;font-size:22.5778px;line-height:1.25;font-family:sans-serif;fill:#000000;fill-opacity:1;stroke:none;stroke-width:0.264583">
      <path
         d="m 295.91157,130.68125 h 9.00796 v 1.67886 h -9.00796 z m 0,4.3882 h 9.00796 v 1.69044 h -9.00796 z"
         style="font-style:normal;font-variant:normal;font-weight:normal;font-stretch:normal;font-size:22.5778px;font-family:'Fira Code';-inkscape-font-specification:'Fira Code';stroke-width:0.264583"
         id="path352" />
    </g>
    <g
       aria-label="]"
       id="text870"
       style="font-style:normal;font-variant:normal;font-weight:normal;font-stretch:normal;font-size:22.5778px;line-height:1.25;font-family:'Fira Code';-inkscape-font-specification:'Fira Code';fill:#000000;fill-opacity:1;stroke:none;stroke-width:0.264583">
      <path
         d="m 285.87284,78.585422 h 5.80076 v 21.558908 h -5.80076 v -1.644129 h 3.9598 V 80.264285 h -3.9598 z"
         style="font-style:normal;font-variant:normal;font-weight:normal;font-stretch:normal;font-size:22.5778px;font-family:'Fira Code';-inkscape-font-specification:'Fira Code';stroke-width:0.264583"
         id="path349" />
    </g>
  </g>
</svg>
